<svg xmlns="http://www.w3.org/2000/svg" width="159.658" height="159.658" viewBox="0 0 159.658 159.658">
  <g id="Group_3276" data-name="Group 3276" transform="translate(-66.8 -35.982)">
    <g id="research-center" transform="translate(66.8 35.982)">
      <path id="Path_1592" data-name="Path 1592" d="M37.732,284.217H0V181H47.087v93.277Z" transform="translate(0 -124.558)" fill="#396267"/>
      <path id="Path_1593" data-name="Path 1593" d="M408.775,284.217h-37.42L362,276.031V181h46.775Z" transform="translate(-249.117 -124.558)" fill="#396267"/>
      <path id="Path_1594" data-name="Path 1594" d="M205.507,0V159.658H186.485L177.13,150.3H149.065l-9.355,9.355H121V0Z" transform="translate(-83.268)" fill="#4d777c"/>
      <path id="Path_1595" data-name="Path 1595" d="M298.409,0V159.658H279.387l-9.355-9.355H256V0Z" transform="translate(-176.171)" fill="#4d777c"/>
      <g id="Group_3312" data-name="Group 3312" transform="translate(56.442 93.862)">
        <path id="Path_1596" data-name="Path 1596" d="M181,301h46.775v9.355H181Z" transform="translate(-181 -301)" fill="#ececec"/>
      </g>
      <g id="Group_3313" data-name="Group 3313" transform="translate(56.442 112.571)">
        <path id="Path_1597" data-name="Path 1597" d="M181,361h46.775v9.355H181Z" transform="translate(-181 -361)" fill="#ececec"/>
      </g>
      <g id="Group_3314" data-name="Group 3314" transform="translate(14.344 131.281)">
        <path id="Path_1598" data-name="Path 1598" d="M46,421h9.355v9.355H46Z" transform="translate(-46 -421)" fill="#ececec"/>
      </g>
      <g id="Group_3315" data-name="Group 3315" transform="translate(14.344 112.571)">
        <path id="Path_1599" data-name="Path 1599" d="M46,361h9.355v9.355H46Z" transform="translate(-46 -361)" fill="#ececec"/>
      </g>
      <g id="Group_3316" data-name="Group 3316" transform="translate(14.344 93.862)">
        <path id="Path_1600" data-name="Path 1600" d="M46,301h9.355v9.355H46Z" transform="translate(-46 -301)" fill="#ececec"/>
      </g>
      <g id="Group_3317" data-name="Group 3317" transform="translate(136.271 93.862)">
        <path id="Path_1601" data-name="Path 1601" d="M437,301h9.355v9.355H437Z" transform="translate(-437 -301)" fill="#ececec"/>
      </g>
      <g id="Group_3318" data-name="Group 3318" transform="translate(136.271 112.571)">
        <path id="Path_1602" data-name="Path 1602" d="M437,361h9.355v9.355H437Z" transform="translate(-437 -361)" fill="#ececec"/>
      </g>
      <g id="Group_3319" data-name="Group 3319" transform="translate(136.271 131.281)">
        <path id="Path_1603" data-name="Path 1603" d="M437,421h9.355v9.355H437Z" transform="translate(-437 -421)" fill="#ececec"/>
      </g>
      <path id="Path_1604" data-name="Path 1604" d="M256,301h23.387v9.355H256Z" transform="translate(-176.171 -207.138)" fill="#ececec"/>
      <path id="Path_1605" data-name="Path 1605" d="M256,361h23.387v9.355H256Z" transform="translate(-176.171 -248.429)" fill="#ececec"/>
      <ellipse id="Ellipse_70" data-name="Ellipse 70" cx="14.5" cy="14" rx="14.5" ry="14" transform="translate(65.2 28.378)" fill="#edf5ff"/>
      <path id="Path_1610" data-name="Path 1610" d="M270.032,105.032A14.048,14.048,0,0,0,256,91v28.065A14.048,14.048,0,0,0,270.032,105.032Z" transform="translate(-176.171 -62.623)" fill="#d5e8fe"/>
      <path id="Path_1611" data-name="Path 1611" d="M227.775,421v28.377H218.42l-9.355-9.355H199.71l-9.355,9.355H181V421Z" transform="translate(-124.558 -289.719)" fill="#4d777c"/>
      <path id="Path_1612" data-name="Path 1612" d="M256,421h23.387v28.377h-9.355l-9.355-9.355H256Z" transform="translate(-176.171 -289.719)" fill="#4d777c"/>
      <path id="Path_1613" data-name="Path 1613" d="M211,451h34.966v23.7H211Z" transform="translate(-149.203 -315.041)" fill="#ececec"/>
      <path id="Path_1614" data-name="Path 1614" d="M256,451h14.032v19.022H256Z" transform="translate(-176.171 -310.364)" fill="#ececec"/>
    </g>
    <g id="notebook" transform="translate(-73.771 -10.84)">
      <g id="Group_3252" data-name="Group 3252" transform="translate(-822.229 -277.16)">
        <path id="Path_1504" data-name="Path 1504" d="M343.8,391.158a32.442,32.442,0,1,1,32.441-32.443A32.48,32.48,0,0,1,343.8,391.158Zm0,0" transform="translate(698.66 11.628)" fill="#6cc8c5"/>
        <path id="Icon_metro-dollar2" data-name="Icon metro-dollar2" d="M29.262,26.722A7.871,7.871,0,0,1,27.2,32.174,8.886,8.886,0,0,1,21.855,35v3.621a.637.637,0,0,1-.662.662H18.4a.671.671,0,0,1-.662-.662V35a13.042,13.042,0,0,1-2.638-.641,12.706,12.706,0,0,1-3.631-1.914,11.791,11.791,0,0,1-.962-.776q-.259-.248-.362-.372a.628.628,0,0,1-.041-.848l2.131-2.793a.644.644,0,0,1,.476-.248.513.513,0,0,1,.5.186l.041.041a10.8,10.8,0,0,0,5.028,2.586,7.227,7.227,0,0,0,1.531.166,5.017,5.017,0,0,0,2.948-.89,2.9,2.9,0,0,0,1.272-2.524,2.1,2.1,0,0,0-.31-1.1A3.877,3.877,0,0,0,23.024,25a5.679,5.679,0,0,0-1.21-.776q-.828-.424-1.366-.662t-1.655-.672q-.807-.331-1.272-.517t-1.272-.548q-.807-.362-1.293-.641t-1.169-.735a7.286,7.286,0,0,1-1.107-.879,12.9,12.9,0,0,1-.9-1.014,5.062,5.062,0,0,1-.735-1.2,8.3,8.3,0,0,1-.434-1.376,7.181,7.181,0,0,1-.176-1.614,7.075,7.075,0,0,1,2.028-5.007A9.467,9.467,0,0,1,17.738,6.59V2.866A.671.671,0,0,1,18.4,2.2h2.793a.637.637,0,0,1,.662.662V6.507a11.509,11.509,0,0,1,2.286.476,13.256,13.256,0,0,1,1.8.693,9.969,9.969,0,0,1,1.314.776q.621.434.807.6t.31.29a.6.6,0,0,1,.1.786L26.8,13.149a.564.564,0,0,1-.476.331.659.659,0,0,1-.559-.145q-.062-.062-.3-.248t-.807-.548a10.677,10.677,0,0,0-1.21-.662,9.241,9.241,0,0,0-1.541-.538,6.9,6.9,0,0,0-1.769-.238,5.377,5.377,0,0,0-3.207.89,2.781,2.781,0,0,0-1.066,3.29,2.329,2.329,0,0,0,.61.859,9.117,9.117,0,0,0,.817.683,7.288,7.288,0,0,0,1.159.641q.776.362,1.252.559t1.448.569q1.1.414,1.676.652t1.573.724a12.5,12.5,0,0,1,1.562.879,13.21,13.21,0,0,1,1.283,1.035,5.357,5.357,0,0,1,1.1,1.314,7.5,7.5,0,0,1,.652,1.583,6.826,6.826,0,0,1,.269,1.945Z" transform="translate(1022.835 350.06)" fill="#ececec"/>
      </g>
    </g>
  </g>
</svg>
