<svg xmlns="http://www.w3.org/2000/svg" width="159.668" height="152.725" viewBox="0 0 159.668 152.725">
  <g id="Group_3362" data-name="Group 3362" transform="translate(-71 -38.951)">
    <g id="email" transform="translate(71 28.285)">
      <path id="Path_1758" data-name="Path 1758" d="M165.106,218.994a17.354,17.354,0,0,1-12.287,5.068H27.861a17.355,17.355,0,0,1-12.287-5.068l56.647-56.647,9.58,6.942a14.37,14.37,0,0,0,17.077,0l9.58-6.942Z" transform="translate(-10.506 -102.322)" fill="#396267"/>
      <path id="Path_1759" data-name="Path 1759" d="M163.1,17.817,104.717,60.025l-9.58,6.942a14.37,14.37,0,0,1-17.077,0l-9.58-6.942L10.027,17.887a17.258,17.258,0,0,1,14.092-7.22H149.077A17.355,17.355,0,0,1,163.1,17.817Z" transform="translate(-6.764 0)" fill="#5c878c"/>
      <g id="Group_3355" data-name="Group 3355" transform="translate(0 17.817)">
        <path id="Path_1760" data-name="Path 1760" d="M3.263,32.854,61.715,74.992,5.068,131.639A17.355,17.355,0,0,1,0,119.352V42.989A17.147,17.147,0,0,1,3.263,32.854Z" transform="translate(0 -32.784)" fill="#4d777c"/>
        <path id="Path_1761" data-name="Path 1761" d="M362.729,42.845v76.363a17.355,17.355,0,0,1-5.068,12.287L301.014,74.848,359.4,32.64A17.258,17.258,0,0,1,362.729,42.845Z" transform="translate(-203.061 -32.64)" fill="#4d777c"/>
      </g>
      <circle id="Ellipse_80" data-name="Ellipse 80" cx="38.181" cy="38.181" r="38.181" transform="translate(41.652 87.03)" fill="#6cc8c5"/>
      <path id="Path_1762" data-name="Path 1762" d="M188.1,351.335a3.47,3.47,0,0,1-2.457-1.014l-13.884-13.884a3.471,3.471,0,0,1,4.908-4.908L188.1,342.956l21.84-21.84a3.471,3.471,0,0,1,4.908,4.908l-24.3,24.3A3.47,3.47,0,0,1,188.1,351.335Z" transform="translate(-115.211 -208.769)" fill="#ececec"/>
    </g>
  </g>
</svg>
