<svg xmlns="http://www.w3.org/2000/svg" width="159.185" height="159.481" viewBox="0 0 159.185 159.481">
  <g id="Group_3349" data-name="Group 3349" transform="translate(-65.7 -36.16)">
    <g id="notebook" transform="translate(22.229 36.16)">
      <path id="Path_1494" data-name="Path 1494" d="M182.417,0H82.946a8.42,8.42,0,0,0-8.41,8.41v142.66a8.42,8.42,0,0,0,8.41,8.41h99.471a14.859,14.859,0,0,0,14.842-14.842V14.842A14.859,14.859,0,0,0,182.417,0Z" transform="translate(-21.389)" fill="#4d777c"/>
      <g id="Group_3251" data-name="Group 3251" transform="translate(43.471 20.191)">
        <path id="Path_1495" data-name="Path 1495" d="M67.5,74.166H48.143a4.672,4.672,0,0,1,0-9.345H67.5a4.672,4.672,0,0,1,0,9.345Z" transform="translate(-43.471 -64.821)" fill="#6cc8c5"/>
        <path id="Path_1496" data-name="Path 1496" d="M67.5,162.255H48.143a4.672,4.672,0,1,1,0-9.345H67.5a4.672,4.672,0,0,1,0,9.345Z" transform="translate(-43.471 -125.472)" fill="#6cc8c5"/>
        <path id="Path_1497" data-name="Path 1497" d="M67.5,250.345H48.143a4.672,4.672,0,1,1,0-9.345H67.5a4.672,4.672,0,1,1,0,9.345Z" transform="translate(-43.471 -186.123)" fill="#6cc8c5"/>
        <path id="Path_1498" data-name="Path 1498" d="M67.5,338.435H48.143a4.672,4.672,0,0,1,0-9.345H67.5a4.672,4.672,0,0,1,0,9.345Z" transform="translate(-43.471 -246.774)" fill="#6cc8c5"/>
        <path id="Path_1499" data-name="Path 1499" d="M67.5,426.524H48.143a4.672,4.672,0,0,1,0-9.345H67.5a4.672,4.672,0,0,1,0,9.345Z" transform="translate(-43.471 -307.424)" fill="#6cc8c5"/>
      </g>
      <path id="Path_1500" data-name="Path 1500" d="M241.992,64.821H184.879a4.672,4.672,0,0,0-4.672,4.672V94.846a4.672,4.672,0,0,0,4.672,4.672h57.113a4.672,4.672,0,0,0,4.672-4.672V69.493A4.672,4.672,0,0,0,241.992,64.821Z" transform="translate(-94.145 -44.63)" fill="#ececec"/>
      <path id="Path_1501" data-name="Path 1501" d="M318.052,0H271.533V20.191l5.7,17.349-5.7,17.349V159.481h46.519a14.859,14.859,0,0,0,14.842-14.842V14.842A14.859,14.859,0,0,0,318.052,0Z" transform="translate(-157.024)" fill="#4d777c"/>
      <path id="Path_1502" data-name="Path 1502" d="M304.871,64.821H271.533v34.7h33.338a4.672,4.672,0,0,0,4.672-4.672V69.493A4.672,4.672,0,0,0,304.871,64.821Z" transform="translate(-157.024 -44.63)" fill="#e1ebf0"/>
      <path id="Path_1503" data-name="Path 1503" d="M318.969,417.179H296.681a4.672,4.672,0,0,0,0,9.345h22.288a4.672,4.672,0,0,0,0-9.345Z" transform="translate(-171.122 -287.234)" fill="#ececec"/>
      <g id="Group_3252" data-name="Group 3252" transform="translate(-872.229 -277.16)">
        <path id="Path_1504" data-name="Path 1504" d="M343.8,391.158a32.442,32.442,0,1,1,32.441-32.443A32.48,32.48,0,0,1,343.8,391.158Zm0,0" transform="translate(698.645 12.087)" fill="#6cc8c5"/>
        <path id="Icon_material-home" data-name="Icon material-home" d="M20.489,41.664V28.547h8.744V41.664h10.93V24.175h6.558L24.861,4.5,3,24.175H9.558V41.664Z" transform="translate(1018 346.86)" fill="#ececec"/>
      </g>
    </g>
  </g>
</svg>
