<svg xmlns="http://www.w3.org/2000/svg" width="160" height="160" viewBox="0 0 160 160">
  <g id="Group_13" data-name="Group 13" transform="translate(-1110 -104)">
    <g id="Group_12" data-name="Group 12">
      <path id="Path_25" data-name="Path 25" d="M93.9,91.493H18.217A16.216,16.216,0,0,1,2,75.275V21.217A16.216,16.216,0,0,1,18.217,5H93.9a16.216,16.216,0,0,1,16.217,16.217V75.275A16.216,16.216,0,0,1,93.9,91.493Z" transform="translate(1118.812 172.507)" fill="#4d777c"/>
      <rect id="Rectangle_1" data-name="Rectangle 1" width="9.96" height="11.206" transform="translate(1169.763 166.885)" fill="#396267"/>
      <ellipse id="Ellipse_1" data-name="Ellipse 1" cx="11.206" cy="10.583" rx="11.206" ry="10.583" transform="translate(1163.537 150.7)" fill="#4d777c"/>
      <path id="Path_26" data-name="Path 26" d="M22,42.435V10A10.809,10.809,0,0,1,32.812,20.812V31.623A10.809,10.809,0,0,1,22,42.435Z" transform="translate(1206.927 194.536)" fill="#396267"/>
      <path id="Path_27" data-name="Path 27" d="M10.812,10V42.435A10.809,10.809,0,0,1,0,31.623V20.812A10.809,10.809,0,0,1,10.812,10Z" transform="translate(1110 194.536)" fill="#396267"/>
      <ellipse id="Ellipse_2" data-name="Ellipse 2" cx="10.583" cy="11.206" rx="10.583" ry="11.206" transform="translate(1185.949 204.237)" fill="#6cc8c5" stroke="#396267" stroke-width="1"/>
      <ellipse id="Ellipse_3" data-name="Ellipse 3" cx="10.583" cy="11.206" rx="10.583" ry="11.206" transform="translate(1142.371 204.237)" fill="#6cc8c5" stroke="#396267" stroke-width="1"/>
      <path id="Path_28" data-name="Path 28" d="M16.406,18A5.408,5.408,0,0,0,11,23.406V34.217H21.812V23.406A5.408,5.408,0,0,0,16.406,18Z" transform="translate(1158.464 229.783)" fill="#396267"/>
      <path id="Path_29" data-name="Path 29" d="M20.406,18A5.408,5.408,0,0,0,15,23.406V34.217H25.812V23.406A5.408,5.408,0,0,0,20.406,18Z" transform="translate(1176.087 229.783)" fill="#396267"/>
      <path id="Path_30" data-name="Path 30" d="M12.406,18A5.408,5.408,0,0,0,7,23.406V34.217H17.812V23.406A5.408,5.408,0,0,0,12.406,18Z" transform="translate(1140.841 229.783)" fill="#396267"/>
    </g>
    <g id="Group_11" data-name="Group 11" transform="translate(3.027 -18.3)">
      <path id="Path_35" data-name="Path 35" d="M30.37,37.39a5.165,5.165,0,0,1,4.461-.343,2.95,2.95,0,0,0,3.328-.9,20.778,20.778,0,0,0,3.387-5.862,3.074,3.074,0,0,0-.978-3.424,5.176,5.176,0,0,1,0-7.911,3.087,3.087,0,0,0,.978-3.424,20.921,20.921,0,0,0-3.387-5.862,2.963,2.963,0,0,0-3.328-.9,5.177,5.177,0,0,1-7-4.056,2.912,2.912,0,0,0-2.392-2.417,20.375,20.375,0,0,0-6.882,0,2.912,2.912,0,0,0-2.392,2.417A5.175,5.175,0,0,1,9.184,8.765a2.953,2.953,0,0,0-3.328.895,20.913,20.913,0,0,0-3.391,5.866,3.089,3.089,0,0,0,.978,3.424,5.172,5.172,0,0,1,0,7.911,3.089,3.089,0,0,0-.978,3.424,20.921,20.921,0,0,0,3.387,5.862,2.963,2.963,0,0,0,3.328.9A5.176,5.176,0,0,1,16.171,41.1a2.922,2.922,0,0,0,2.387,2.421,20.425,20.425,0,0,0,6.891,0A2.922,2.922,0,0,0,27.837,41.1,5.181,5.181,0,0,1,30.37,37.39Z" transform="translate(1185.87 120.3)" fill="#4d777c"/>
      <path id="Path_36" data-name="Path 36" d="M13.362,5a8.362,8.362,0,1,0,8.362,8.362A8.36,8.36,0,0,0,13.362,5Z" transform="translate(1194.516 129.844)" fill="#6cc8c5"/>
      <path id="Path_37" data-name="Path 37" d="M45.383,55.006a6.718,6.718,0,0,1,5.8-.443A3.848,3.848,0,0,0,55.514,53.4a27.02,27.02,0,0,0,4.4-7.622,3.992,3.992,0,0,0-1.271-4.449,6.725,6.725,0,0,1,0-10.286,4,4,0,0,0,1.271-4.449,27.121,27.121,0,0,0-4.4-7.622A3.84,3.84,0,0,0,51.186,17.8a6.73,6.73,0,0,1-9.094-5.268,3.8,3.8,0,0,0-3.107-3.148A25.877,25.877,0,0,0,34.512,9a26.731,26.731,0,0,0-4.474.376,3.8,3.8,0,0,0-3.107,3.148,6.73,6.73,0,0,1-9.094,5.268A3.848,3.848,0,0,0,13.51,18.96a27.021,27.021,0,0,0-4.4,7.622,3.992,3.992,0,0,0,1.271,4.449,6.73,6.73,0,0,1,0,10.29A4,4,0,0,0,9.107,45.77a27.121,27.121,0,0,0,4.4,7.622,3.84,3.84,0,0,0,4.328,1.167,6.73,6.73,0,0,1,9.094,5.268,3.8,3.8,0,0,0,3.107,3.148,26.3,26.3,0,0,0,4.474.38,26.732,26.732,0,0,0,4.474-.376,3.8,3.8,0,0,0,3.107-3.148A6.728,6.728,0,0,1,45.383,55.006Z" transform="translate(1206.816 142.569)" fill="#4d777c"/>
      <path id="Path_38" data-name="Path 38" d="M22.953,13A10.453,10.453,0,1,0,33.406,23.453,10.451,10.451,0,0,0,22.953,13Z" transform="translate(1218.375 155.294)" fill="#6cc8c5"/>
    </g>
  </g>
</svg>
