<svg xmlns="http://www.w3.org/2000/svg" width="160" height="160" viewBox="0 0 160 160">
  <g id="Group_3268" data-name="Group 3268" transform="translate(-66 -35.659)">
    <rect id="Rectangle_601" data-name="Rectangle 601" width="160" height="160" transform="translate(66 35.659)" fill="#fff" opacity="0"/>
    <g id="phone-book" transform="translate(55.013 35.659)">
      <g id="Group_3213" data-name="Group 3213" transform="translate(15.515 38.693)">
        <path id="Path_1390" data-name="Path 1390" d="M22.77,138.631H37.28a7.255,7.255,0,1,0,0-14.51H22.77a7.255,7.255,0,1,0,0,14.51Z" transform="translate(-15.515 -124.121)" fill="#6cc8c5"/>
        <path id="Path_1391" data-name="Path 1391" d="M37.28,232.727H22.77a7.255,7.255,0,1,0,0,14.51H37.28a7.255,7.255,0,1,0,0-14.51Z" transform="translate(-15.515 -198.871)" fill="#6cc8c5"/>
        <path id="Path_1392" data-name="Path 1392" d="M37.28,341.333H22.77a7.255,7.255,0,1,0,0,14.51H37.28a7.255,7.255,0,1,0,0-14.51Z" transform="translate(-15.515 -273.621)" fill="#6cc8c5"/>
      </g>
      <g id="Group_3214" data-name="Group 3214" transform="translate(63.881 41.111)">
        <circle id="Ellipse_65" data-name="Ellipse 65" cx="21.765" cy="21.765" r="21.765" transform="translate(12.092)" fill="#ececec"/>
        <path id="Path_1393" data-name="Path 1393" d="M204.523,271.514a33.855,33.855,0,0,0-33.856,33.856h67.712A33.856,33.856,0,0,0,204.523,271.514Z" transform="translate(-170.667 -227.985)" fill="#ececec"/>
      </g>
      <path id="Path_1394" data-name="Path 1394" d="M190.231,0H93.5A31.473,31.473,0,0,0,62.061,31.438v7.255h7.255a7.255,7.255,0,1,1,0,14.51H62.061V72.549h7.255a7.255,7.255,0,0,1,0,14.51H62.061v19.347h7.255a7.255,7.255,0,0,1,0,14.51H62.061v7.255A31.473,31.473,0,0,0,93.5,159.608h96.732a7.255,7.255,0,0,0,7.255-7.255V7.255A7.255,7.255,0,0,0,190.231,0ZM129.773,118.5H95.917a33.855,33.855,0,0,1,33.856-33.856,21.765,21.765,0,1,1,21.765-21.765,21.765,21.765,0,0,1-21.765,21.765A33.855,33.855,0,0,1,163.63,118.5H129.773Z" transform="translate(-32.036)" fill="#4d777c"/>
      <path id="Path_1395" data-name="Path 1395" d="M95.917,118.5A33.855,33.855,0,0,1,129.773,84.64a21.765,21.765,0,0,1,0-43.529V0H93.5A31.473,31.473,0,0,0,62.061,31.438v7.255h7.255a7.255,7.255,0,1,1,0,14.51H62.061V72.549h7.255a7.255,7.255,0,0,1,0,14.51H62.061v19.347h7.255a7.255,7.255,0,0,1,0,14.51H62.061v7.255A31.473,31.473,0,0,0,93.5,159.608h36.275V118.5Z" transform="translate(-32.036)" fill="#396267"/>
    </g>
  </g>
</svg>
