<svg xmlns="http://www.w3.org/2000/svg" width="160" height="160" viewBox="0 0 160 160">
  <g id="Group_3270" data-name="Group 3270" transform="translate(-66 -35.659)">
    <rect id="Rectangle_603" data-name="Rectangle 603" width="160" height="160" transform="translate(66 35.659)" fill="#fff" opacity="0"/>
    <g id="request" transform="translate(55.434 36)">
      <path id="Path_1436" data-name="Path 1436" d="M167.491,64,101.982,2.862a10.643,10.643,0,0,0-14.523,0L21.95,64v66.68H167.491Z" transform="translate(-3.655)" fill="#396267"/>
      <path id="Path_1437" data-name="Path 1437" d="M125.8,134.345l14.231,13.281a10.643,10.643,0,0,0,14.523,0l40.63-37.919V38.455a5.322,5.322,0,0,0-5.321-5.321H104.721A5.321,5.321,0,0,0,99.4,38.455v71.252Z" transform="translate(-56.226 -22.49)" fill="#ececec"/>
      <path id="Path_1439" data-name="Path 1439" d="M18.3,199.243,69.574,247.1,83.8,260.379a10.643,10.643,0,0,0,14.523,0l65.509-61.137a5.307,5.307,0,0,1,1.729,3.926v81.073a10.643,10.643,0,0,1-10.643,10.643H27.209a10.643,10.643,0,0,1-10.643-10.643V203.168a5.308,5.308,0,0,1,1.729-3.926Z" transform="translate(0 -135.244)" fill="#ffce69"/>
      <path id="Path_1440" data-name="Path 1440" d="M18.3,199.243,69.574,247.1,83.8,260.379a10.643,10.643,0,0,0,14.523,0l65.509-61.137a5.307,5.307,0,0,1,1.729,3.926v81.073a10.643,10.643,0,0,1-10.643,10.643H27.209a10.643,10.643,0,0,1-10.643-10.643V203.168a5.308,5.308,0,0,1,1.729-3.926Z" transform="translate(0 -135.244)" fill="#4d777c"/>
      <path id="Path_1442" data-name="Path 1442" d="M374.507,441.378a5.321,5.321,0,0,0,0-10.643H353.221a5.321,5.321,0,0,0,0,10.643Z" transform="translate(-224.906 -292.379)" fill="#ececec"/>
      <g id="Group_3222" data-name="Group 3222" transform="translate(75.101 24.505)">
        <g id="Group_3221" data-name="Group 3221" transform="translate(0)">
          <circle id="Ellipse_66" data-name="Ellipse 66" cx="5.321" cy="5.321" r="5.321" transform="matrix(0.16, -0.987, 0.987, 0.16, 9.839, 62.928)" fill="#6cc8c5"/>
          <g id="Group_3220" data-name="Group 3220">
            <path id="Path_1444" data-name="Path 1444" d="M214.764,106.406a5.321,5.321,0,0,1-5.321-5.321V95.763a11.863,11.863,0,0,1,7.341-11.038,5.323,5.323,0,1,0-5.648-8.818,5.269,5.269,0,0,0-1.692,3.892,5.321,5.321,0,0,1-10.643,0A15.964,15.964,0,1,1,220.826,94.57a1.276,1.276,0,0,0-.741,1.193v5.321A5.321,5.321,0,0,1,214.764,106.406Z" transform="translate(-198.8 -63.836)" fill="#6cc8c5"/>
          </g>
        </g>
      </g>
    </g>
  </g>
</svg>
