<svg xmlns="http://www.w3.org/2000/svg" width="160" height="160" viewBox="0 0 160 160">
  <g id="Group_3272" data-name="Group 3272" transform="translate(-66 -35.659)">
    <rect id="Rectangle_605" data-name="Rectangle 605" width="160" height="160" transform="translate(66 35.659)" fill="#fff" opacity="0"/>
    <g id="noun_tenant_111378" transform="translate(58.454 31.007)">
      <g id="Group_3209" data-name="Group 3209" transform="translate(10.42 4.993)">
        <path id="Path_1379" data-name="Path 1379" d="M148.215,55.727H121.778c-5.686,0-10.463,6.357-11.909,15.006l3.309.579-33.4-1.062a10.931,10.931,0,0,0-7.3,3.092A13.45,13.45,0,0,0,70.1,76.7a10.884,10.884,0,0,0-1,4.808,11.073,11.073,0,0,0,11,10.751l.333-.007.073,0,27.295,1.91,14.117-.756L109.617,95.3,80.388,97.013l-.283,0A15.764,15.764,0,0,1,65.465,75.41L40.156,65.935c-6.925-2.593-14.011-.765-15.825,4.081a6.823,6.823,0,0,0-.411,2.833L22.4,72.387c-7.127-1.975-14.133.872-15.655,6.36-1.5,5.417,2.922,11.374,9.9,13.422a7.254,7.254,0,0,0-.517,1.315c-1.469,5.3,3.118,11.194,10.245,13.169l27.376,8.289c6.879,6.258,18.559,10.287,35.06,10.287,17.434,0,33.048-5,42.481-12.252h16.924c6.829,0,12.367-9.162,12.367-20.467V76.194C160.582,64.889,155.044,55.727,148.215,55.727Z" transform="translate(-6.455 34.059)" fill="#4d777c"/>
        <path id="Path_1380" data-name="Path 1380" d="M79.875,51.7A19.6,19.6,0,0,0,70.3,88.438v8.88a1.881,1.881,0,0,0,.522,1.219l5.746,5.746-5.049,5.049a1.485,1.485,0,0,0,0,2.263l5.049,4.875-5.049,5.049a1.487,1.487,0,0,0,0,2.263L78.83,131.1a1.485,1.485,0,0,0,2.263,0l8.009-8.009a1.581,1.581,0,0,0,.522-1.219V88.438a19.354,19.354,0,0,0,10.1-17.063A19.8,19.8,0,0,0,79.875,51.7Zm0,18.282a5.572,5.572,0,1,1,5.572-5.572A5.5,5.5,0,0,1,79.875,69.982Z" transform="translate(-2.898 -39.39)" fill="#6cc8c5"/>
        <line id="Line_259" data-name="Line 259" y2="21" transform="translate(76.627 1.5)" fill="none" stroke="#4d777c" stroke-linecap="round" stroke-width="3"/>
      </g>
    </g>
  </g>
</svg>
