<svg xmlns="http://www.w3.org/2000/svg" width="160" height="160" viewBox="0 0 160 160">
  <g id="Group_3269" data-name="Group 3269" transform="translate(-56 -35.659)">
    <rect id="Rectangle_602" data-name="Rectangle 602" width="160" height="160" transform="translate(56 35.659)" fill="#fff" opacity="0"/>
    <g id="friend-request" transform="translate(56 -15.856)">
      <g id="Group_3219" data-name="Group 3219" transform="translate(0 60.4)">
        <g id="Group_3217" data-name="Group 3217" transform="translate(81.715 8.91)">
          <path id="Path_1429" data-name="Path 1429" d="M295.777,308.124v17.843a2.29,2.29,0,0,1-2.291,2.287h-73.7a2.29,2.29,0,0,1-2.291-2.287V308.124a29.731,29.731,0,0,1,29.734-29.729h18.819a29.725,29.725,0,0,1,29.733,29.729Z" transform="translate(-217.492 -222.764)" fill="#6cc8c5"/>
          <path id="Path_1431" data-name="Path 1431" d="M306.717,152.931a22.589,22.589,0,1,1-16.152-21.667A22.607,22.607,0,0,1,306.717,152.931Z" transform="translate(-244.966 -130.327)" fill="#6cc8c5"/>
        </g>
        <g id="Group_3218" data-name="Group 3218">
          <path id="Path_1433" data-name="Path 1433" d="M108.986,340.833V365.67a3.19,3.19,0,0,1-3.189,3.189H3.189A3.19,3.19,0,0,1,0,365.67V340.833a41.392,41.392,0,0,1,41.392-41.392h26.2a41.38,41.38,0,0,1,41.392,41.392Z" transform="translate(0 -226.993)" fill="#4d777c"/>
          <path id="Path_1435" data-name="Path 1435" d="M124.211,138.088a31.472,31.472,0,1,1-11.933-24.675,31.469,31.469,0,0,1,11.933,24.675Z" transform="translate(-38.247 -106.613)" fill="#4d777c"/>
        </g>
      </g>
    </g>
  </g>
</svg>
