<svg xmlns="http://www.w3.org/2000/svg" width="160" height="160" viewBox="0 0 160 160">
  <g id="Group_3274" data-name="Group 3274" transform="translate(-65 -35.36)">
    <rect id="Rectangle_600" data-name="Rectangle 600" width="160" height="160" transform="translate(65 35.36)" fill="#fff" opacity="0"/>
    <g id="salary" transform="translate(60.31 35.659)">
      <g id="Group_3249" data-name="Group 3249" transform="translate(7.99 0)">
        <g id="Group_3231" data-name="Group 3231" transform="translate(31.8)">
          <g id="Group_3226" data-name="Group 3226" transform="translate(6.291 14.598)">
            <g id="Group_3224" data-name="Group 3224">
              <path id="Path_1471" data-name="Path 1471" d="M161.416,61.626a2.4,2.4,0,0,1-1.939-.98c-2.187-2.971-6.077-6.379-12.2-5.725A24.154,24.154,0,0,1,131.5,51.336a2.4,2.4,0,1,1,2.59-4.052,19.389,19.389,0,0,0,12.684,2.855c8.835-.938,14.181,4.394,16.582,7.657a2.4,2.4,0,0,1-1.934,3.83Z" transform="translate(-130.385 -46.905)" fill="#72b5bd"/>
            </g>
            <g id="Group_3225" data-name="Group 3225" transform="translate(3.455 13.015)">
              <path id="Path_1472" data-name="Path 1472" d="M143.89,103.2a2.4,2.4,0,0,1-2.047-3.663c3.082-5.021,8.73-8.472,16.333-9.979a43.6,43.6,0,0,1,10.39-.784,2.4,2.4,0,0,1-.326,4.8c-.167-.011-16.493-.979-22.3,8.481A2.4,2.4,0,0,1,143.89,103.2Z" transform="translate(-141.487 -88.726)" fill="#72b5bd"/>
            </g>
          </g>
          <g id="Group_3230" data-name="Group 3230">
            <g id="Group_3229" data-name="Group 3229">
              <path id="Path_1473" data-name="Path 1473" d="M158.563,134.219c39.487,0,61.321-57.92-1.035-102.655a5.85,5.85,0,0,1-2.451-4.814,7.824,7.824,0,0,1,1.422-4.4,113.794,113.794,0,0,0,9.641-17.044,1.979,1.979,0,0,0-1.874-2.855c-3.745,0-3.745-2.451-7.491-2.451s-3.745,2.451-7.491,2.451c-3.192,0-4.5-2.746-6.053-.749C138.7,7.527,154.2,28.01,154.2,28.01c-68.459,45-46.385,106.209-5.966,106.209h10.325Z" transform="translate(-110.172 0)" fill="#4d777c"/>
              <g id="Group_3227" data-name="Group 3227" transform="translate(41.345)">
                <path id="Path_1474" data-name="Path 1474" d="M265.591,28.01S281.322,7.593,276.8,1.736c-1.542-2-2.856.715-6.045.715-3.746,0-3.746-2.451-7.492-2.451s-3.746,2.451-7.491,2.451c-.185,0-.353-.01-.52-.022-1.505,6.451-8.287,16.5-12.168,21.884,1.528,2.243,2.629,3.7,2.629,3.7q-1.37.9-2.688,1.81c65.408,44.958,43.522,104.4,3.52,104.4H271.8c40.541,0,62.478-61.055-6.209-106.209Z" transform="translate(-243.022 0)" fill="#4d777c"/>
              </g>
              <g id="Group_3228" data-name="Group 3228" transform="translate(35.338 23.785)">
                <path id="Path_1475" data-name="Path 1475" d="M255.222,87.912a54.724,54.724,0,0,1-27.313,0,5.832,5.832,0,0,1-3.841-7.634l.038-.109a5.381,5.381,0,0,1,6.352-3.587,44.468,44.468,0,0,0,22.215,0,5.381,5.381,0,0,1,6.352,3.587l.038.109a5.831,5.831,0,0,1-3.84,7.634Z" transform="translate(-223.723 -76.425)" fill="#6cc8c5"/>
              </g>
            </g>
          </g>
        </g>
        <g id="Group_3248" data-name="Group 3248" transform="translate(0 91.082)">
          <g id="Group_3247" data-name="Group 3247">
            <g id="Group_3246" data-name="Group 3246">
              <g id="Group_3245" data-name="Group 3245">
                <g id="Group_3244" data-name="Group 3244">
                  <g id="Group_3243" data-name="Group 3243">
                    <g id="Group_3242" data-name="Group 3242">
                      <g id="Group_3241" data-name="Group 3241">
                        <g id="Group_3240" data-name="Group 3240">
                          <g id="Group_3239" data-name="Group 3239">
                            <g id="Group_3238" data-name="Group 3238" transform="translate(12.693 8.426)">
                              <g id="Group_3237" data-name="Group 3237">
                                <g id="Group_3232" data-name="Group 3232" transform="translate(0)">
                                  <path id="Path_1476" data-name="Path 1476" d="M48.777,364.954l34.811,12.957a26.49,26.49,0,0,0,9.241,1.664H128.7a26.489,26.489,0,0,0,14.179-4.114L187.8,347a7.884,7.884,0,0,0,1.283-10.331c-2.44-3.585-6.475-4.208-10.916-2.108l-43.734,19.256.052-7.1A12.7,12.7,0,0,0,123.63,335.4L97,332.335c-6.144-.869-9.213-2.928-14.569-6.061a47.734,47.734,0,0,0-24.1-6.532H48.777Z" transform="translate(-48.777 -319.742)" fill="#ffddce"/>
                                </g>
                                <path id="Path_1477" data-name="Path 1477" d="M81.474,371.007a27.85,27.85,0,0,0,9.714,1.749H128.9a27.845,27.845,0,0,0,11.591-2.529l26.372-16.711a8.144,8.144,0,0,0,2.493-11.585s-.8-1.376-1.628-2.776l-33.294,14.659.052-7.1A12.7,12.7,0,0,0,123.63,335.4L97,332.335c-6.144-.869-9.213-2.928-14.569-6.061a47.734,47.734,0,0,0-24.1-6.532H48.777v39.095Z" transform="translate(-48.777 -319.742)" fill="#ececec"/>
                                <path id="Path_1478" data-name="Path 1478" d="M189.085,366.8c-2.44-3.585-6.475-4.208-10.916-2.108l-12.029,5.3c.583.922,1.046,1.658,1.046,1.658a7.884,7.884,0,0,1-1.283,10.331l-26.174,16.585a26.487,26.487,0,0,1-11.025,2.406H92.829a26.489,26.489,0,0,1-9.241-1.664L48.777,386.348v8.74l34.811,12.957a26.49,26.49,0,0,0,9.241,1.664H128.7a26.489,26.489,0,0,0,14.179-4.114l44.92-28.464a7.884,7.884,0,0,0,1.283-10.331Z" transform="translate(-48.777 -349.876)" fill="#dcdcdc"/>
                                <g id="Group_3233" data-name="Group 3233" transform="translate(82.444 19.667)">
                                  <path id="Path_1479" data-name="Path 1479" d="M313.691,382.938v.171l.113-.05c-.037-.041-.075-.081-.112-.121Z" transform="translate(-313.69 -382.938)" fill="#f5dbcc"/>
                                </g>
                                <g id="Group_3236" data-name="Group 3236" transform="translate(56.061 29.259)">
                                  <g id="Group_3235" data-name="Group 3235">
                                    <g id="Group_3234" data-name="Group 3234">
                                      <path id="Path_1480" data-name="Path 1480" d="M258.512,418.568H231.318a2.4,2.4,0,0,1,0-4.809h27.229Z" transform="translate(-228.914 -413.759)" fill="#dcdcdc"/>
                                    </g>
                                  </g>
                                </g>
                              </g>
                            </g>
                            <path id="Path_1481" data-name="Path 1481" d="M28.174,353.24a4.573,4.573,0,0,1-4.573,4.573H12.563A4.573,4.573,0,0,1,7.99,353.24v-56a4.573,4.573,0,0,1,4.573-4.573H23.6a4.573,4.573,0,0,1,4.573,4.573Z" transform="translate(-7.99 -292.668)" fill="#4d777c"/>
                          </g>
                        </g>
                      </g>
                    </g>
                  </g>
                </g>
              </g>
            </g>
          </g>
        </g>
      </g>
      <path id="Path_1482" data-name="Path 1482" d="M258.438,179.381c-1.1-.389-2.114-.762-3.049-1.121v-15.33a9.88,9.88,0,0,1,4.676,2.054,2.4,2.4,0,0,0,3.247-3.547,14.888,14.888,0,0,0-7.924-3.363v-3.419a2.4,2.4,0,0,0-4.809,0v3.613a17.792,17.792,0,0,0-1.784.436,11.626,11.626,0,0,0-7.957,9.127,10.169,10.169,0,0,0,3.3,10.023,29.13,29.13,0,0,0,6.436,3.637v19.016c-2.783-.117-4.491-.641-7.478-2.594a2.4,2.4,0,1,0-2.632,4.024,17.609,17.609,0,0,0,10.11,3.376v3.817a2.4,2.4,0,0,0,4.809,0v-3.986a14.086,14.086,0,0,0,11.545-11.655c1.071-6.368-2.264-11.905-8.5-14.108Zm-11.327-5.311a5.42,5.42,0,0,1-1.546-5.349,6.878,6.878,0,0,1,4.618-5.413c.134-.04.265-.075.4-.11v12.988A20.261,20.261,0,0,1,247.111,174.07Zm15.08,18.621a9.366,9.366,0,0,1-6.8,7.538V183.394c.468.171.946.344,1.446.521A7.568,7.568,0,0,1,262.191,192.691Z" transform="translate(-159.379 -104.868)" fill="#ececec"/>
    </g>
  </g>
</svg>
