<svg xmlns="http://www.w3.org/2000/svg" width="159.201" height="159.481" viewBox="0 0 159.201 159.481">
  <g id="Group_3276" data-name="Group 3276" transform="translate(-65.7 -36.16)">
    <g id="notebook" transform="translate(22.229 36.16)">
      <path id="Path_1494" data-name="Path 1494" d="M182.417,0H82.946a8.42,8.42,0,0,0-8.41,8.41v142.66a8.42,8.42,0,0,0,8.41,8.41h99.471a14.859,14.859,0,0,0,14.842-14.842V14.842A14.859,14.859,0,0,0,182.417,0Z" transform="translate(-21.389)" fill="#4d777c"/>
      <g id="Group_3251" data-name="Group 3251" transform="translate(43.471 20.191)">
        <path id="Path_1495" data-name="Path 1495" d="M67.5,74.166H48.143a4.672,4.672,0,0,1,0-9.345H67.5a4.672,4.672,0,0,1,0,9.345Z" transform="translate(-43.471 -64.821)" fill="#6cc8c5"/>
        <path id="Path_1496" data-name="Path 1496" d="M67.5,162.255H48.143a4.672,4.672,0,1,1,0-9.345H67.5a4.672,4.672,0,0,1,0,9.345Z" transform="translate(-43.471 -125.472)" fill="#6cc8c5"/>
        <path id="Path_1497" data-name="Path 1497" d="M67.5,250.345H48.143a4.672,4.672,0,1,1,0-9.345H67.5a4.672,4.672,0,1,1,0,9.345Z" transform="translate(-43.471 -186.123)" fill="#6cc8c5"/>
        <path id="Path_1498" data-name="Path 1498" d="M67.5,338.435H48.143a4.672,4.672,0,0,1,0-9.345H67.5a4.672,4.672,0,0,1,0,9.345Z" transform="translate(-43.471 -246.774)" fill="#6cc8c5"/>
        <path id="Path_1499" data-name="Path 1499" d="M67.5,426.524H48.143a4.672,4.672,0,0,1,0-9.345H67.5a4.672,4.672,0,0,1,0,9.345Z" transform="translate(-43.471 -307.424)" fill="#6cc8c5"/>
      </g>
      <path id="Path_1500" data-name="Path 1500" d="M241.992,64.821H184.879a4.672,4.672,0,0,0-4.672,4.672V94.846a4.672,4.672,0,0,0,4.672,4.672h57.113a4.672,4.672,0,0,0,4.672-4.672V69.493A4.672,4.672,0,0,0,241.992,64.821Z" transform="translate(-94.145 -44.63)" fill="#ececec"/>
      <path id="Path_1501" data-name="Path 1501" d="M318.052,0H271.533V20.191l5.7,17.349-5.7,17.349V159.481h46.519a14.859,14.859,0,0,0,14.842-14.842V14.842A14.859,14.859,0,0,0,318.052,0Z" transform="translate(-157.024)" fill="#4d777c"/>
      <path id="Path_1502" data-name="Path 1502" d="M304.871,64.821H271.533v34.7h33.338a4.672,4.672,0,0,0,4.672-4.672V69.493A4.672,4.672,0,0,0,304.871,64.821Z" transform="translate(-157.024 -44.63)" fill="#e1ebf0"/>
      <path id="Path_1503" data-name="Path 1503" d="M318.969,417.179H296.681a4.672,4.672,0,0,0,0,9.345h22.288a4.672,4.672,0,0,0,0-9.345Z" transform="translate(-171.122 -287.234)" fill="#ececec"/>
      <g id="Group_3252" data-name="Group 3252" transform="translate(-872.229 -277.16)">
        <path id="Path_1504" data-name="Path 1504" d="M343.8,391.158a32.442,32.442,0,1,1,32.441-32.443A32.48,32.48,0,0,1,343.8,391.158Zm0,0" transform="translate(698.66 11.628)" fill="#6cc8c5"/>
        <path id="Icon_metro-dollar2" data-name="Icon metro-dollar2" d="M29.262,26.722A7.871,7.871,0,0,1,27.2,32.174,8.886,8.886,0,0,1,21.855,35v3.621a.637.637,0,0,1-.662.662H18.4a.671.671,0,0,1-.662-.662V35a13.042,13.042,0,0,1-2.638-.641,12.706,12.706,0,0,1-3.631-1.914,11.791,11.791,0,0,1-.962-.776q-.259-.248-.362-.372a.628.628,0,0,1-.041-.848l2.131-2.793a.644.644,0,0,1,.476-.248.513.513,0,0,1,.5.186l.041.041a10.8,10.8,0,0,0,5.028,2.586,7.227,7.227,0,0,0,1.531.166,5.017,5.017,0,0,0,2.948-.89,2.9,2.9,0,0,0,1.272-2.524,2.1,2.1,0,0,0-.31-1.1A3.877,3.877,0,0,0,23.024,25a5.679,5.679,0,0,0-1.21-.776q-.828-.424-1.366-.662t-1.655-.672q-.807-.331-1.272-.517t-1.272-.548q-.807-.362-1.293-.641t-1.169-.735a7.286,7.286,0,0,1-1.107-.879,12.9,12.9,0,0,1-.9-1.014,5.062,5.062,0,0,1-.735-1.2,8.3,8.3,0,0,1-.434-1.376,7.181,7.181,0,0,1-.176-1.614,7.075,7.075,0,0,1,2.028-5.007A9.467,9.467,0,0,1,17.738,6.59V2.866A.671.671,0,0,1,18.4,2.2h2.793a.637.637,0,0,1,.662.662V6.507a11.509,11.509,0,0,1,2.286.476,13.256,13.256,0,0,1,1.8.693,9.969,9.969,0,0,1,1.314.776q.621.434.807.6t.31.29a.6.6,0,0,1,.1.786L26.8,13.149a.564.564,0,0,1-.476.331.659.659,0,0,1-.559-.145q-.062-.062-.3-.248t-.807-.548a10.677,10.677,0,0,0-1.21-.662,9.241,9.241,0,0,0-1.541-.538,6.9,6.9,0,0,0-1.769-.238,5.377,5.377,0,0,0-3.207.89,2.781,2.781,0,0,0-1.066,3.29,2.329,2.329,0,0,0,.61.859,9.117,9.117,0,0,0,.817.683,7.288,7.288,0,0,0,1.159.641q.776.362,1.252.559t1.448.569q1.1.414,1.676.652t1.573.724a12.5,12.5,0,0,1,1.562.879,13.21,13.21,0,0,1,1.283,1.035,5.357,5.357,0,0,1,1.1,1.314,7.5,7.5,0,0,1,.652,1.583,6.826,6.826,0,0,1,.269,1.945Z" transform="translate(1022.835 350.06)" fill="#ececec"/>
      </g>
    </g>
  </g>
</svg>
