<svg xmlns="http://www.w3.org/2000/svg" width="160" height="160" viewBox="0 0 160 160">
  <g id="Group_3274" data-name="Group 3274" transform="translate(-65 -35.36)">
    <rect id="Rectangle_600" data-name="Rectangle 600" width="160" height="160" transform="translate(65 35.36)" fill="#fff" opacity="0"/>
    <g id="team-management" transform="translate(60.142 -45.512)">
      <path id="Path_1552" data-name="Path 1552" d="M37.239,22.608A14.625,14.625,0,1,0,51.86,37.228,14.624,14.624,0,0,0,37.239,22.608ZM0,32.519a1.313,1.313,0,0,1,1.441-1.44h4.2a2.043,2.043,0,0,0,1.763-1.4,31.186,31.186,0,0,1,3.4-8.2,1.776,1.776,0,0,0-.258-2.236L7.579,16.265a1.512,1.512,0,0,1,0-2.032l6.654-6.654a1.381,1.381,0,0,1,2.043,0l2.967,2.967a1.861,1.861,0,0,0,2.236.258,35.683,35.683,0,0,1,8.2-3.408,1.853,1.853,0,0,0,1.409-1.752v-4.2A1.273,1.273,0,0,1,32.519,0h9.428a1.273,1.273,0,0,1,1.43,1.44v4.2A1.853,1.853,0,0,0,44.785,7.4a35.679,35.679,0,0,1,8.2,3.408,1.861,1.861,0,0,0,2.236-.258l2.967-2.967a1.381,1.381,0,0,1,2.043,0l6.655,6.654a1.512,1.512,0,0,1,0,2.032l-2.967,2.978a1.776,1.776,0,0,0-.258,2.236,31.185,31.185,0,0,1,3.4,8.2,2.043,2.043,0,0,0,1.763,1.4h4.2a1.313,1.313,0,0,1,1.44,1.44v9.417a1.308,1.308,0,0,1-1.44,1.44h-4.2a2.07,2.07,0,0,0-1.763,1.408,31.492,31.492,0,0,1-3.4,8.2,1.778,1.778,0,0,0,.258,2.236l2.967,2.967a1.526,1.526,0,0,1,0,2.043l-6.655,6.654a1.389,1.389,0,0,1-2.043,0l-2.967-2.978a1.86,1.86,0,0,0-2.236-.247,35.6,35.6,0,0,1-8.2,3.4,1.876,1.876,0,0,0-1.408,1.763v4.2a1.277,1.277,0,0,1-1.43,1.44H32.519a1.277,1.277,0,0,1-1.43-1.44v-4.2a1.876,1.876,0,0,0-1.409-1.763,35.64,35.64,0,0,1-8.2-3.4,1.86,1.86,0,0,0-2.236.247l-2.967,2.978a1.39,1.39,0,0,1-2.043,0L7.579,60.233a1.526,1.526,0,0,1,0-2.043l2.967-2.967a1.777,1.777,0,0,0,.258-2.236,31.5,31.5,0,0,1-3.4-8.2,2.069,2.069,0,0,0-1.763-1.408h-4.2A1.308,1.308,0,0,1,0,41.936Z" transform="translate(4.858 152.853)" fill="#396267" fill-rule="evenodd"/>
      <path id="Path_1555" data-name="Path 1555" d="M162.22,214.4a17.457,17.457,0,1,0,17.462,17.453A17.449,17.449,0,0,0,162.22,214.4ZM117.781,226.24a1.554,1.554,0,0,1,1.713-1.723h5.022a2.432,2.432,0,0,0,2.1-1.677,37.9,37.9,0,0,1,4.056-9.788,2.116,2.116,0,0,0-.3-2.67l-3.545-3.545a1.81,1.81,0,0,1,0-2.434l7.947-7.947a1.647,1.647,0,0,1,2.433,0l3.545,3.554a2.218,2.218,0,0,0,2.671.292,42.612,42.612,0,0,1,9.788-4.056,2.206,2.206,0,0,0,1.677-2.1v-5.022a1.524,1.524,0,0,1,1.713-1.713h11.247a1.52,1.52,0,0,1,1.714,1.713v5.022a2.206,2.206,0,0,0,1.677,2.1,42.462,42.462,0,0,1,9.788,4.056,2.218,2.218,0,0,0,2.67-.292l3.554-3.554a1.637,1.637,0,0,1,2.424,0l7.947,7.947a1.8,1.8,0,0,1,0,2.434l-3.545,3.545a2.128,2.128,0,0,0-.3,2.67,37.275,37.275,0,0,1,4.056,9.788,2.455,2.455,0,0,0,2.105,1.677h5.013a1.565,1.565,0,0,1,1.723,1.723v11.237a1.569,1.569,0,0,1-1.723,1.723h-5.013a2.46,2.46,0,0,0-2.105,1.668,37.025,37.025,0,0,1-4.056,9.788,2.126,2.126,0,0,0,.3,2.671l3.545,3.554a1.789,1.789,0,0,1,0,2.424l-7.947,7.956a1.644,1.644,0,0,1-2.424,0l-3.554-3.554a2.219,2.219,0,0,0-2.67-.3,42.044,42.044,0,0,1-9.788,4.056,2.225,2.225,0,0,0-1.677,2.105v5.013a1.531,1.531,0,0,1-1.714,1.722H156.6a1.534,1.534,0,0,1-1.713-1.722v-5.013a2.225,2.225,0,0,0-1.677-2.105,42.238,42.238,0,0,1-9.788-4.056,2.219,2.219,0,0,0-2.671.3l-3.545,3.554a1.655,1.655,0,0,1-2.433,0l-7.947-7.956a1.8,1.8,0,0,1,0-2.424l3.545-3.554a2.115,2.115,0,0,0,.3-2.671,37.644,37.644,0,0,1-4.056-9.788,2.437,2.437,0,0,0-2.1-1.668h-5.022a1.558,1.558,0,0,1-1.713-1.723Z" transform="translate(-79.669 -92.137)" fill="#4d777c" fill-rule="evenodd"/>
      <path id="Path_1554" data-name="Path 1554" d="M348.461,247.382a12.882,12.882,0,1,0,12.878,12.877A12.879,12.879,0,0,0,348.461,247.382Zm-32.79,8.73a1.145,1.145,0,0,1,1.259-1.269h3.7a1.8,1.8,0,0,0,1.553-1.231,27.467,27.467,0,0,1,2.992-7.224,1.564,1.564,0,0,0-.218-1.969l-2.623-2.623a1.332,1.332,0,0,1,0-1.789l5.871-5.861a1.206,1.206,0,0,1,1.79,0l2.623,2.613a1.635,1.635,0,0,0,1.969.227,31.179,31.179,0,0,1,7.215-3,1.622,1.622,0,0,0,1.241-1.544v-3.7a1.131,1.131,0,0,1,1.269-1.269h8.295a1.131,1.131,0,0,1,1.269,1.269v3.7a1.624,1.624,0,0,0,1.231,1.544,31.252,31.252,0,0,1,7.224,3,1.637,1.637,0,0,0,1.969-.227l2.623-2.613a1.206,1.206,0,0,1,1.79,0l5.87,5.861a1.332,1.332,0,0,1,0,1.789l-2.623,2.623a1.563,1.563,0,0,0-.218,1.969,27.47,27.47,0,0,1,2.992,7.224,1.777,1.777,0,0,0,1.553,1.231h3.693a1.152,1.152,0,0,1,1.269,1.269v8.295a1.148,1.148,0,0,1-1.269,1.269h-3.693a1.8,1.8,0,0,0-1.553,1.24,27.752,27.752,0,0,1-2.992,7.225,1.565,1.565,0,0,0,.218,1.969l2.623,2.613a1.344,1.344,0,0,1,0,1.8l-5.871,5.861a1.213,1.213,0,0,1-1.79,0L364.3,283.76a1.636,1.636,0,0,0-1.969-.218,31.193,31.193,0,0,1-7.224,2.992,1.644,1.644,0,0,0-1.231,1.553v3.7a1.135,1.135,0,0,1-1.269,1.269h-8.294a1.136,1.136,0,0,1-1.269-1.269v-3.7a1.641,1.641,0,0,0-1.241-1.553,31.16,31.16,0,0,1-7.215-2.992,1.634,1.634,0,0,0-1.969.218L330,286.383a1.213,1.213,0,0,1-1.79,0l-5.871-5.861a1.344,1.344,0,0,1,0-1.8l2.623-2.613a1.565,1.565,0,0,0,.218-1.969,27.746,27.746,0,0,1-2.992-7.225,1.822,1.822,0,0,0-1.553-1.24h-3.7a1.141,1.141,0,0,1-1.259-1.269Z" transform="translate(-216.392 -92.331)" fill="#6cc8c5" fill-rule="evenodd"/>
    </g>
  </g>
</svg>
