<svg xmlns="http://www.w3.org/2000/svg" width="160" height="160.175" viewBox="0 0 160 160.175">
  <g id="Group_3273" data-name="Group 3273" transform="translate(-66 -35.36)">
    <rect id="Rectangle_600" data-name="Rectangle 600" width="160" height="160" transform="translate(66 35.36)" fill="#fff" opacity="0"/>
    <g id="flat" transform="translate(74 36)">
      <path id="Path_1454" data-name="Path 1454" d="M274.952,223.24H228.406V102.2h50.91V203.343l-4.363,6.649Zm0,0" transform="translate(-157.237 -70.355)" fill="#396267"/>
      <path id="Path_1455" data-name="Path 1455" d="M221.765,42.711h-8.049l-6.649,53.16,6.651,84.844,8.048-1.13Zm0,0" transform="translate(-142.546 -29.403)" fill="#4d777c"/>
      <path id="Path_1456" data-name="Path 1456" d="M7.59,0V13.308H0V150.183l42.91,5.094,28.261-3.964V0Zm0,0" fill="#4d777c"/>
      <g id="Group_3223" data-name="Group 3223" transform="translate(23.273 31.949)">
        <path id="Path_1457" data-name="Path 1457" d="M74.691,102.535h9.35v13.3h-9.35Zm0,0" transform="translate(-74.691 -102.535)" fill="#ececec"/>
        <path id="Path_1458" data-name="Path 1458" d="M149.383,102.535h9.35v13.3h-9.35Zm0,0" transform="translate(-126.11 -102.535)" fill="#ececec"/>
        <path id="Path_1459" data-name="Path 1459" d="M74.691,187.9h9.35v13.3h-9.35Zm0,0" transform="translate(-74.691 -161.298)" fill="#ececec"/>
        <path id="Path_1460" data-name="Path 1460" d="M149.383,187.9h9.35v13.3h-9.35Zm0,0" transform="translate(-126.11 -161.298)" fill="#ececec"/>
        <path id="Path_1461" data-name="Path 1461" d="M74.691,273.258h9.35v13.3h-9.35Zm0,0" transform="translate(-74.691 -220.062)" fill="#ececec"/>
        <path id="Path_1462" data-name="Path 1462" d="M149.383,273.258h9.35v13.3h-9.35Zm0,0" transform="translate(-126.11 -220.062)" fill="#ececec"/>
        <path id="Path_1463" data-name="Path 1463" d="M74.691,358.617h9.35v13.3h-9.35Zm0,0" transform="translate(-74.691 -278.824)" fill="#ececec"/>
        <path id="Path_1464" data-name="Path 1464" d="M149.383,358.617h9.35v13.3h-9.35Zm0,0" transform="translate(-126.11 -278.824)" fill="#ececec"/>
      </g>
      <path id="Path_1465" data-name="Path 1465" d="M292.762,187.9h9.35v13.3h-9.35Zm0,0" transform="translate(-200.54 -129.349)" fill="#ececec"/>
      <path id="Path_1466" data-name="Path 1466" d="M292.762,273.258h9.35v13.3h-9.35Zm0,0" transform="translate(-200.54 -188.113)" fill="#ececec"/>
      <path id="Path_1469" data-name="Path 1469" d="M287.558,481.988h-66.5l-3.324,6.078,3.324,3.273h66.5Zm0,0" transform="translate(-149.893 -331.805)" fill="#dcdcdc"/>
      <path id="Path_1470" data-name="Path 1470" d="M0,481.988H71.169v9.351H0Zm0,0" transform="translate(0 -331.805)" fill="#ececec"/>
      <path id="Path_1468" data-name="Path 1468" d="M339.173,381.907a27.817,27.817,0,1,1,27.816-27.818A27.85,27.85,0,0,1,339.173,381.907Zm0,0" transform="translate(-222.34 -222.372)" fill="#6cc8c5"/>
      <path id="Icon_metro-dollar2" data-name="Icon metro-dollar2" d="M26.51,23.226A6.749,6.749,0,0,1,24.745,27.9a7.619,7.619,0,0,1-4.586,2.422v3.1a.547.547,0,0,1-.568.568H17.2a.576.576,0,0,1-.568-.568v-3.1a11.182,11.182,0,0,1-2.262-.55,10.894,10.894,0,0,1-3.113-1.641,10.111,10.111,0,0,1-.825-.665q-.222-.213-.31-.319a.539.539,0,0,1-.036-.727l1.827-2.395a.552.552,0,0,1,.408-.213.44.44,0,0,1,.426.16l.035.035a9.264,9.264,0,0,0,4.311,2.218,6.2,6.2,0,0,0,1.313.142A4.3,4.3,0,0,0,20.93,25.6a2.485,2.485,0,0,0,1.091-2.164,1.8,1.8,0,0,0-.266-.94,3.324,3.324,0,0,0-.594-.745,4.869,4.869,0,0,0-1.038-.665q-.71-.364-1.171-.568t-1.419-.577q-.692-.284-1.091-.444t-1.091-.47q-.692-.31-1.109-.55t-1-.63a6.247,6.247,0,0,1-.949-.754,11.057,11.057,0,0,1-.772-.869,4.34,4.34,0,0,1-.63-1.029,7.115,7.115,0,0,1-.373-1.18,6.157,6.157,0,0,1-.151-1.384A6.066,6.066,0,0,1,12.1,8.342a8.118,8.118,0,0,1,4.524-2.377V2.771A.576.576,0,0,1,17.2,2.2h2.395a.547.547,0,0,1,.568.568V5.893a9.868,9.868,0,0,1,1.96.408,11.366,11.366,0,0,1,1.543.594,8.548,8.548,0,0,1,1.127.665q.532.373.692.514t.266.248A.513.513,0,0,1,25.836,9L24.4,11.588a.483.483,0,0,1-.408.284.565.565,0,0,1-.479-.124q-.053-.053-.257-.213t-.692-.47a9.155,9.155,0,0,0-1.038-.568,7.923,7.923,0,0,0-1.322-.461,5.919,5.919,0,0,0-1.517-.2,4.611,4.611,0,0,0-2.75.763,2.385,2.385,0,0,0-.914,2.821,2,2,0,0,0,.523.736,7.818,7.818,0,0,0,.7.585,6.249,6.249,0,0,0,.993.55q.665.31,1.073.479t1.242.488q.94.355,1.437.559t1.348.621a10.717,10.717,0,0,1,1.339.754,11.326,11.326,0,0,1,1.1.887,4.593,4.593,0,0,1,.94,1.127,6.429,6.429,0,0,1,.559,1.357,5.853,5.853,0,0,1,.231,1.668Z" transform="translate(98.588 114.012)" fill="#ececec"/>
    </g>
  </g>
</svg>
