<svg xmlns="http://www.w3.org/2000/svg" width="18" height="18" viewBox="0 0 18 18">
  <g id="Group_897" data-name="Group 897" transform="translate(-273.329 -21.277)">
    <rect id="Rectangle_396" data-name="Rectangle 396" width="18" height="18" transform="translate(273.329 21.277)" fill="#ff6f5e" opacity="0"/>
    <path id="Icon_metro-attachment" data-name="Icon metro-attachment" d="M14.676,7.677,13.535,6.536l-5.71,5.708a2.422,2.422,0,1,0,3.426,3.425L18.1,8.819a4.037,4.037,0,0,0-5.709-5.708L5.2,10.3l-.015.015a5.63,5.63,0,0,0,7.963,7.961l.014-.015h0l4.91-4.909L16.93,12.214l-4.91,4.909L12,17.138A4.015,4.015,0,0,1,6.326,11.46l.016-.015h0l7.194-7.192a2.422,2.422,0,0,1,3.426,3.425l-6.852,6.85a.807.807,0,0,1-1.142-1.141l5.71-5.709Z" transform="translate(270.794 19.349)" fill="#a0a0a0" opacity="0.6"/>
  </g>
</svg>
