<svg xmlns="http://www.w3.org/2000/svg" width="194" height="194" viewBox="0 0 194 194">
  <g id="Group_848" data-name="Group 848" transform="translate(-97 -152)">
    <circle id="Ellipse_18" data-name="Ellipse 18" cx="97" cy="97" r="97" transform="translate(97 152)" fill="#efefef"/>
    <path id="Icon_awesome-building" data-name="Icon awesome-building" d="M90.876,100.048H86.708V5a5,5,0,0,0-5-5H11.672a5,5,0,0,0-5,5v95.045H2.5a2.5,2.5,0,0,0-2.5,2.5v4.169H93.378v-4.169A2.5,2.5,0,0,0,90.876,100.048Zm-64.2-84.207a2.5,2.5,0,0,1,2.5-2.5h8.337a2.5,2.5,0,0,1,2.5,2.5v8.337a2.5,2.5,0,0,1-2.5,2.5H29.181a2.5,2.5,0,0,1-2.5-2.5Zm0,20.01a2.5,2.5,0,0,1,2.5-2.5h8.337a2.5,2.5,0,0,1,2.5,2.5v8.337a2.5,2.5,0,0,1-2.5,2.5H29.181a2.5,2.5,0,0,1-2.5-2.5ZM37.518,66.7H29.181a2.5,2.5,0,0,1-2.5-2.5V55.86a2.5,2.5,0,0,1,2.5-2.5h8.337a2.5,2.5,0,0,1,2.5,2.5V64.2A2.5,2.5,0,0,1,37.518,66.7Zm15.841,33.349H40.019V82.539a2.5,2.5,0,0,1,2.5-2.5h8.337a2.5,2.5,0,0,1,2.5,2.5ZM66.7,64.2a2.5,2.5,0,0,1-2.5,2.5H55.86a2.5,2.5,0,0,1-2.5-2.5V55.86a2.5,2.5,0,0,1,2.5-2.5H64.2a2.5,2.5,0,0,1,2.5,2.5Zm0-20.01a2.5,2.5,0,0,1-2.5,2.5H55.86a2.5,2.5,0,0,1-2.5-2.5V35.85a2.5,2.5,0,0,1,2.5-2.5H64.2a2.5,2.5,0,0,1,2.5,2.5Zm0-20.01a2.5,2.5,0,0,1-2.5,2.5H55.86a2.5,2.5,0,0,1-2.5-2.5V15.841a2.5,2.5,0,0,1,2.5-2.5H64.2a2.5,2.5,0,0,1,2.5,2.5Z" transform="translate(147 196)" fill="#274d8d"/>
  </g>
</svg>
