<svg xmlns="http://www.w3.org/2000/svg" width="40" height="40" viewBox="0 0 40 40">
  <g id="Group_896" data-name="Group 896" transform="translate(-466.046 -33.01)">
    <rect id="Rectangle_395" data-name="Rectangle 395" width="40" height="40" transform="translate(466.046 33.01)" fill="#ff6f5e" opacity="0"/>
    <path id="Icon_material-date-range" data-name="Icon material-date-range" d="M16.5,21h-4v4h4Zm8,0h-4v4h4Zm8,0h-4v4h4Zm4-14h-2V3h-4V7h-16V3h-4V7h-2a3.982,3.982,0,0,0-3.98,4L4.5,39a4,4,0,0,0,4,4h28a4.012,4.012,0,0,0,4-4V11A4.012,4.012,0,0,0,36.5,7Zm0,32H8.5V17h28Z" transform="translate(463.347 30.01)" fill="#a0a0a0" opacity="0.6"/>
  </g>
</svg>
