<?xml version="1.0"?>
<svg xmlns="http://www.w3.org/2000/svg" viewBox="0 0 64 64">
    <path d="M 35.134766 2.3867188 C 34.917172 2.3772656 34.697766 2.3904375 34.478516 2.4296875 L 5.3046875 7.578125 C 3.3896875 7.916125 2 9.5725781 2 11.517578 L 2 50.484375 C 2 52.428375 3.3896875 54.084875 5.3046875 54.421875 L 34.478516 59.570312 C 34.652516 59.601312 34.827953 59.615234 35.001953 59.615234 C 35.701953 59.615234 36.382734 59.372062 36.927734 58.914062 C 37.608734 58.343063 38 57.504234 38 56.615234 L 38 52 L 57 52 C 58.654 52 60 50.654 60 49 L 60 13 C 60 11.346 58.654 10 57 10 L 38 10 L 38 5.3847656 C 38 4.4957656 37.608734 3.6569375 36.927734 3.0859375 C 36.416984 2.6569375 35.787547 2.4150781 35.134766 2.3867188 z M 35.103516 4.3886719 C 35.358516 4.4146406 35.542828 4.5343906 35.642578 4.6191406 C 35.776578 4.7291406 36 4.9797656 36 5.3847656 L 36 56.615234 C 36 57.020234 35.775578 57.270813 35.642578 57.382812 C 35.509578 57.494813 35.227172 57.670563 34.826172 57.601562 L 5.6523438 52.453125 C 4.6953438 52.284125 4 51.455422 4 50.482422 L 4 11.517578 C 4 10.544578 4.6953437 9.715875 5.6523438 9.546875 L 34.824219 4.3984375 C 34.924469 4.3816875 35.018516 4.3800156 35.103516 4.3886719 z M 38 12 L 57 12 C 57.551 12 58 12.448 58 13 L 58 49 C 58 49.552 57.551 50 57 50 L 38 50 L 38 44 L 41 44 C 41.552 44 42 43.553 42 43 C 42 42.447 41.552 42 41 42 L 38 42 L 38 38 L 41 38 C 41.552 38 42 37.553 42 37 C 42 36.447 41.552 36 41 36 L 38 36 L 38 32 L 41 32 C 41.552 32 42 31.553 42 31 C 42 30.447 41.552 30 41 30 L 38 30 L 38 26 L 41 26 C 41.552 26 42 25.553 42 25 C 42 24.447 41.552 24 41 24 L 38 24 L 38 20 L 41 20 C 41.552 20 42 19.553 42 19 C 42 18.447 41.552 18 41 18 L 38 18 L 38 12 z M 45 18 C 44.448 18 44 18.447 44 19 C 44 19.553 44.448 20 45 20 L 51 20 C 51.552 20 52 19.553 52 19 C 52 18.447 51.552 18 51 18 L 45 18 z M 12.824219 20.015625 C 12.696422 20.038422 12.570578 20.084906 12.455078 20.160156 C 11.992078 20.462156 11.860109 21.081922 12.162109 21.544922 L 18.306641 31 L 12.160156 40.455078 C 11.859156 40.918078 11.991125 41.537844 12.453125 41.839844 C 12.623125 41.948844 12.811047 42 12.998047 42 C 13.325047 42 13.646891 41.839922 13.837891 41.544922 L 19.5 32.835938 L 25.162109 41.544922 C 25.353109 41.839922 25.674953 42 26.001953 42 C 26.188953 42 26.376922 41.948844 26.544922 41.839844 C 27.007922 41.537844 27.139891 40.918078 26.837891 40.455078 L 20.693359 31 L 26.839844 21.544922 C 27.140844 21.081922 27.007922 20.462156 26.544922 20.160156 C 26.081922 19.859156 25.462109 19.991078 25.162109 20.455078 L 19.5 29.164062 L 13.837891 20.455078 C 13.612141 20.107078 13.207609 19.947234 12.824219 20.015625 z M 45 24 C 44.448 24 44 24.447 44 25 C 44 25.553 44.448 26 45 26 L 51 26 C 51.552 26 52 25.553 52 25 C 52 24.447 51.552 24 51 24 L 45 24 z M 45 30 C 44.448 30 44 30.447 44 31 C 44 31.553 44.448 32 45 32 L 51 32 C 51.552 32 52 31.553 52 31 C 52 30.447 51.552 30 51 30 L 45 30 z M 45 36 C 44.448 36 44 36.447 44 37 C 44 37.553 44.448 38 45 38 L 51 38 C 51.552 38 52 37.553 52 37 C 52 36.447 51.552 36 51 36 L 45 36 z M 45 42 C 44.448 42 44 42.447 44 43 C 44 43.553 44.448 44 45 44 L 51 44 C 51.552 44 52 43.553 52 43 C 52 42.447 51.552 42 51 42 L 45 42 z"/>
</svg>
