<svg xmlns="http://www.w3.org/2000/svg" width="53.1" height="53.1" viewBox="0 0 53.1 53.1">
  <g id="Group_899" data-name="Group 899" transform="translate(-72.046 -111.81)">
    <rect id="Rectangle_398" data-name="Rectangle 398" width="53.1" height="53.1" transform="translate(72.046 111.81)" fill="#4D777C" opacity="0"/>
    <g id="Icon_awesome-file-alt" data-name="Icon awesome-file-alt" transform="translate(79.046 111.81)">
      <path id="Icon_awesome-file-alt-2" data-name="Icon awesome-file-alt" d="M23.217,14.1V0H2.487A2.482,2.482,0,0,0,0,2.487V50.579a2.482,2.482,0,0,0,2.487,2.487H37.312A2.482,2.482,0,0,0,39.8,50.579v-34H25.7A2.5,2.5,0,0,1,23.217,14.1Zm6.633,24.46A1.247,1.247,0,0,1,28.606,39.8H11.194A1.247,1.247,0,0,1,9.95,38.556v-.829a1.247,1.247,0,0,1,1.244-1.244H28.606a1.247,1.247,0,0,1,1.244,1.244Zm0-6.633a1.247,1.247,0,0,1-1.244,1.244H11.194A1.247,1.247,0,0,1,9.95,31.923v-.829a1.247,1.247,0,0,1,1.244-1.244H28.606a1.247,1.247,0,0,1,1.244,1.244Zm0-7.462v.829a1.247,1.247,0,0,1-1.244,1.244H11.194A1.247,1.247,0,0,1,9.95,25.289V24.46a1.247,1.247,0,0,1,1.244-1.244H28.606A1.247,1.247,0,0,1,29.85,24.46ZM39.8,12.634v.632H26.533V0h.632a2.486,2.486,0,0,1,1.762.726L39.074,10.883A2.48,2.48,0,0,1,39.8,12.634Z" fill="#4D777C"/>
    </g>
  </g>
</svg>
