<svg xmlns="http://www.w3.org/2000/svg" width="105.435" height="96.267" viewBox="0 0 105.435 96.267">
  <path id="Icon_material-add-a-photo" data-name="Icon material-add-a-photo" d="M13.752,15.252V1.5h9.168V15.252H36.673v9.168H22.921V38.173H13.752V24.421H0V15.252ZM27.5,42.757V29H41.257V15.252H73.346l8.389,9.168H96.267a9.2,9.2,0,0,1,9.168,9.168V88.6a9.2,9.2,0,0,1-9.168,9.168H22.921A9.2,9.2,0,0,1,13.752,88.6V42.757ZM59.594,84.014A22.921,22.921,0,1,0,36.673,61.094,22.929,22.929,0,0,0,59.594,84.014ZM44.924,61.094A14.669,14.669,0,1,0,59.594,46.424,14.653,14.653,0,0,0,44.924,61.094Z" transform="translate(0 -1.5)" fill="#506486"/>
</svg>
