<svg xmlns="http://www.w3.org/2000/svg" xmlns:xlink="http://www.w3.org/1999/xlink" width="309" height="309" viewBox="0 0 309 309">
  <defs>
    <filter id="Rectangle_498" x="0" y="0" width="309" height="309" filterUnits="userSpaceOnUse">
      <feOffset dy="2" input="SourceAlpha"/>
      <feGaussianBlur stdDeviation="3" result="blur"/>
      <feFlood flood-opacity="0.161"/>
      <feComposite operator="in" in2="blur"/>
      <feComposite in="SourceGraphic"/>
    </filter>
  </defs>
  <g id="Group_3073" data-name="Group 3073" transform="translate(-333 -540)">
    <g transform="matrix(1, 0, 0, 1, 333, 540)" filter="url(#Rectangle_498)">
      <rect id="Rectangle_498-2" data-name="Rectangle 498" width="291" height="291" transform="translate(9 7)" fill="#fff" opacity="0"/>
    </g>
    <g id="noun_building_price_3651040" data-name="noun_building price_3651040" transform="translate(347.852 545.948)">
      <path id="Path_1137" data-name="Path 1137" d="M54.017,186.939H33.571a5.952,5.952,0,0,0-5.945,5.945v20.445a5.952,5.952,0,0,0,5.945,5.945H54.017a5.952,5.952,0,0,0,5.945-5.945V192.884A5.952,5.952,0,0,0,54.017,186.939Zm-2.973,23.417h-14.5v-14.5h14.5Zm165.3-171.334a4.459,4.459,0,0,0,5.591-6.947c-3.857-3.107-9.338-5.06-15.449-5.572V23.71a4.459,4.459,0,1,0-8.918,0v3.113c-8.875,1.488-15.4,6.4-16.291,12.979a12.707,12.707,0,0,0,3.036,9.7c2.987,3.67,7.761,6.354,13.254,7.609V70.663c-3.99-.445-7.554-1.687-9.861-3.543a4.458,4.458,0,0,0-5.591,6.947c3.858,3.108,9.34,5.061,15.452,5.572v2.794a4.459,4.459,0,0,0,8.918,0V79.316c8.873-1.492,15.4-6.4,16.288-12.977a12.766,12.766,0,0,0-2.932-9.809c-2.912-3.581-7.677-6.075-13.356-7.118V35.479C210.475,35.925,214.038,37.167,216.344,39.023Zm-18.776,8.853a13.989,13.989,0,0,1-6.337-4A4.192,4.192,0,0,1,190.114,41c.244-1.8,3.062-3.94,7.455-5.02v11.9Zm15.356,14.281a3.872,3.872,0,0,1,1.013,2.988c-.244,1.8-3.06,3.946-7.452,5.026V58.529A12.311,12.311,0,0,1,212.924,62.157Zm-82.762,81.605H109.718a5.951,5.951,0,0,0-5.945,5.945v20.445a5.952,5.952,0,0,0,5.945,5.945h20.445a5.951,5.951,0,0,0,5.944-5.945V149.707A5.95,5.95,0,0,0,130.162,143.762ZM127.19,167.18h-14.5v-14.5h14.5ZM92.09,57.408H71.644A5.951,5.951,0,0,0,65.7,63.353V83.8a5.951,5.951,0,0,0,5.945,5.945H92.09A5.951,5.951,0,0,0,98.035,83.8V63.353A5.951,5.951,0,0,0,92.09,57.408ZM89.117,80.827h-14.5v-14.5h14.5Zm41.045-23.419H109.718a5.951,5.951,0,0,0-5.945,5.945V83.8a5.951,5.951,0,0,0,5.945,5.945h20.445a5.95,5.95,0,0,0,5.944-5.945V63.353A5.95,5.95,0,0,0,130.162,57.408ZM127.19,80.827h-14.5v-14.5h14.5Zm2.973,19.758H109.718a5.951,5.951,0,0,0-5.945,5.945v20.445a5.951,5.951,0,0,0,5.945,5.945h20.445a5.95,5.95,0,0,0,5.944-5.945V106.53A5.95,5.95,0,0,0,130.162,100.585ZM127.19,124h-14.5V109.5h14.5ZM54.017,230.113H33.571a5.952,5.952,0,0,0-5.945,5.945v20.448a5.952,5.952,0,0,0,5.945,5.945H54.017a5.952,5.952,0,0,0,5.945-5.945V236.058A5.952,5.952,0,0,0,54.017,230.113Zm-2.973,23.42h-14.5v-14.5h14.5ZM202.027,1.052a52.075,52.075,0,0,0-49.236,35.366H16.169a7.44,7.44,0,0,0-7.431,7.431V284.62a7.439,7.439,0,0,0,7.431,7.431H185.64a7.438,7.438,0,0,0,7.431-7.431V104.263A52,52,0,1,0,202.027,1.052ZM150.763,66.325h1.022a51.694,51.694,0,0,0,6.324,14.5h-7.346Zm-28.93,216.809H79.975v-44.1h41.858Zm62.321,0h-53.4V234.572a4.459,4.459,0,0,0-4.459-4.459H75.516a4.459,4.459,0,0,0-4.459,4.459v48.562h-53.4V45.335H150.648a51.917,51.917,0,0,0-.64,7.736c0,1.464.1,2.9.22,4.337H147.79a5.952,5.952,0,0,0-5.945,5.945V83.8a5.952,5.952,0,0,0,5.945,5.945h17.387a52.119,52.119,0,0,0,18.977,12.115V283.134ZM202.027,96.173a43.1,43.1,0,1,1,43.1-43.1A43.151,43.151,0,0,1,202.027,96.173Zm-148.01,4.412H33.571a5.951,5.951,0,0,0-5.945,5.945v20.445a5.951,5.951,0,0,0,5.945,5.945H54.017a5.951,5.951,0,0,0,5.945-5.945V106.53A5.951,5.951,0,0,0,54.017,100.585ZM51.045,124h-14.5V109.5h14.5Zm2.973,19.76H33.571a5.951,5.951,0,0,0-5.945,5.945v20.445a5.952,5.952,0,0,0,5.945,5.945H54.017a5.952,5.952,0,0,0,5.945-5.945V149.707A5.951,5.951,0,0,0,54.017,143.762ZM51.045,167.18h-14.5v-14.5h14.5Zm79.117,19.76H109.718a5.952,5.952,0,0,0-5.945,5.945v20.445a5.952,5.952,0,0,0,5.945,5.945h20.445a5.951,5.951,0,0,0,5.944-5.945V192.884A5.951,5.951,0,0,0,130.162,186.939Zm-2.973,23.417h-14.5v-14.5h14.5ZM92.09,100.585H71.644A5.951,5.951,0,0,0,65.7,106.53v20.445a5.951,5.951,0,0,0,5.945,5.945H92.09a5.951,5.951,0,0,0,5.945-5.945V106.53A5.951,5.951,0,0,0,92.09,100.585ZM89.117,124h-14.5V109.5h14.5Zm2.973,19.76H71.644a5.951,5.951,0,0,0-5.945,5.945v20.445a5.952,5.952,0,0,0,5.945,5.945H92.09a5.952,5.952,0,0,0,5.945-5.945V149.707A5.951,5.951,0,0,0,92.09,143.762ZM89.117,167.18h-14.5v-14.5h14.5Zm79.117,19.76H147.79a5.953,5.953,0,0,0-5.945,5.945v20.445a5.953,5.953,0,0,0,5.945,5.945h20.445a5.953,5.953,0,0,0,5.945-5.945V192.884A5.953,5.953,0,0,0,168.235,186.939Zm-2.973,23.417h-14.5v-14.5h14.5Zm2.973,19.757H147.79a5.953,5.953,0,0,0-5.945,5.945v20.448a5.953,5.953,0,0,0,5.945,5.945h20.445a5.953,5.953,0,0,0,5.945-5.945V236.058A5.953,5.953,0,0,0,168.235,230.113Zm-2.973,23.42h-14.5v-14.5h14.5Zm-23.417-147v20.445a5.952,5.952,0,0,0,5.945,5.945h20.445a5.952,5.952,0,0,0,5.945-5.945V106.53a5.952,5.952,0,0,0-5.945-5.945H147.79A5.952,5.952,0,0,0,141.845,106.53Zm8.918,2.973h14.5V124h-14.5Zm17.472,34.26H147.79a5.952,5.952,0,0,0-5.945,5.945v20.445a5.953,5.953,0,0,0,5.945,5.945h20.445a5.953,5.953,0,0,0,5.945-5.945V149.707A5.952,5.952,0,0,0,168.235,143.762Zm-2.973,23.418h-14.5v-14.5h14.5ZM54.017,57.408H33.571a5.951,5.951,0,0,0-5.945,5.945V83.8a5.951,5.951,0,0,0,5.945,5.945H54.017A5.951,5.951,0,0,0,59.963,83.8V63.353A5.951,5.951,0,0,0,54.017,57.408ZM51.045,80.827h-14.5v-14.5h14.5ZM92.09,186.939H71.644a5.952,5.952,0,0,0-5.945,5.945v20.445a5.952,5.952,0,0,0,5.945,5.945H92.09a5.952,5.952,0,0,0,5.945-5.945V192.884A5.952,5.952,0,0,0,92.09,186.939Zm-2.973,23.417h-14.5v-14.5h14.5Z" transform="translate(8.411)" fill="#4d777c"/>
    </g>
  </g>
</svg>
