<svg xmlns="http://www.w3.org/2000/svg" width="32" height="32" viewBox="0 0 32 32">
  <g id="Group_892" data-name="Group 892" transform="translate(-22.046 -17.01)">
    <rect id="Rectangle_391" data-name="Rectangle 391" width="32" height="32" transform="translate(22.046 17.01)" fill="#ff6f5e" opacity="0"/>
    <path id="Icon_material-lock" data-name="Icon material-lock" d="M27.266,12.133H25.747V9.1a7.6,7.6,0,0,0-15.19,0v3.038H9.038A3.047,3.047,0,0,0,6,15.171v15.19A3.047,3.047,0,0,0,9.038,33.4H27.266A3.047,3.047,0,0,0,30.3,30.361V15.171A3.047,3.047,0,0,0,27.266,12.133ZM18.152,25.8a3.038,3.038,0,1,1,3.038-3.038A3.047,3.047,0,0,1,18.152,25.8Zm4.709-13.671H13.443V9.1a4.709,4.709,0,1,1,9.418,0Z" transform="translate(20.046 15.61)" fill="#3f3d56"/>
  </g>
</svg>
