<svg xmlns="http://www.w3.org/2000/svg" width="19.79" height="25.975" viewBox="0 0 19.79 25.975">
  <path id="Icon_material-lock-outline" data-name="Icon material-lock-outline" d="M15.9,21.29a2.474,2.474,0,1,0-2.474-2.474A2.481,2.481,0,0,0,15.9,21.29Zm7.421-11.132H22.08V7.684a6.184,6.184,0,1,0-12.369,0v2.474H8.474A2.481,2.481,0,0,0,6,12.632V25a2.481,2.481,0,0,0,2.474,2.474H23.316A2.481,2.481,0,0,0,25.79,25V12.632A2.481,2.481,0,0,0,23.316,10.158ZM12.061,7.684a3.834,3.834,0,1,1,7.669,0v2.474H12.061ZM23.316,25H8.474V12.632H23.316Z" transform="translate(-6 -1.5)" fill="#c6c6c6"/>
</svg>
