<svg xmlns="http://www.w3.org/2000/svg" xmlns:xlink="http://www.w3.org/1999/xlink" width="309" height="309" viewBox="0 0 309 309">
  <defs>
    <filter id="Rectangle_497" x="0" y="0" width="309" height="309" filterUnits="userSpaceOnUse">
      <feOffset dy="2" input="SourceAlpha"/>
      <feGaussianBlur stdDeviation="3" result="blur"/>
      <feFlood flood-opacity="0.161"/>
      <feComposite operator="in" in2="blur"/>
      <feComposite in="SourceGraphic"/>
    </filter>
  </defs>
  <g id="Group_3095" data-name="Group 3095" transform="translate(-18 -540)">
    <g transform="matrix(1, 0, 0, 1, 18, 540)" filter="url(#Rectangle_497)">
      <rect id="Rectangle_497-2" data-name="Rectangle 497" width="291" height="291" transform="translate(9 7)" fill="#fff" opacity="0"/>
    </g>
    <g id="noun_financial_statement_2034201" data-name="noun_financial statement_2034201" transform="translate(34.17 546)">
      <g id="Group_3096" data-name="Group 3096" transform="translate(21.83 1)">
        <path id="Path_1159" data-name="Path 1159" d="M21.056,49.177,15.6,55.542a34.924,34.924,0,0,0,18.187,8.184v5.456h4.547V63.727c9.548-.455,16.823-5.911,16.823-15,0-9.548-6.82-13.186-16.369-15.459h0v-14.1a22.951,22.951,0,0,1,10.458,4.092l4.547-6.366a33.385,33.385,0,0,0-15.459-5.456V7.8H33.788v3.638c-9.094.455-16.369,5.911-16.369,15,0,9.548,6.366,12.731,16.369,15V56C29.241,55.088,25.148,52.814,21.056,49.177Zm17.278-6.82c4.547,1.364,7.73,2.728,7.73,6.82s-3.637,5.911-7.73,6.366ZM26.513,25.533c0-3.638,3.183-5.911,7.275-5.911V32.353C29.7,30.989,26.513,29.625,26.513,25.533Z" transform="translate(21.684 23.119)" fill="#4d777c"/>
        <path id="Path_1160" data-name="Path 1160" d="M200.642,1H26.952A19.7,19.7,0,0,0,7.4,20.552V253.806a19.407,19.407,0,0,0,19.552,19.552H43.775v.455A18.241,18.241,0,0,0,61.963,292H219.284a20.376,20.376,0,0,0,20.461-20.461V40.1a18.241,18.241,0,0,0-18.187-18.188h-1.364V20.552A19.407,19.407,0,0,0,200.642,1ZM16.494,253.806V20.552A10.289,10.289,0,0,1,26.952,10.094H200.642A10.289,10.289,0,0,1,211.1,20.552V253.806a10.289,10.289,0,0,1-10.458,10.458H26.952A10.9,10.9,0,0,1,16.494,253.806Zm205.519-222.8a9.12,9.12,0,0,1,9.094,9.094V271.539a11.257,11.257,0,0,1-11.367,11.367H62.417a9.12,9.12,0,0,1-9.094-9.094v-.455H201.1a19.407,19.407,0,0,0,19.552-19.552V31.009h1.364Z" transform="translate(-7.4 -1)" fill="#4d777c"/>
        <path id="Path_1161" data-name="Path 1161" d="M34.347,17.994h82.3a4.3,4.3,0,0,0,4.547-4.547A4.3,4.3,0,0,0,116.645,8.9h-82.3A4.3,4.3,0,0,0,29.8,13.447,4.3,4.3,0,0,0,34.347,17.994Z" transform="translate(72.05 27.02)" fill="#4d777c"/>
        <path id="Path_1162" data-name="Path 1162" d="M34.347,24.594h82.3a4.3,4.3,0,0,0,4.547-4.547,4.3,4.3,0,0,0-4.547-4.547h-82.3A4.3,4.3,0,0,0,29.8,20.047,4.556,4.556,0,0,0,34.347,24.594Z" transform="translate(72.05 50.43)" fill="#4d777c"/>
        <path id="Path_1163" data-name="Path 1163" d="M16.247,33.394h164.6a4.3,4.3,0,0,0,4.547-4.547,4.3,4.3,0,0,0-4.547-4.547H16.247A4.3,4.3,0,0,0,11.7,28.847,4.89,4.89,0,0,0,16.247,33.394Z" transform="translate(7.852 81.642)" fill="#4d777c"/>
        <path id="Path_1164" data-name="Path 1164" d="M16.247,40.394h164.6a4.3,4.3,0,0,0,4.547-4.547,4.3,4.3,0,0,0-4.547-4.547H16.247A4.3,4.3,0,0,0,11.7,35.847,4.556,4.556,0,0,0,16.247,40.394Z" transform="translate(7.852 106.47)" fill="#4d777c"/>
        <path id="Path_1165" data-name="Path 1165" d="M16.247,47.494h164.6a4.3,4.3,0,0,0,4.547-4.547,4.3,4.3,0,0,0-4.547-4.547H16.247A4.3,4.3,0,0,0,11.7,42.947,4.556,4.556,0,0,0,16.247,47.494Z" transform="translate(7.852 131.653)" fill="#4d777c"/>
        <path id="Path_1166" data-name="Path 1166" d="M16.247,54.494h164.6a4.3,4.3,0,0,0,4.547-4.547,4.3,4.3,0,0,0-4.547-4.547H16.247A4.3,4.3,0,0,0,11.7,49.947,4.556,4.556,0,0,0,16.247,54.494Z" transform="translate(7.852 156.481)" fill="#4d777c"/>
        <path id="Path_1167" data-name="Path 1167" d="M132.647,57.047A4.3,4.3,0,0,0,128.1,52.5H16.247a4.547,4.547,0,0,0,0,9.094h111.4A4.98,4.98,0,0,0,132.647,57.047Z" transform="translate(7.852 181.664)" fill="#4d777c"/>
      </g>
    </g>
  </g>
</svg>
