<svg xmlns="http://www.w3.org/2000/svg" width="160.001" height="160" viewBox="0 0 160.001 160">
  <g id="Group_3357" data-name="Group 3357" transform="translate(-65.999 -35.36)">
    <g id="Group_3275" data-name="Group 3275">
      <rect id="Rectangle_600" data-name="Rectangle 600" width="160" height="160" transform="translate(66 35.36)" fill="#fff" opacity="0"/>
      <g id="money-bag" transform="translate(65.999 35.36)">
        <path id="Path_1679" data-name="Path 1679" d="M61.25,169.6a45.055,45.055,0,0,0-4.969.187H56C25.25,172.7,0,201.883,0,234.414,0,272.2,35.094,276.6,61.25,276.6c25.969,0,56.25-3.937,60.469-34.968C126.124,205.258,97.25,169.6,61.25,169.6Zm0,0" transform="translate(0 -116.602)" fill="#4d777c"/>
        <path id="Path_1681" data-name="Path 1681" d="M156.318,15.563,146.943,44H100.632L91.257,15.563a4.518,4.518,0,0,1,.562-4.219,4.888,4.888,0,0,1,3.844-1.969h14.906a14.007,14.007,0,0,1,26.438,0h14.906a4.888,4.888,0,0,1,3.844,1.969,4.518,4.518,0,0,1,.562,4.219Zm0,0" transform="translate(-62.537 0)" fill="#4d777c"/>
        <path id="Path_1683" data-name="Path 1683" d="M178.824,285.594a13.9,13.9,0,0,1-9.281,13.125v4.219a4.687,4.687,0,1,1-9.375,0v-4.125a14.2,14.2,0,0,1-9.469-13.219,4.7,4.7,0,0,1,4.687-4.687,4.642,4.642,0,0,1,4.688,4.687,4.763,4.763,0,0,0,4.687,4.687h.094a4.68,4.68,0,0,0,4.593-4.687,4.621,4.621,0,0,0-4.593-4.687h-.094A14.166,14.166,0,0,1,150.7,266.844a14.012,14.012,0,0,1,9.469-13.219v-6.937a4.687,4.687,0,0,1,9.375,0v6.937a14.026,14.026,0,0,1,9.281,13.219,4.7,4.7,0,0,1-4.687,4.688,4.763,4.763,0,0,1-4.687-4.687,4.621,4.621,0,0,0-4.593-4.687h-.094a4.7,4.7,0,0,0-4.687,4.688,4.763,4.763,0,0,0,4.687,4.688h.094A14.023,14.023,0,0,1,178.824,285.594Zm0,0" transform="translate(-103.605 -166.375)" fill="#ececec"/>
        <path id="Path_1684" data-name="Path 1684" d="M366.937,281.375a9.4,9.4,0,0,1-9.375,9.375l-23.75,9.375-23.437-9.375a9.375,9.375,0,1,1,0-18.75h47.187A9.4,9.4,0,0,1,366.937,281.375Zm0,0" transform="translate(-206.938 -187)" fill="#ececec"/>
        <path id="Path_1686" data-name="Path 1686" d="M366.937,341.375a9.4,9.4,0,0,1-9.375,9.375l-23.75,9.375-23.437-9.375a9.375,9.375,0,1,1,0-18.75h47.187A9.4,9.4,0,0,1,366.937,341.375Zm0,0" transform="translate(-206.938 -228.25)" fill="#d9d9d9"/>
        <path id="Path_1688" data-name="Path 1688" d="M366.937,401.375a9.4,9.4,0,0,1-9.375,9.375l-23.75,9.375-23.437-9.375a9.375,9.375,0,0,1,0-18.75h47.187A9.4,9.4,0,0,1,366.937,401.375Zm0,0" transform="translate(-206.938 -269.5)" fill="#ececec"/>
        <path id="Path_1690" data-name="Path 1690" d="M366.937,461.375a9.4,9.4,0,0,1-9.375,9.375H310.375a9.375,9.375,0,0,1,0-18.75h47.187A9.4,9.4,0,0,1,366.937,461.375Zm0,0" transform="translate(-206.938 -310.75)" fill="#d9d9d9"/>
        <path id="Path_1692" data-name="Path 1692" d="M156.625,130.375a9.4,9.4,0,0,1-9.375,9.375H100.375a9.375,9.375,0,1,1,0-18.75H147.25A9.4,9.4,0,0,1,156.625,130.375Zm0,0" transform="translate(-62.562 -83.188)" fill="#6cc8c5"/>
      </g>
    </g>
  </g>
</svg>
