<svg xmlns="http://www.w3.org/2000/svg" width="160" height="160" viewBox="0 0 160 160">
  <g id="Group_3277" data-name="Group 3277" transform="translate(-65 -35.36)">
    <rect id="Rectangle_600" data-name="Rectangle 600" width="160" height="160" transform="translate(65 35.36)" fill="#fff" opacity="0"/>
    <g id="building_2_" data-name="building (2)" transform="translate(61.385 35.657)">
      <rect id="Rectangle_606" data-name="Rectangle 606" width="101.637" height="151.398" transform="translate(11.252)" fill="#396267"/>
      <g id="Group_3296" data-name="Group 3296" transform="translate(22.663 11.711)">
        <rect id="Rectangle_607" data-name="Rectangle 607" width="13.047" height="21.581" fill="#ececec"/>
        <rect id="Rectangle_608" data-name="Rectangle 608" width="13.047" height="21.581" transform="translate(21.922)" fill="#ececec"/>
        <rect id="Rectangle_609" data-name="Rectangle 609" width="13.047" height="21.581" transform="translate(43.846)" fill="#ececec"/>
        <rect id="Rectangle_610" data-name="Rectangle 610" width="13.047" height="21.581" transform="translate(65.774)" fill="#ececec"/>
        <rect id="Rectangle_611" data-name="Rectangle 611" width="13.047" height="21.581" transform="translate(0 34.091)" fill="#ececec"/>
        <rect id="Rectangle_612" data-name="Rectangle 612" width="13.047" height="21.581" transform="translate(21.922 34.091)" fill="#ececec"/>
      </g>
      <g id="Group_3297" data-name="Group 3297" transform="translate(66.509 45.803)">
        <rect id="Rectangle_613" data-name="Rectangle 613" width="13.047" height="21.581" fill="#27a2db"/>
        <rect id="Rectangle_614" data-name="Rectangle 614" width="13.047" height="21.581" transform="translate(21.928)" fill="#27a2db"/>
      </g>
      <g id="Group_3298" data-name="Group 3298" transform="translate(66.508 79.88)">
        <path id="Path_1556" data-name="Path 1556" d="M196.316,255.813H183.269l13.047-21.582Z" transform="translate(-183.269 -234.231)" fill="#2d93ba"/>
        <path id="Path_1557" data-name="Path 1557" d="M260.6,255.813H247.553L260.6,234.231Z" transform="translate(-225.63 -234.231)" fill="#2d93ba"/>
      </g>
      <g id="Group_3299" data-name="Group 3299" transform="translate(22.663 113.964)">
        <rect id="Rectangle_615" data-name="Rectangle 615" width="13.047" height="21.581" fill="#ececec"/>
        <rect id="Rectangle_616" data-name="Rectangle 616" width="13.047" height="21.581" transform="translate(21.922)" fill="#ececec"/>
      </g>
      <g id="Group_3300" data-name="Group 3300" transform="translate(66.509 113.964)">
        <rect id="Rectangle_617" data-name="Rectangle 617" width="13.047" height="21.581" fill="#27a2db"/>
        <rect id="Rectangle_618" data-name="Rectangle 618" width="13.047" height="21.581" transform="translate(21.928)" fill="#27a2db"/>
      </g>
      <g id="Group_3301" data-name="Group 3301" transform="translate(22.663 11.712)">
        <path id="Path_1558" data-name="Path 1558" d="M67.749,55.926H54.7L67.749,34.344Z" transform="translate(-54.703 -34.344)" fill="#ececec"/>
        <path id="Path_1559" data-name="Path 1559" d="M132.033,55.926H118.986l13.047-21.582Z" transform="translate(-97.063 -34.344)" fill="#ececec"/>
        <path id="Path_1560" data-name="Path 1560" d="M196.316,55.926H183.269l13.047-21.582Z" transform="translate(-139.424 -34.344)" fill="#ececec"/>
        <path id="Path_1561" data-name="Path 1561" d="M260.6,55.926H247.553L260.6,34.344Z" transform="translate(-181.785 -34.344)" fill="#ececec"/>
        <path id="Path_1562" data-name="Path 1562" d="M67.749,155.87H54.7l13.046-21.582Z" transform="translate(-54.703 -100.204)" fill="#ececec"/>
        <path id="Path_1563" data-name="Path 1563" d="M132.033,155.87H118.986l13.047-21.582Z" transform="translate(-97.063 -100.204)" fill="#ececec"/>
      </g>
      <g id="Group_3302" data-name="Group 3302" transform="translate(66.508 45.796)">
        <path id="Path_1564" data-name="Path 1564" d="M196.316,155.87H183.269l13.047-21.582Z" transform="translate(-183.269 -134.288)" fill="#2d93ba"/>
        <path id="Path_1565" data-name="Path 1565" d="M260.6,155.87H247.553L260.6,134.288Z" transform="translate(-225.63 -134.288)" fill="#2d93ba"/>
      </g>
      <g id="Group_3303" data-name="Group 3303" transform="translate(22.663 79.873)">
        <rect id="Rectangle_619" data-name="Rectangle 619" width="13.047" height="21.581" fill="#ececec"/>
        <rect id="Rectangle_620" data-name="Rectangle 620" width="13.047" height="21.581" transform="translate(21.922)" fill="#ececec"/>
      </g>
      <g id="Group_3304" data-name="Group 3304" transform="translate(66.509 79.873)">
        <rect id="Rectangle_621" data-name="Rectangle 621" width="13.047" height="21.581" fill="#27a2db"/>
        <rect id="Rectangle_622" data-name="Rectangle 622" width="13.047" height="21.581" transform="translate(21.928)" fill="#27a2db"/>
      </g>
      <g id="Group_3305" data-name="Group 3305" transform="translate(22.663 113.964)">
        <path id="Path_1566" data-name="Path 1566" d="M67.749,355.757H54.7l13.046-21.582Z" transform="translate(-54.703 -334.175)" fill="#ececec"/>
        <path id="Path_1567" data-name="Path 1567" d="M132.033,355.757H118.986l13.047-21.582Z" transform="translate(-97.063 -334.175)" fill="#ececec"/>
      </g>
      <g id="Group_3306" data-name="Group 3306" transform="translate(66.508 113.964)">
        <path id="Path_1568" data-name="Path 1568" d="M196.316,355.757H183.269l13.047-21.582Z" transform="translate(-183.269 -334.175)" fill="#2d93ba"/>
        <path id="Path_1569" data-name="Path 1569" d="M260.6,355.757H247.553L260.6,334.175Z" transform="translate(-225.63 -334.175)" fill="#2d93ba"/>
      </g>
      <rect id="Rectangle_623" data-name="Rectangle 623" width="87.155" height="105.832" transform="translate(66.509 45.575)" fill="#4d777c"/>
      <rect id="Rectangle_624" data-name="Rectangle 624" width="29.051" height="29.047" transform="translate(95.571 122.36)" fill="#6cc8c5"/>
      <rect id="Rectangle_625" data-name="Rectangle 625" width="36.327" height="4.891" transform="translate(91.923 117.471)" fill="#72b5bd"/>
      <g id="Group_3307" data-name="Group 3307" transform="translate(73.766 55.451)">
        <rect id="Rectangle_626" data-name="Rectangle 626" width="12.022" height="20.97" fill="#ececec"/>
        <rect id="Rectangle_627" data-name="Rectangle 627" width="12.022" height="20.97" transform="translate(20.208)" fill="#ececec"/>
        <rect id="Rectangle_628" data-name="Rectangle 628" width="12.022" height="20.97" transform="translate(40.416)" fill="#ececec"/>
        <rect id="Rectangle_629" data-name="Rectangle 629" width="12.022" height="20.97" transform="translate(60.613)" fill="#ececec"/>
      </g>
      <g id="Group_3308" data-name="Group 3308" transform="translate(73.771 55.451)">
        <path id="Path_1570" data-name="Path 1570" d="M216.589,183.567H204.566l12.023-20.97Z" transform="translate(-204.566 -162.597)" fill="#ececec"/>
        <path id="Path_1571" data-name="Path 1571" d="M275.828,183.567H263.8l12.023-20.97Z" transform="translate(-243.603 -162.597)" fill="#ececec"/>
        <path id="Path_1572" data-name="Path 1572" d="M335.066,183.567H323.044l12.022-20.97Z" transform="translate(-282.639 -162.597)" fill="#ececec"/>
        <path id="Path_1573" data-name="Path 1573" d="M394.305,183.567H382.283l12.022-20.97Z" transform="translate(-321.676 -162.597)" fill="#ececec"/>
      </g>
      <g id="Group_3309" data-name="Group 3309" transform="translate(73.766 86.623)">
        <rect id="Rectangle_630" data-name="Rectangle 630" width="12.022" height="20.97" fill="#ececec"/>
        <rect id="Rectangle_631" data-name="Rectangle 631" width="12.022" height="20.97" transform="translate(20.208)" fill="#ececec"/>
        <rect id="Rectangle_632" data-name="Rectangle 632" width="12.022" height="20.97" transform="translate(40.416)" fill="#ececec"/>
        <rect id="Rectangle_633" data-name="Rectangle 633" width="12.022" height="20.97" transform="translate(60.613)" fill="#ececec"/>
        <rect id="Rectangle_634" data-name="Rectangle 634" width="12.022" height="20.97" transform="translate(60.613 30.848)" fill="#ececec"/>
        <rect id="Rectangle_635" data-name="Rectangle 635" width="12.022" height="20.97" transform="translate(0 30.848)" fill="#ececec"/>
      </g>
      <g id="Group_3310" data-name="Group 3310" transform="translate(73.771 86.624)">
        <path id="Path_1574" data-name="Path 1574" d="M216.589,274.976H204.566l12.023-20.97Z" transform="translate(-204.566 -254.006)" fill="#ececec"/>
        <path id="Path_1575" data-name="Path 1575" d="M275.828,274.976H263.8l12.023-20.97Z" transform="translate(-243.603 -254.006)" fill="#ececec"/>
        <path id="Path_1576" data-name="Path 1576" d="M335.066,274.976H323.044l12.022-20.97Z" transform="translate(-282.639 -254.006)" fill="#ececec"/>
        <path id="Path_1577" data-name="Path 1577" d="M394.305,274.976H382.283l12.022-20.97Z" transform="translate(-321.676 -254.006)" fill="#ececec"/>
        <path id="Path_1578" data-name="Path 1578" d="M394.305,365.426H382.283l12.022-20.97Z" transform="translate(-321.676 -313.61)" fill="#ececec"/>
        <path id="Path_1579" data-name="Path 1579" d="M216.589,365.426H204.566l12.023-20.97Z" transform="translate(-204.566 -313.61)" fill="#ececec"/>
      </g>
      <path id="Path_1580" data-name="Path 1580" d="M159.507,452.262H8.211a2.13,2.13,0,0,1-2.129-2.129V446.1a2.129,2.129,0,0,1,2.129-2.129h151.3a2.129,2.129,0,0,1,2.129,2.129v4.037A2.13,2.13,0,0,1,159.507,452.262Z" transform="translate(0 -292.559)" fill="#dcdcdc"/>
      <g id="Group_3311" data-name="Group 3311" transform="translate(22.663 79.88)">
        <path id="Path_1581" data-name="Path 1581" d="M67.749,255.813H54.7l13.046-21.582Z" transform="translate(-54.703 -234.231)" fill="#ececec"/>
        <path id="Path_1582" data-name="Path 1582" d="M132.033,255.813H118.986l13.047-21.582Z" transform="translate(-97.063 -234.231)" fill="#ececec"/>
      </g>
    </g>
  </g>
</svg>
