<svg xmlns="http://www.w3.org/2000/svg" width="160" height="160" viewBox="0 0 160 160">
  <g id="Group_3278" data-name="Group 3278" transform="translate(-67 -35.36)">
    <rect id="Rectangle_600" data-name="Rectangle 600" width="160" height="160" transform="translate(67 35.36)" fill="#fff" opacity="0"/>
    <g id="building_1_" data-name="building (1)" transform="translate(53.146 35.36)">
      <path id="Path_940" data-name="Path 940" d="M72.762,247.128H53.7a1.083,1.083,0,0,0-1.083,1.083v12.684a1.083,1.083,0,0,0,1.083,1.083H72.762a1.083,1.083,0,0,0,1.083-1.083V248.211A1.083,1.083,0,0,0,72.762,247.128Z" transform="translate(-22.279 -169.938)" fill="#6cc8c5"/>
      <path id="Path_941" data-name="Path 941" d="M96.142,247.128H86.617v14.849h9.525a1.083,1.083,0,0,0,1.083-1.083V248.211A1.083,1.083,0,0,0,96.142,247.128Z" transform="translate(-45.658 -169.938)" fill="#6cc8c5"/>
      <path id="Path_942" data-name="Path 942" d="M397.877,58.338a2.375,2.375,0,0,0-2.375,2.375V84.637a2.375,2.375,0,1,0,4.75,0V60.713A2.375,2.375,0,0,0,397.877,58.338Z" transform="translate(-258.064 -40.116)" fill="#396267"/>
      <path id="Path_943" data-name="Path 943" d="M392.807,141.245h-7.994a2.5,2.5,0,0,1-2.5-2.5v-8.735a2.5,2.5,0,0,1,2.5-2.5h7.994a2.5,2.5,0,0,1,2.5,2.5v8.735A2.5,2.5,0,0,1,392.807,141.245Z" transform="translate(-248.996 -87.687)" fill="#dcdcdc"/>
      <path id="Path_944" data-name="Path 944" d="M379.512,191.3H348.958a2.379,2.379,0,0,1-2.379-2.379V165.861a2.379,2.379,0,0,1,2.379-2.379h30.554a2.379,2.379,0,0,1,2.379,2.379v23.062A2.379,2.379,0,0,1,379.512,191.3Z" transform="translate(-224.422 -112.419)" fill="#dcdcdc"/>
      <path id="Path_945" data-name="Path 945" d="M365.309,297.4H311.693V199.929h52.3a1.316,1.316,0,0,1,1.317,1.317Z" transform="translate(-200.432 -137.482)" fill="#dcdcdc"/>
      <path id="Path_946" data-name="Path 946" d="M447.071,199.929H432.508a1.316,1.316,0,0,1,1.317,1.317V297.4h14.563V201.246A1.317,1.317,0,0,0,447.071,199.929Z" transform="translate(-283.511 -137.482)" fill="#dcdcdc"/>
      <g id="Group_1736" data-name="Group 1736" transform="translate(122.157 77.19)">
        <path id="Path_947" data-name="Path 947" d="M379.272,255.621H348.549a1.969,1.969,0,0,1-1.969-1.969V249.1a1.969,1.969,0,0,1,1.969-1.969h30.723a1.969,1.969,0,0,1,1.969,1.969v4.554A1.969,1.969,0,0,1,379.272,255.621Z" transform="translate(-346.58 -247.129)" fill="rgba(255,255,255,0.85)"/>
        <path id="Path_948" data-name="Path 948" d="M379.272,317.953H348.549a1.969,1.969,0,0,1-1.969-1.969V311.43a1.969,1.969,0,0,1,1.969-1.969h30.723a1.969,1.969,0,0,1,1.969,1.969v4.554A1.969,1.969,0,0,1,379.272,317.953Z" transform="translate(-346.58 -289.992)" fill="rgba(255,255,255,0.85)"/>
        <path id="Path_949" data-name="Path 949" d="M379.272,380.285H348.549a1.969,1.969,0,0,1-1.969-1.969v-4.554a1.969,1.969,0,0,1,1.969-1.969h30.723a1.969,1.969,0,0,1,1.969,1.969v4.554A1.969,1.969,0,0,1,379.272,380.285Z" transform="translate(-346.58 -332.855)" fill="rgba(255,255,255,0.85)"/>
        <path id="Path_950" data-name="Path 950" d="M379.272,442.617H348.549a1.969,1.969,0,0,1-1.969-1.969v-4.554a1.969,1.969,0,0,1,1.969-1.969h30.723a1.969,1.969,0,0,1,1.969,1.969v4.554A1.969,1.969,0,0,1,379.272,442.617Z" transform="translate(-346.58 -375.717)" fill="rgba(255,255,255,0.85)"/>
      </g>
      <path id="Path_951" data-name="Path 951" d="M216.066,166.235H154.153a1.792,1.792,0,0,1-1.793-1.793V10.974a1.792,1.792,0,0,1,1.793-1.793h61.914a1.792,1.792,0,0,1,1.793,1.793V164.443A1.792,1.792,0,0,1,216.066,166.235Z" transform="translate(-90.867 -6.313)" fill="#4d777c"/>
      <g id="Group_1737" data-name="Group 1737" transform="translate(57.034)">
        <path id="Path_952" data-name="Path 952" d="M324.258,9.181H309.7a1.792,1.792,0,0,1,1.793,1.793V164.443a1.792,1.792,0,0,1-1.793,1.793h14.563a1.792,1.792,0,0,0,1.793-1.793V10.974A1.793,1.793,0,0,0,324.258,9.181Z" transform="translate(-256.092 -6.313)" fill="#4d777c"/>
        <path id="Path_953" data-name="Path 953" d="M210.855,0H138.973a.89.89,0,0,0-.89.89V6.923a.89.89,0,0,0,.89.89h71.882a.89.89,0,0,0,.89-.89V.89A.89.89,0,0,0,210.855,0Z" transform="translate(-138.083)" fill="#4d777c"/>
      </g>
      <g id="Group_1738" data-name="Group 1738" transform="translate(69.633 16.472)">
        <path id="Path_954" data-name="Path 954" d="M188.242,65.593h-8.71a1.111,1.111,0,0,1-1.111-1.111V53.847a1.111,1.111,0,0,1,1.111-1.111h8.71a1.111,1.111,0,0,1,1.111,1.111V64.483A1.111,1.111,0,0,1,188.242,65.593Z" transform="translate(-178.421 -52.736)" fill="rgba(255,255,255,0.85)"/>
        <path id="Path_955" data-name="Path 955" d="M249.531,65.593h-8.71a1.111,1.111,0,0,1-1.111-1.111V53.847a1.111,1.111,0,0,1,1.111-1.111h8.71a1.111,1.111,0,0,1,1.111,1.111V64.483A1.111,1.111,0,0,1,249.531,65.593Z" transform="translate(-220.566 -52.736)" fill="rgba(255,255,255,0.85)"/>
        <path id="Path_956" data-name="Path 956" d="M310.818,65.593h-8.71A1.111,1.111,0,0,1,301,64.482V53.847a1.111,1.111,0,0,1,1.111-1.111h8.71a1.111,1.111,0,0,1,1.111,1.111V64.483A1.111,1.111,0,0,1,310.818,65.593Z" transform="translate(-262.71 -52.736)" fill="rgba(255,255,255,0.85)"/>
        <path id="Path_957" data-name="Path 957" d="M188.242,157.446h-8.71a1.111,1.111,0,0,1-1.111-1.111V145.7a1.111,1.111,0,0,1,1.111-1.111h8.71a1.111,1.111,0,0,1,1.111,1.111v10.636A1.111,1.111,0,0,1,188.242,157.446Z" transform="translate(-178.421 -115.898)" fill="rgba(255,255,255,0.85)"/>
        <path id="Path_958" data-name="Path 958" d="M249.531,157.446h-8.71a1.111,1.111,0,0,1-1.111-1.111V145.7a1.111,1.111,0,0,1,1.111-1.111h8.71a1.111,1.111,0,0,1,1.111,1.111v10.636A1.111,1.111,0,0,1,249.531,157.446Z" transform="translate(-220.566 -115.898)" fill="rgba(255,255,255,0.85)"/>
        <path id="Path_959" data-name="Path 959" d="M310.818,157.446h-8.71A1.111,1.111,0,0,1,301,156.335V145.7a1.111,1.111,0,0,1,1.111-1.111h8.71a1.111,1.111,0,0,1,1.111,1.111v10.636A1.111,1.111,0,0,1,310.818,157.446Z" transform="translate(-262.71 -115.898)" fill="rgba(255,255,255,0.85)"/>
        <path id="Path_960" data-name="Path 960" d="M188.242,249.3h-8.71a1.111,1.111,0,0,1-1.111-1.111V237.552a1.111,1.111,0,0,1,1.111-1.111h8.71a1.111,1.111,0,0,1,1.111,1.111v10.636A1.111,1.111,0,0,1,188.242,249.3Z" transform="translate(-178.421 -179.061)" fill="rgba(255,255,255,0.85)"/>
        <path id="Path_961" data-name="Path 961" d="M249.531,249.3h-8.71a1.111,1.111,0,0,1-1.111-1.111V237.552a1.111,1.111,0,0,1,1.111-1.111h8.71a1.111,1.111,0,0,1,1.111,1.111v10.636A1.111,1.111,0,0,1,249.531,249.3Z" transform="translate(-220.566 -179.061)" fill="rgba(255,255,255,0.85)"/>
        <path id="Path_962" data-name="Path 962" d="M310.818,249.3h-8.71A1.111,1.111,0,0,1,301,248.188V237.552a1.111,1.111,0,0,1,1.111-1.111h8.71a1.111,1.111,0,0,1,1.111,1.111v10.636A1.111,1.111,0,0,1,310.818,249.3Z" transform="translate(-262.71 -179.061)" fill="rgba(255,255,255,0.85)"/>
        <path id="Path_963" data-name="Path 963" d="M249.531,341.152h-8.71a1.111,1.111,0,0,1-1.111-1.111V329.405a1.111,1.111,0,0,1,1.111-1.111h8.71a1.111,1.111,0,0,1,1.111,1.111v10.636A1.111,1.111,0,0,1,249.531,341.152Z" transform="translate(-220.566 -242.224)" fill="rgba(255,255,255,0.85)"/>
        <path id="Path_964" data-name="Path 964" d="M310.818,341.152h-8.71A1.111,1.111,0,0,1,301,340.041V329.405a1.111,1.111,0,0,1,1.111-1.111h8.71a1.111,1.111,0,0,1,1.111,1.111v10.636A1.111,1.111,0,0,1,310.818,341.152Z" transform="translate(-262.71 -242.224)" fill="rgba(255,255,255,0.85)"/>
        <path id="Path_965" data-name="Path 965" d="M249.531,433h-8.71a1.111,1.111,0,0,1-1.111-1.111V421.258a1.111,1.111,0,0,1,1.111-1.111h8.71a1.111,1.111,0,0,1,1.111,1.111v10.636A1.111,1.111,0,0,1,249.531,433Z" transform="translate(-220.566 -305.387)" fill="rgba(255,255,255,0.85)"/>
        <path id="Path_966" data-name="Path 966" d="M310.818,433h-8.71A1.111,1.111,0,0,1,301,431.894V421.258a1.111,1.111,0,0,1,1.111-1.111h8.71a1.111,1.111,0,0,1,1.111,1.111v10.636A1.111,1.111,0,0,1,310.818,433Z" transform="translate(-262.71 -305.387)" fill="rgba(255,255,255,0.85)"/>
      </g>
      <path id="Path_967" data-name="Path 967" d="M95.893,352.328H30.021a1.369,1.369,0,0,1-1.369-1.369V281.17a1.369,1.369,0,0,1,1.369-1.369H95.893a1.369,1.369,0,0,1,1.369,1.369v69.789A1.369,1.369,0,0,1,95.893,352.328Z" transform="translate(-5.799 -192.406)" fill="#6cc8c5"/>
      <path id="Path_968" data-name="Path 968" d="M211.289,279.8H196.464a1.369,1.369,0,0,1,1.369,1.369v69.789a1.369,1.369,0,0,1-1.369,1.369h14.825a1.369,1.369,0,0,0,1.369-1.369V281.17A1.369,1.369,0,0,0,211.289,279.8Z" transform="translate(-121.195 -192.406)" fill="#6cc8c5"/>
      <g id="Group_1739" data-name="Group 1739" transform="translate(30.963 98.95)">
        <path id="Path_969" data-name="Path 969" d="M64.611,325.034H55.99a1.374,1.374,0,0,1-1.374-1.374v-5.491A1.374,1.374,0,0,1,55.99,316.8h8.621a1.374,1.374,0,0,1,1.374,1.374v5.491A1.374,1.374,0,0,1,64.611,325.034Z" transform="translate(-54.616 -316.795)" fill="rgba(255,255,255,0.85)"/>
        <path id="Path_970" data-name="Path 970" d="M128.863,325.034h-8.621a1.374,1.374,0,0,1-1.374-1.374v-5.491a1.374,1.374,0,0,1,1.374-1.374h8.621a1.374,1.374,0,0,1,1.374,1.374v5.491A1.374,1.374,0,0,1,128.863,325.034Z" transform="translate(-98.799 -316.795)" fill="rgba(255,255,255,0.85)"/>
        <path id="Path_971" data-name="Path 971" d="M193.115,325.034h-8.621a1.374,1.374,0,0,1-1.374-1.374v-5.491a1.374,1.374,0,0,1,1.374-1.374h8.621a1.374,1.374,0,0,1,1.374,1.374v5.491A1.374,1.374,0,0,1,193.115,325.034Z" transform="translate(-142.982 -316.795)" fill="rgba(255,255,255,0.85)"/>
        <path id="Path_972" data-name="Path 972" d="M64.611,386.733H55.99a1.374,1.374,0,0,1-1.374-1.374v-5.491a1.374,1.374,0,0,1,1.374-1.374h8.621a1.374,1.374,0,0,1,1.374,1.374v5.491A1.374,1.374,0,0,1,64.611,386.733Z" transform="translate(-54.616 -359.222)" fill="rgba(255,255,255,0.85)"/>
        <path id="Path_973" data-name="Path 973" d="M128.863,386.733h-8.621a1.374,1.374,0,0,1-1.374-1.374v-5.491a1.374,1.374,0,0,1,1.374-1.374h8.621a1.374,1.374,0,0,1,1.374,1.374v5.491A1.374,1.374,0,0,1,128.863,386.733Z" transform="translate(-98.799 -359.222)" fill="rgba(255,255,255,0.85)"/>
        <path id="Path_974" data-name="Path 974" d="M193.115,386.733h-8.621a1.374,1.374,0,0,1-1.374-1.374v-5.491a1.374,1.374,0,0,1,1.374-1.374h8.621a1.374,1.374,0,0,1,1.374,1.374v5.491A1.374,1.374,0,0,1,193.115,386.733Z" transform="translate(-142.982 -359.222)" fill="rgba(255,255,255,0.85)"/>
        <path id="Path_975" data-name="Path 975" d="M64.611,448.432H55.99a1.374,1.374,0,0,1-1.374-1.374v-5.491a1.374,1.374,0,0,1,1.374-1.374h8.621a1.374,1.374,0,0,1,1.374,1.374v5.491A1.374,1.374,0,0,1,64.611,448.432Z" transform="translate(-54.616 -401.65)" fill="rgba(255,255,255,0.85)"/>
        <path id="Path_976" data-name="Path 976" d="M128.863,448.432h-8.621a1.374,1.374,0,0,1-1.374-1.374v-5.491a1.374,1.374,0,0,1,1.374-1.374h8.621a1.374,1.374,0,0,1,1.374,1.374v5.491A1.374,1.374,0,0,1,128.863,448.432Z" transform="translate(-98.799 -401.65)" fill="rgba(255,255,255,0.85)"/>
        <path id="Path_977" data-name="Path 977" d="M193.115,448.432h-8.621a1.374,1.374,0,0,1-1.374-1.374v-5.491a1.374,1.374,0,0,1,1.374-1.374h8.621a1.374,1.374,0,0,1,1.374,1.374v5.491A1.374,1.374,0,0,1,193.115,448.432Z" transform="translate(-142.982 -401.65)" fill="rgba(255,255,255,0.85)"/>
      </g>
    </g>
  </g>
</svg>
