<svg xmlns="http://www.w3.org/2000/svg" width="160" height="160.293" viewBox="0 0 160 160.293">
  <g id="Group_3359" data-name="Group 3359" transform="translate(-66 -35.36)">
    <g id="Group_3273" data-name="Group 3273">
      <rect id="Rectangle_600" data-name="Rectangle 600" width="160" height="160" transform="translate(66 35.36)" fill="#fff" opacity="0"/>
      <g id="information" transform="translate(21.872 36)">
        <path id="Path_1643" data-name="Path 1643" d="M174.106,0H102.847C99.164,0,86.715,25.837,86.715,25.837S64.128,32.96,64.128,36.657V150.3a9.36,9.36,0,0,0,9.349,9.349H174.106a9.359,9.359,0,0,0,9.349-9.349V9.349A9.36,9.36,0,0,0,174.106,0Z" fill="#4d777c"/>
        <path id="Path_1644" data-name="Path 1644" d="M393.341,0h-9.433a9.359,9.359,0,0,1,9.349,9.349V150.3a9.359,9.359,0,0,1-9.349,9.349h9.433a9.359,9.359,0,0,0,9.349-9.349V9.349A9.359,9.359,0,0,0,393.341,0Z" transform="translate(-219.235)" fill="#4d777c"/>
        <path id="Path_1645" data-name="Path 1645" d="M93.779,4.059,68.3,27.79l-.06.058a13.735,13.735,0,0,0-4.027,9.043H93.146a9.7,9.7,0,0,0,9.646-9.692L102.859.052a13.741,13.741,0,0,0-9.08,4.007Z" transform="translate(-0.06 -0.036)" fill="#396267"/>
        <path id="Path_1646" data-name="Path 1646" d="M292.635,71.29a20.867,20.867,0,1,0-27.224,19.877l3.965,6.867a3.544,3.544,0,0,0,6.138,0l4.329-7.5A20.871,20.871,0,0,0,292.635,71.29Z" transform="translate(-128.049 -34.569)" fill="#6cc8c5"/>
        <path id="Path_1647" data-name="Path 1647" d="M308.817,50.424h-.049a1.059,1.059,0,0,0-.44,2.015,20.869,20.869,0,0,1-.55,37.959,1.06,1.06,0,0,0-.493.438l-2.2,3.813a1.06,1.06,0,0,0,0,1.061l3.491,6.047a1.061,1.061,0,0,0,1.837,0l6.305-10.921a1.06,1.06,0,0,1,.493-.438,20.869,20.869,0,0,0-8.394-39.975Z" transform="translate(-165.096 -34.57)" fill="#6cc8c5"/>
        <path id="Path_1648" data-name="Path 1648" d="M314.125,124.729a2.358,2.358,0,0,1-2.358-2.358v-8.723a2.358,2.358,0,1,1,4.716,0v8.723A2.358,2.358,0,0,1,314.125,124.729Z" transform="translate(-169.776 -76.298)" fill="#ececec"/>
        <path id="Path_1649" data-name="Path 1649" d="M314.125,90.3a2.358,2.358,0,0,1-2.358-2.358V85.9a2.358,2.358,0,1,1,4.716,0v2.04A2.358,2.358,0,0,1,314.125,90.3Z" transform="translate(-169.776 -57.277)" fill="#ececec"/>
        <g id="Group_3341" data-name="Group 3341" transform="translate(85.551 53.101)">
          <path id="Path_1650" data-name="Path 1650" d="M154.534,173.6H134.621a2.358,2.358,0,0,1,0-4.716h19.913a2.358,2.358,0,1,1,0,4.716Z" transform="translate(-132.263 -168.885)" fill="#ececec"/>
          <path id="Path_1651" data-name="Path 1651" d="M154.534,201.6H134.621a2.358,2.358,0,0,1,0-4.716h19.913a2.358,2.358,0,1,1,0,4.716Z" transform="translate(-132.263 -188.081)" fill="#ececec"/>
          <path id="Path_1652" data-name="Path 1652" d="M209.663,256.982H134.621a2.358,2.358,0,1,1,0-4.716h75.042a2.358,2.358,0,0,1,0,4.716Z" transform="translate(-132.263 -226.049)" fill="#ececec"/>
          <path id="Path_1653" data-name="Path 1653" d="M209.663,284.982H134.621a2.358,2.358,0,0,1,0-4.716h75.042a2.358,2.358,0,0,1,0,4.716Z" transform="translate(-132.263 -245.246)" fill="#ececec"/>
          <path id="Path_1654" data-name="Path 1654" d="M195.431,329.824H134.622a2.358,2.358,0,1,1,0-4.716h60.809a2.358,2.358,0,1,1,0,4.716Z" transform="translate(-132.264 -275.988)" fill="#ececec"/>
          <path id="Path_1655" data-name="Path 1655" d="M209.663,357.824H134.621a2.358,2.358,0,0,1,0-4.716h75.042a2.358,2.358,0,0,1,0,4.716Z" transform="translate(-132.263 -295.185)" fill="#ececec"/>
          <path id="Path_1656" data-name="Path 1656" d="M209.663,402.666H134.621a2.358,2.358,0,0,1,0-4.716h75.042a2.358,2.358,0,0,1,0,4.716Z" transform="translate(-132.263 -325.927)" fill="#ececec"/>
          <path id="Path_1657" data-name="Path 1657" d="M173.333,430.666H134.621a2.358,2.358,0,0,1,0-4.716h38.712a2.358,2.358,0,0,1,0,4.716Z" transform="translate(-132.263 -345.124)" fill="#ececec"/>
        </g>
      </g>
    </g>
  </g>
</svg>
