<svg xmlns="http://www.w3.org/2000/svg" width="160" height="160" viewBox="0 0 160 160">
  <g id="Group_3273" data-name="Group 3273" transform="translate(-66 -35.36)">
    <rect id="Rectangle_600" data-name="Rectangle 600" width="160" height="160" transform="translate(66 35.36)" fill="#fff" opacity="0"/>
    <g id="user" transform="translate(66 -10.945)">
      <path id="Path_1536" data-name="Path 1536" d="M144.449,121H15.551A15.568,15.568,0,0,0,0,136.551V226.4A15.568,15.568,0,0,0,15.551,241.95h128.9A15.568,15.568,0,0,0,160,226.4V136.551A15.568,15.568,0,0,0,144.449,121Z" transform="translate(0 -55.12)" fill="#4d777c"/>
      <path id="Path_1537" data-name="Path 1537" d="M296.276,121H232V241.95h64.276A15.568,15.568,0,0,0,311.827,226.4V136.551A15.568,15.568,0,0,0,296.276,121Z" transform="translate(-151.827 -55.12)" fill="#4d777c"/>
      <g id="Group_3294" data-name="Group 3294" transform="translate(84.519 99.305)">
        <path id="Path_1540" data-name="Path 1540" d="M265.829,387.367H238.184a5.184,5.184,0,0,1,0-10.367h27.646a5.184,5.184,0,0,1,0,10.367Z" transform="translate(-233 -354.883)" fill="#6cc8c5"/>
        <path id="Path_1545" data-name="Path 1545" d="M278.037,387.367H240.111c-3.927,0-7.111-2.321-7.111-5.184S236.184,377,240.111,377h37.926c3.927,0,7.111,2.321,7.111,5.184S281.964,387.367,278.037,387.367Z" transform="translate(-233 -332.883)" fill="#6cc8c5"/>
        <path id="Path_1541" data-name="Path 1541" d="M257.536,323.367H238.184a5.184,5.184,0,1,1,0-10.367h19.352a5.184,5.184,0,0,1,0,10.367Z" transform="translate(-233 -313)" fill="#6cc8c5"/>
      </g>
      <g id="Group_3295" data-name="Group 3295" transform="translate(24.333 94.305)">
        <path id="Path_1542" data-name="Path 1542" d="M103.359,325.954H70.184a4.959,4.959,0,0,1-5.184-4.7V308.73C65,297.851,74.767,289,86.771,289s21.771,8.851,21.771,19.73v12.527A4.959,4.959,0,0,1,103.359,325.954Z" transform="translate(-65 -261.354)" fill="#ececec"/>
        <path id="Path_1544" data-name="Path 1544" d="M92.006,247.013a19.006,19.006,0,1,1,19.006-19.006A19.028,19.028,0,0,1,92.006,247.013Z" transform="translate(-70.236 -209)" fill="#ececec" stroke="#4d777c" stroke-width="3"/>
      </g>
    </g>
  </g>
</svg>
