<svg xmlns="http://www.w3.org/2000/svg" width="161.196" height="160" viewBox="0 0 161.196 160">
  <g id="Group_3359" data-name="Group 3359" transform="translate(-66 -35.36)">
    <g id="Group_3273" data-name="Group 3273">
      <rect id="Rectangle_600" data-name="Rectangle 600" width="160" height="160" transform="translate(67 35.36)" fill="#fff" opacity="0"/>
      <g id="business-and-trade_2_" data-name="business-and-trade (2)" transform="translate(66 35.182)">
        <path id="Path_1861" data-name="Path 1861" d="M75.127,109.749H18.037A5.039,5.039,0,0,1,13,104.711V14.039a5.036,5.036,0,0,1,6.065-4.93L77.613,21.373a11.7,11.7,0,0,1,9.269,11.485V97.995A11.767,11.767,0,0,1,75.127,109.749Z" transform="translate(74.314 50.429)" fill="#6cc8c5"/>
        <path id="Path_1863" data-name="Path 1863" d="M87.516,11.542,13.7.326A11.9,11.9,0,0,0,4.164,2.945a12.01,12.01,0,0,0-4.164,9V153.462a6.736,6.736,0,0,0,6.716,6.716H28.545V124.916A11.724,11.724,0,0,1,40.3,113.163H57.09a11.724,11.724,0,0,1,11.754,11.754v35.261H97.389V23.162a11.761,11.761,0,0,0-9.873-11.62Z" transform="translate(0 0)" fill="#4d777c"/>
        <path id="Path_1864" data-name="Path 1864" d="M44.549,28.754V64.015H4.25V28.754A11.724,11.724,0,0,1,16,17H32.8A11.724,11.724,0,0,1,44.549,28.754Z" transform="translate(24.295 96.163)" fill="#ececec"/>
        <g id="Group_3400" data-name="Group 3400" transform="translate(21.829 27.528)">
          <path id="Path_1867" data-name="Path 1867" d="M18.362,17.325H8.287a5.037,5.037,0,0,1,0-10.075H18.362a5.037,5.037,0,1,1,0,10.075Z" transform="translate(-3.25 12.899)" fill="#ececec"/>
          <path id="Path_1868" data-name="Path 1868" d="M23.362,17.325H13.287a5.037,5.037,0,1,1,0-10.075H23.362a5.037,5.037,0,0,1,0,10.075Z" transform="translate(25.332 12.899)" fill="#ececec"/>
          <path id="Path_1869" data-name="Path 1869" d="M18.362,20.325H8.287a5.037,5.037,0,0,1,0-10.075H18.362a5.037,5.037,0,1,1,0,10.075Z" transform="translate(-3.25 30.049)" fill="#ececec"/>
          <path id="Path_1870" data-name="Path 1870" d="M23.362,20.325H13.287a5.037,5.037,0,0,1,0-10.075H23.362a5.037,5.037,0,0,1,0,10.075Z" transform="translate(25.332 30.049)" fill="#ececec"/>
          <path id="Path_1871" data-name="Path 1871" d="M18.362,23.325H8.287a5.037,5.037,0,0,1,0-10.075H18.362a5.037,5.037,0,0,1,0,10.075Z" transform="translate(-3.25 47.198)" fill="#ececec"/>
          <path id="Path_1872" data-name="Path 1872" d="M23.362,23.325H13.287a5.037,5.037,0,0,1,0-10.075H23.362a5.037,5.037,0,0,1,0,10.075Z" transform="translate(25.332 47.198)" fill="#ececec"/>
          <path id="Path_1873" data-name="Path 1873" d="M32.612,26.575H22.537a5.037,5.037,0,0,1,0-10.075H32.612a5.037,5.037,0,0,1,0,10.075Z" transform="translate(78.21 65.777)" fill="#ececec"/>
          <path id="Path_1874" data-name="Path 1874" d="M32.612,29.575H22.537a5.037,5.037,0,0,1,0-10.075H32.612a5.037,5.037,0,0,1,0,10.075Z" transform="translate(78.21 82.926)" fill="#ececec"/>
          <path id="Path_1875" data-name="Path 1875" d="M18.362,14.325H8.287a5.037,5.037,0,0,1,0-10.075H18.362a5.037,5.037,0,1,1,0,10.075Z" transform="translate(-3.25 -4.25)" fill="#ececec"/>
          <path id="Path_1876" data-name="Path 1876" d="M23.362,14.325H13.287a5.037,5.037,0,0,1,0-10.075H23.362a5.037,5.037,0,0,1,0,10.075Z" transform="translate(25.332 -4.25)" fill="#ececec"/>
          <path id="Path_1877" data-name="Path 1877" d="M32.612,23.575H22.537a5.037,5.037,0,0,1,0-10.075H32.612a5.037,5.037,0,0,1,0,10.075Z" transform="translate(78.21 48.627)" fill="#ececec"/>
        </g>
      </g>
    </g>
  </g>
</svg>
