<svg xmlns="http://www.w3.org/2000/svg" width="160" height="160" viewBox="0 0 160 160">
  <g id="Group_3475" data-name="Group 3475" transform="translate(-71 -35.36)">
    <rect id="Rectangle_600" data-name="Rectangle 600" width="160" height="160" transform="translate(71 35.36)" fill="#fff" opacity="0"/>
    <g id="folder_1_" data-name="folder (1)" transform="translate(71 19.818)">
      <path id="Path_1948" data-name="Path 1948" d="M120.365,251.195H16.183A16.183,16.183,0,0,1,0,235.012V147.748a4.8,4.8,0,0,1,4.8-4.8H28.892a4.8,4.8,0,0,1,3.593,1.618L41.551,154.8a5.383,5.383,0,0,0,4.03,1.814h69.4A5.384,5.384,0,0,1,120.365,162Z" transform="translate(0 -82.792)" fill="#396267"/>
      <path id="Path_1949" data-name="Path 1949" d="M237.815,151.239h-78.7a4.649,4.649,0,0,1-4.649-4.649V58.1a4.649,4.649,0,0,1,4.649-4.649h78.7a4.649,4.649,0,0,1,4.649,4.649v88.492A4.649,4.649,0,0,1,237.815,151.239Z" transform="translate(-106.214 -21.251)" fill="#6cc8c5"/>
      <path id="Path_1950" data-name="Path 1950" d="M277.3,120.334H198.6a4.649,4.649,0,0,1-4.649-4.649V27.192a4.649,4.649,0,0,1,4.649-4.649h78.7a4.649,4.649,0,0,1,4.649,4.649v88.492A4.649,4.649,0,0,1,277.3,120.334Z" transform="translate(-133.362 -0.001)" fill="#ececec"/>
      <path id="Path_1951" data-name="Path 1951" d="M442.617,22.542h-8.238a4.649,4.649,0,0,1,4.649,4.649v88.492a4.649,4.649,0,0,1-4.649,4.649h8.238a4.649,4.649,0,0,0,4.649-4.649V27.192A4.649,4.649,0,0,0,442.617,22.542Z" transform="translate(-298.683)" fill="#ececec"/>
      <path id="Path_1952" data-name="Path 1952" d="M125.106,313.7H16.183A16.183,16.183,0,0,1,0,297.513v-7.152l23.532-53.033a5.862,5.862,0,0,1,5.358-3.484H154.078a5.862,5.862,0,0,1,5.592,7.618l-19.126,60.9A16.182,16.182,0,0,1,125.106,313.7Z" transform="translate(0 -145.293)" fill="#4d777c"/>
      <path id="Path_1953" data-name="Path 1953" d="M409.972,233.844h-8.85a5.862,5.862,0,0,1,5.592,7.618l-19.126,60.9A16.183,16.183,0,0,1,372.149,313.7H381a16.182,16.182,0,0,0,15.439-11.334l19.126-60.9A5.862,5.862,0,0,0,409.972,233.844Z" transform="translate(-255.893 -145.293)" fill="#4d777c"/>
      <g id="Group_3456" data-name="Group 3456" transform="translate(72.166 36.533)">
        <g id="Group_3454" data-name="Group 3454">
          <path id="Path_1954" data-name="Path 1954" d="M240.875,72.157h-7.452a2.414,2.414,0,1,1,0-4.827h7.452a2.414,2.414,0,1,1,0,4.827Z" transform="translate(-231.01 -67.33)" fill="#b2b1bb"/>
        </g>
        <g id="Group_3455" data-name="Group 3455" transform="translate(17.162)">
          <path id="Path_1955" data-name="Path 1955" d="M331.213,72.157H288.361a2.414,2.414,0,1,1,0-4.827h42.852a2.414,2.414,0,1,1,0,4.827Z" transform="translate(-285.947 -67.33)" fill="#b2b1bb"/>
        </g>
      </g>
      <g id="Group_3459" data-name="Group 3459" transform="translate(72.166 48.567)">
        <g id="Group_3457" data-name="Group 3457">
          <path id="Path_1956" data-name="Path 1956" d="M240.875,110.678h-7.452a2.414,2.414,0,1,1,0-4.827h7.452a2.414,2.414,0,1,1,0,4.827Z" transform="translate(-231.01 -105.851)" fill="#b2b1bb"/>
        </g>
        <g id="Group_3458" data-name="Group 3458" transform="translate(17.162)">
          <path id="Path_1957" data-name="Path 1957" d="M331.213,110.678H288.361a2.414,2.414,0,1,1,0-4.827h42.852a2.414,2.414,0,1,1,0,4.827Z" transform="translate(-285.947 -105.851)" fill="#b2b1bb"/>
        </g>
      </g>
      <g id="Group_3462" data-name="Group 3462" transform="translate(72.166 60.601)">
        <g id="Group_3460" data-name="Group 3460">
          <path id="Path_1958" data-name="Path 1958" d="M240.875,149.2h-7.452a2.414,2.414,0,1,1,0-4.827h7.452a2.414,2.414,0,1,1,0,4.827Z" transform="translate(-231.01 -144.372)" fill="#b2b1bb"/>
        </g>
        <g id="Group_3461" data-name="Group 3461" transform="translate(17.162)">
          <path id="Path_1959" data-name="Path 1959" d="M331.213,149.2H288.361a2.414,2.414,0,1,1,0-4.827h42.852a2.414,2.414,0,1,1,0,4.827Z" transform="translate(-285.947 -144.372)" fill="#b2b1bb"/>
        </g>
      </g>
      <g id="Group_3465" data-name="Group 3465" transform="translate(72.166 72.634)">
        <g id="Group_3463" data-name="Group 3463">
          <path id="Path_1960" data-name="Path 1960" d="M240.875,187.72h-7.452a2.414,2.414,0,1,1,0-4.827h7.452a2.414,2.414,0,1,1,0,4.827Z" transform="translate(-231.01 -182.893)" fill="#b2b1bb"/>
        </g>
        <g id="Group_3464" data-name="Group 3464" transform="translate(17.162)">
          <path id="Path_1961" data-name="Path 1961" d="M331.213,187.72H288.361a2.414,2.414,0,1,1,0-4.827h42.852a2.414,2.414,0,1,1,0,4.827Z" transform="translate(-285.947 -182.893)" fill="#b2b1bb"/>
        </g>
      </g>
      <g id="Group_3466" data-name="Group 3466" transform="translate(89.327 150.186)">
        <path id="Path_1962" data-name="Path 1962" d="M312.876,435.971H288.361a2.414,2.414,0,0,1,0-4.827h24.516a2.414,2.414,0,0,1,0,4.827Z" transform="translate(-285.947 -431.144)" fill="#396267"/>
      </g>
    </g>
  </g>
</svg>
