<svg xmlns="http://www.w3.org/2000/svg" width="160" height="160" viewBox="0 0 160 160">
  <g id="Group_3474" data-name="Group 3474" transform="translate(-71 -35.36)">
    <rect id="Rectangle_600" data-name="Rectangle 600" width="160" height="160" transform="translate(71 35.36)" fill="#fff" opacity="0"/>
    <g id="email_2_" data-name="email (2)" transform="translate(71 27.692)">
      <path id="Path_1852" data-name="Path 1852" d="M163.418,17.833l-58.5,42.3-9.6,6.956a14.4,14.4,0,0,1-17.113,0l-9.6-6.956L10.027,17.9a17.294,17.294,0,0,1,14.122-7.235H149.366A17.392,17.392,0,0,1,163.418,17.833Z" transform="translate(-6.758 0)" fill="#5b868b"/>
      <g id="Group_3398" data-name="Group 3398" transform="translate(0 17.833)">
        <path id="Path_1853" data-name="Path 1853" d="M3.269,32.855,61.843,75.081,5.078,131.846A17.392,17.392,0,0,1,0,119.533V43.012A17.183,17.183,0,0,1,3.269,32.855Z" transform="translate(0 -32.786)" fill="#4d777c"/>
        <path id="Path_1854" data-name="Path 1854" d="M362.857,42.868V119.39a17.391,17.391,0,0,1-5.078,12.313L301.014,74.938l58.5-42.3A17.292,17.292,0,0,1,362.857,42.868Z" transform="translate(-202.857 -32.642)" fill="#4d777c"/>
      </g>
      <path id="Path_1855" data-name="Path 1855" d="M190.609,294.028c-4.619,0-6.956-3.478-6.956-10.435a17.6,17.6,0,1,0-4.237,11.249,12.4,12.4,0,0,0,11.193,6.142c13.913,0,13.913-13.092,13.913-17.391a38.261,38.261,0,1,0-11.659,27.5,3.49,3.49,0,0,0-4.869-5h0a31.3,31.3,0,1,1,9.572-22.5C197.565,291.392,195.812,294.028,190.609,294.028Zm-24.348,0A10.435,10.435,0,1,1,176.7,283.594,10.435,10.435,0,0,1,166.261,294.028Z" transform="translate(-86.261 -158.143)" fill="#6cc8c5"/>
      <path id="Path_1856" data-name="Path 1856" d="M108.652,162.348l-9.6,6.956a14.4,14.4,0,0,1-17.113,0l-9.6-6.956L15.574,219.113a17.39,17.39,0,0,0,12.313,5.078H45.452a45.169,45.169,0,0,1,90.08,0H153.1a17.391,17.391,0,0,0,12.313-5.078Z" transform="translate(-10.496 -102.219)" fill="#396267"/>
    </g>
  </g>
</svg>
