<svg xmlns="http://www.w3.org/2000/svg" width="160" height="160" viewBox="0 0 160 160">
  <g id="Group_3361" data-name="Group 3361" transform="translate(-66 -35.36)">
    <g id="Group_3275" data-name="Group 3275">
      <rect id="Rectangle_600" data-name="Rectangle 600" width="160" height="160" transform="translate(66 35.36)" fill="#fff" opacity="0"/>
      <g id="task_2_" data-name="task (2)" transform="translate(66 35.36)">
        <g id="Group_3415" data-name="Group 3415" transform="translate(38.125 21.177)">
          <g id="Group_3414" data-name="Group 3414">
            <path id="Path_1916" data-name="Path 1916" d="M122,67.766v91.3a9.091,9.091,0,0,0,9.081,9.081H234.794a9.092,9.092,0,0,0,9.081-9.082v-91.3Z" transform="translate(-122 -67.766)" fill="#4d777c"/>
          </g>
        </g>
        <path id="Path_1917" data-name="Path 1917" d="M317,67.766V168.152h51.856a9.092,9.092,0,0,0,9.081-9.082v-91.3Z" transform="translate(-217.938 -46.589)" fill="#4d777c"/>
        <path id="Path_1918" data-name="Path 1918" d="M219.507,0H131.081A9.091,9.091,0,0,0,122,9.081V23.438h97.507Z" transform="translate(-83.875)" fill="#396267"/>
        <g id="Group_3417" data-name="Group 3417" transform="translate(5.078 79.928)">
          <g id="Group_3416" data-name="Group 3416" transform="translate(0 0)">
            <ellipse id="Ellipse_92" data-name="Ellipse 92" cx="37.5" cy="38" rx="37.5" ry="38" transform="translate(-0.078 0.072)" fill="#fff4f4"/>
          </g>
        </g>
        <path id="Path_1919" data-name="Path 1919" d="M136,257.012V332a37.5,37.5,0,0,0,0-74.992Z" transform="translate(-93.5 -176.696)" fill="#f6efea" fill-rule="evenodd"/>
        <g id="Group_3420" data-name="Group 3420" transform="translate(6.113 73.564)">
          <g id="Group_3419" data-name="Group 3419">
            <g id="Group_3418" data-name="Group 3418">
              <path id="Path_1920" data-name="Path 1920" d="M29.078,251.529a4.682,4.682,0,0,1-3.817-1.962l-4.824-6.748a4.688,4.688,0,0,1,7.627-5.452l4.824,6.748a4.688,4.688,0,0,1-3.809,7.414Z" transform="translate(-19.562 -235.406)" fill="#6cc8c5"/>
            </g>
          </g>
        </g>
        <g id="Group_3423" data-name="Group 3423" transform="translate(1.81 70.35)">
          <g id="Group_3422" data-name="Group 3422">
            <g id="Group_3421" data-name="Group 3421">
              <path id="Path_1921" data-name="Path 1921" d="M10.486,240.038A4.688,4.688,0,0,1,7.81,231.5l7.99-5.541a4.688,4.688,0,0,1,5.343,7.7l-7.99,5.541a4.668,4.668,0,0,1-2.667.836Z" transform="translate(-5.793 -225.121)" fill="#6cc8c5"/>
            </g>
          </g>
        </g>
        <path id="Path_1922" data-name="Path 1922" d="M115.188,194h-17.5a4.688,4.688,0,0,0,0,9.375h4.079c-.008.107-.016.215-.016.324v7.562a4.688,4.688,0,1,0,9.375,0V203.7c0-.109-.009-.217-.016-.324h4.079a4.688,4.688,0,0,0,0-9.375Z" transform="translate(-63.937 -133.376)" fill="#6cc8c5"/>
        <g id="Group_3424" data-name="Group 3424" transform="translate(66.875 37.579)">
          <path id="Path_1923" data-name="Path 1923" d="M221.541,136.425a4.672,4.672,0,0,1-3.314-1.373l-2.853-2.853a4.688,4.688,0,0,1,6.135-7.059l3.513-3.513a4.687,4.687,0,1,1,6.629,6.629l-6.8,6.8A4.673,4.673,0,0,1,221.541,136.425Z" transform="translate(-214 -120.254)" fill="#ececec"/>
        </g>
        <path id="Path_1924" data-name="Path 1924" d="M144.75,194H136V215.95a4.688,4.688,0,0,0,4.688-4.688V203.7c0-.109-.009-.217-.016-.324h4.079a4.688,4.688,0,1,0,0-9.375Z" transform="translate(-93.5 -133.376)" fill="#6cc8c5"/>
        <g id="Group_3425" data-name="Group 3425" transform="translate(95.313 40.977)">
          <path id="Path_1925" data-name="Path 1925" d="M344.063,140.5H309.688a4.688,4.688,0,0,1,0-9.375h34.375a4.688,4.688,0,0,1,0,9.375Z" transform="translate(-305 -131.127)" fill="#ececec"/>
        </g>
        <g id="Group_3428" data-name="Group 3428" transform="translate(66.875 63.125)">
          <g id="Group_3427" data-name="Group 3427">
            <g id="Group_3426" data-name="Group 3426">
              <path id="Path_1926" data-name="Path 1926" d="M221.541,218.171a4.672,4.672,0,0,1-3.314-1.373l-2.853-2.853a4.688,4.688,0,0,1,6.135-7.059l3.513-3.513A4.687,4.687,0,1,1,231.651,210l-6.8,6.8A4.673,4.673,0,0,1,221.541,218.171Z" transform="translate(-214 -202)" fill="#ececec"/>
            </g>
          </g>
        </g>
        <g id="Group_3430" data-name="Group 3430" transform="translate(95.313 63.125)">
          <g id="Group_3429" data-name="Group 3429">
            <path id="Path_1927" data-name="Path 1927" d="M344.063,211.376H309.688a4.687,4.687,0,0,1,0-9.375h34.375a4.688,4.688,0,0,1,0,9.375Z" transform="translate(-305 -202.001)" fill="#ececec"/>
          </g>
        </g>
        <g id="Group_3432" data-name="Group 3432" transform="translate(95.313 81.875)">
          <g id="Group_3431" data-name="Group 3431">
            <path id="Path_1928" data-name="Path 1928" d="M326.875,271.375H309.688a4.687,4.687,0,1,1,0-9.375h17.187a4.688,4.688,0,1,1,0,9.375Z" transform="translate(-305 -262)" fill="#ececec"/>
          </g>
        </g>
        <g id="Group_3434" data-name="Group 3434" transform="translate(37.5 75.625)">
          <g id="Group_3433" data-name="Group 3433">
            <path id="Path_1929" data-name="Path 1929" d="M124.688,257.54A4.688,4.688,0,0,1,120,252.853v-6.165a4.688,4.688,0,0,1,9.375,0v6.165A4.688,4.688,0,0,1,124.688,257.54Z" transform="translate(-120 -242)" fill="#396267"/>
          </g>
        </g>
        <g id="Group_3436" data-name="Group 3436" transform="translate(68.835 113.125)">
          <g id="Group_3435" data-name="Group 3435">
            <path id="Path_1930" data-name="Path 1930" d="M231.124,371.375h-6.165a4.688,4.688,0,0,1,0-9.375h6.165a4.688,4.688,0,0,1,0,9.375Z" transform="translate(-220.271 -362)" fill="#396267"/>
          </g>
        </g>
        <path id="Path_1931" data-name="Path 1931" d="M136,242.051v15.508a4.684,4.684,0,0,0,4.375-4.672v-6.165A4.684,4.684,0,0,0,136,242.051Z" transform="translate(-93.5 -166.41)" fill="#396267"/>
        <g id="Group_3437" data-name="Group 3437" transform="translate(37.5 144.46)">
          <path id="Path_1932" data-name="Path 1932" d="M124.688,477.811A4.688,4.688,0,0,1,120,473.124v-6.165a4.688,4.688,0,0,1,9.375,0v6.165A4.688,4.688,0,0,1,124.688,477.811Z" transform="translate(-120 -462.271)" fill="#396267"/>
        </g>
        <path id="Path_1933" data-name="Path 1933" d="M136,462.322V477.83a4.684,4.684,0,0,0,4.375-4.672v-6.165A4.684,4.684,0,0,0,136,462.322Z" transform="translate(-93.5 -317.846)" fill="#396267"/>
        <g id="Group_3439" data-name="Group 3439" transform="translate(0 113.125)">
          <g id="Group_3438" data-name="Group 3438">
            <path id="Path_1934" data-name="Path 1934" d="M10.853,371.375H4.688a4.688,4.688,0,0,1,0-9.375h6.165a4.688,4.688,0,0,1,0,9.375Z" transform="translate(0 -362)" fill="#396267"/>
          </g>
        </g>
        <g id="Group_3441" data-name="Group 3441" transform="translate(59.657 86.609)">
          <g id="Group_3440" data-name="Group 3440">
            <path id="Path_1935" data-name="Path 1935" d="M195.59,290.882a4.688,4.688,0,0,1-3.315-8l4.36-4.359a4.687,4.687,0,0,1,6.629,6.629l-4.36,4.359A4.672,4.672,0,0,1,195.59,290.882Z" transform="translate(-190.902 -277.147)" fill="#396267"/>
          </g>
        </g>
        <g id="Group_3443" data-name="Group 3443" transform="translate(59.657 135.282)">
          <g id="Group_3442" data-name="Group 3442">
            <path id="Path_1936" data-name="Path 1936" d="M199.95,446.638a4.672,4.672,0,0,1-3.314-1.373l-4.36-4.359a4.687,4.687,0,0,1,6.629-6.629l4.36,4.359a4.688,4.688,0,0,1-3.315,8Z" transform="translate(-190.902 -432.903)" fill="#396267"/>
          </g>
        </g>
        <g id="Group_3445" data-name="Group 3445" transform="translate(10.984 135.282)">
          <g id="Group_3444" data-name="Group 3444">
            <path id="Path_1937" data-name="Path 1937" d="M39.835,446.638a4.688,4.688,0,0,1-3.314-8l4.359-4.359a4.687,4.687,0,0,1,6.629,6.629l-4.359,4.359a4.673,4.673,0,0,1-3.315,1.373Z" transform="translate(-35.147 -432.903)" fill="#396267"/>
          </g>
        </g>
        <g id="Group_3447" data-name="Group 3447" transform="translate(10.984 86.609)">
          <g id="Group_3446" data-name="Group 3446">
            <path id="Path_1938" data-name="Path 1938" d="M44.2,290.882a4.672,4.672,0,0,1-3.314-1.373l-4.359-4.359a4.687,4.687,0,1,1,6.629-6.629l4.359,4.359a4.688,4.688,0,0,1-3.315,8Z" transform="translate(-35.148 -277.148)" fill="#396267"/>
          </g>
        </g>
        <g id="Group_3450" data-name="Group 3450" transform="translate(37.5 99.29)">
          <g id="Group_3449" data-name="Group 3449">
            <g id="Group_3448" data-name="Group 3448">
              <path id="Path_1939" data-name="Path 1939" d="M133.594,349.845a4.672,4.672,0,0,1-3.314-1.373l-8.906-8.906A4.686,4.686,0,0,1,120,336.251V322.417a4.688,4.688,0,1,1,9.375,0V334.31l7.533,7.533a4.687,4.687,0,0,1-3.315,8Z" transform="translate(-120 -317.729)" fill="#6cc8c5"/>
            </g>
          </g>
        </g>
        <path id="Path_1940" data-name="Path 1940" d="M447.757,0H431.765V23.438h25.073V9.081A9.091,9.091,0,0,0,447.757,0Z" transform="translate(-296.838)" fill="#396267"/>
        <g id="Group_3452" data-name="Group 3452" transform="translate(0 75.625)">
          <g id="Group_3451" data-name="Group 3451">
            <path id="Path_1941" data-name="Path 1941" d="M42.188,326.375a42.188,42.188,0,1,1,42.188-42.187A42.235,42.235,0,0,1,42.188,326.375Zm0-75A32.813,32.813,0,1,0,75,284.188,32.85,32.85,0,0,0,42.188,251.375Z" transform="translate(0 -242)" fill="#396267"/>
          </g>
        </g>
        <path id="Path_1942" data-name="Path 1942" d="M136,242.013v9.375A32.81,32.81,0,0,1,136,317v9.375a42.185,42.185,0,0,0,0-84.367Z" transform="translate(-93.5 -166.384)" fill="#396267"/>
        <g id="Group_3453" data-name="Group 3453" transform="translate(99.063 40.977)">
          <path id="Path_1943" data-name="Path 1943" d="M352.312,131.127H317.937a4.7,4.7,0,0,0-.937.094v9.187a4.7,4.7,0,0,0,.937.094h34.375a4.687,4.687,0,1,0,0-9.375Z" transform="translate(-317 -131.127)" fill="#ececec"/>
          <path id="Path_1944" data-name="Path 1944" d="M352.312,202H317.937a4.7,4.7,0,0,0-.937.094v9.187a4.7,4.7,0,0,0,.937.094h34.375a4.688,4.688,0,1,0,0-9.375Z" transform="translate(-317 -179.853)" fill="#ececec"/>
          <path id="Path_1945" data-name="Path 1945" d="M335.125,262H317.937a4.7,4.7,0,0,0-.937.094v9.187a4.7,4.7,0,0,0,.937.094h17.188a4.687,4.687,0,1,0,0-9.375Z" transform="translate(-317 -221.102)" fill="#ececec"/>
        </g>
        <path id="Path_1946" data-name="Path 1946" d="M317,0h36.569V23.438H317Z" transform="translate(-217.938)" fill="#396267"/>
        <path id="Path_1947" data-name="Path 1947" d="M147.908,341.877l-7.533-7.533V322.451A4.684,4.684,0,0,0,136,317.779v25.448l5.279,5.279a4.687,4.687,0,0,0,6.629-6.629Z" transform="translate(-93.5 -218.473)" fill="#6cc8c5"/>
      </g>
    </g>
  </g>
</svg>
