<svg xmlns="http://www.w3.org/2000/svg" width="160" height="160" viewBox="0 0 160 160">
  <g id="Group_34122" data-name="Group 34122" transform="translate(-65 -35.36)">
    <g id="Group_3274" data-name="Group 3274">
      <rect id="Rectangle_600" data-name="Rectangle 600" width="160" height="160" transform="translate(65 35.36)" fill="#fff" opacity="0"/>
      <g id="_19-mail" data-name="19-mail" transform="translate(50.556 31.359)">
        <g id="gradient" transform="translate(20 4.001)">
          <path id="Path_1990" data-name="Path 1990" d="M168.725,76.227,97.614,5.116a3.81,3.81,0,0,0-5.387,0L21.116,76.227A3.81,3.81,0,0,0,20,78.921v81.27A3.81,3.81,0,0,0,23.81,164H166.031a3.809,3.809,0,0,0,3.81-3.81V78.921a3.809,3.809,0,0,0-1.116-2.694Z" transform="translate(-20 -4.001)" fill="#396267"/>
          <rect id="Rectangle_638" data-name="Rectangle 638" width="109" height="127" rx="12" transform="translate(20.444 15)" fill="#ececec"/>
          <path id="Path_1991" data-name="Path 1991" d="M214.741,132.065l-5.15-.637-1.723-4.161,3.191-4.092a1.9,1.9,0,0,0-.155-2.518l-9.148-9.148a1.9,1.9,0,0,0-2.518-.156l-4.092,3.191-4.161-1.724-.637-5.15a1.9,1.9,0,0,0-1.89-1.671H175.52a1.9,1.9,0,0,0-1.89,1.671l-.637,5.149-4.161,1.724-4.092-3.191a1.9,1.9,0,0,0-2.518.156l-9.148,9.148a1.9,1.9,0,0,0-.155,2.518l3.191,4.092-1.723,4.162-5.15.637a1.9,1.9,0,0,0-1.671,1.89v12.937a1.9,1.9,0,0,0,1.671,1.89l5.15.637,1.723,4.161-3.191,4.092a1.9,1.9,0,0,0,.155,2.518l9.148,9.148a1.9,1.9,0,0,0,2.518.155l4.092-3.191,4.161,1.724.637,5.15a1.9,1.9,0,0,0,1.89,1.671h12.937a1.9,1.9,0,0,0,1.89-1.671l.637-5.149,4.161-1.724,4.092,3.191a1.9,1.9,0,0,0,2.518-.155l9.148-9.15a1.9,1.9,0,0,0,.155-2.518l-3.191-4.092,1.723-4.161,5.15-.637a1.9,1.9,0,0,0,1.671-1.89V133.956a1.9,1.9,0,0,0-1.671-1.891Zm-20.055,8.358a12.689,12.689,0,1,1-3.719-8.979A12.689,12.689,0,0,1,194.686,140.423Z" transform="translate(-107.068 -73.619)" fill="#6cc8c5"/>
          <path id="Path_1992" data-name="Path 1992" d="M94.92,288.505S20,238.491,20,239.934V321.2a3.81,3.81,0,0,0,3.81,3.81H166.031a3.81,3.81,0,0,0,3.81-3.81v-81.27C169.841,238.491,94.92,288.505,94.92,288.505Z" transform="translate(-20 -165.014)" fill="#4d777c"/>
          <path id="Path_1993" data-name="Path 1993" d="M105.023,348.553a3.812,3.812,0,0,0-3.954,0s-70.842,50.241-69.134,50.241H174.156C175.865,398.794,105.023,348.553,105.023,348.553Z" transform="translate(-28.125 -238.794)" fill="#598a90"/>
        </g>
      </g>
    </g>
  </g>
</svg>
