<svg xmlns="http://www.w3.org/2000/svg" width="160" height="160" viewBox="0 0 160 160">
  <g id="Group_3271" data-name="Group 3271" transform="translate(-66 -35.659)">
    <rect id="Rectangle_604" data-name="Rectangle 604" width="160" height="160" transform="translate(66 35.659)" fill="#fff" opacity="0"/>
    <g id="Group_3208" data-name="Group 3208" transform="translate(73 33.5)">
      <path id="Path_1375" data-name="Path 1375" d="M116.925,48.226l4.015-10.54A3.5,3.5,0,0,0,117.762,33H68.743L58.2,59.435l-2.175-18.57h1.506a1.676,1.676,0,0,0,1.673-1.673V34.173A1.676,1.676,0,0,0,57.534,32.5h-8.2a1.676,1.676,0,0,0-1.673,1.673v5.019a1.676,1.676,0,0,0,1.673,1.673h1.506l-2.175,18.57L38.3,33.5A23.134,23.134,0,0,0,20.227,53.579L17.216,81.853a5.232,5.232,0,0,0,4.35,5.855c3.011.669,7.194,1.171,11.376,1.673l2.677,45a7.042,7.042,0,0,0,7.194,6.692H64.561a7.278,7.278,0,0,0,7.194-6.692L75.435,57.26A6.927,6.927,0,0,1,82.462,50.4h31.452A3.385,3.385,0,0,0,116.925,48.226Z" transform="translate(0 20.189)" fill="#4d777c"/>
      <circle id="Ellipse_63" data-name="Ellipse 63" cx="22.92" cy="22.92" r="22.92" transform="translate(30.432 2.5)" fill="#4d777c"/>
      <path id="Path_1376" data-name="Path 1376" d="M79.1,51.7A18.83,18.83,0,0,0,69.9,87v8.532a1.807,1.807,0,0,0,.5,1.171l5.521,5.521-4.852,4.852a1.426,1.426,0,0,0,0,2.175l4.852,4.684-4.852,4.852a1.429,1.429,0,0,0,0,2.175l7.026,7.026a1.426,1.426,0,0,0,2.175,0l7.7-7.7a1.519,1.519,0,0,0,.5-1.171V87a18.6,18.6,0,0,0,9.7-16.4A19.028,19.028,0,0,0,79.1,51.7Zm0,17.566a5.354,5.354,0,1,1,5.354-5.354A5.285,5.285,0,0,1,79.1,69.266Z" transform="translate(28.954 33.11)" fill="#6cc8c5"/>
      <rect id="Rectangle_573" data-name="Rectangle 573" width="12" height="8" rx="2" transform="translate(47.5 52.8)" fill="#396267"/>
      <path id="Path_1445" data-name="Path 1445" d="M50.914,60.1,48.743,79.871l4.267,6.782,5.1-6.782L55.714,60.1Z" fill="#396267"/>
    </g>
  </g>
</svg>
