<svg xmlns="http://www.w3.org/2000/svg" xmlns:xlink="http://www.w3.org/1999/xlink" width="309" height="309" viewBox="0 0 309 309">
  <defs>
    <filter id="Rectangle_493" x="0" y="0" width="309" height="309" filterUnits="userSpaceOnUse">
      <feOffset dy="2" input="SourceAlpha"/>
      <feGaussianBlur stdDeviation="3" result="blur"/>
      <feFlood flood-opacity="0.161"/>
      <feComposite operator="in" in2="blur"/>
      <feComposite in="SourceGraphic"/>
    </filter>
  </defs>
  <g id="Group_3066" data-name="Group 3066" transform="translate(-648 -226)">
    <g transform="matrix(1, 0, 0, 1, 648, 226)" filter="url(#Rectangle_493)">
      <rect id="Rectangle_493-2" data-name="Rectangle 493" width="291" height="291" transform="translate(9 7)" fill="#fff" opacity="0"/>
    </g>
    <g id="noun_pay_1646592" transform="translate(652.742 240)">
      <path id="Path_1132" data-name="Path 1132" d="M208.355,51.3l-32.01-12.125c-5.335-1.94-11.155-.485-15.52,3.4L114.75,88.649,34.725,45.484a14.273,14.273,0,0,0-14.55.485A14.473,14.473,0,0,0,12.9,58.579v7.275a14.473,14.473,0,0,0,7.275,12.61l108.64,63.05a13.687,13.687,0,0,0,7.275,1.94,21.345,21.345,0,0,0,4.85-.97l67.415-23.28h42.68V51.3Zm-70.325,81.48c-1.455.485-2.91.485-3.88-.485L25.51,69.249a5.093,5.093,0,0,1-2.425-4.365V57.609a4.843,4.843,0,0,1,2.425-4.365,3.634,3.634,0,0,1,2.425-.485,5.273,5.273,0,0,1,2.425.485l104.76,56.745L171.495,83.8l-5.82-7.76L134.15,98.349l-10.67-5.82,43.65-43.65a4.427,4.427,0,0,1,5.335-.97L202.05,59.064v51.41Zm103.3-23.28h-29.1V61h29.1Z" transform="translate(44.223 128.296)" fill="#4d777c"/>
      <rect id="Rectangle_544" data-name="Rectangle 544" width="9" height="17" transform="translate(265.258 199.906)" fill="#4d777c"/>
      <path id="Path_1133" data-name="Path 1133" d="M93.66,72.765a13.606,13.606,0,0,1-9.215-3.395L45.16,38.33H18v-9.7H49.04L91.235,62.1c.97.97,2.425.97,3.88.97s2.425-.97,3.4-1.94l1.94-3.4c1.455-1.94.97-4.85-.97-6.79L58.255,17.96l5.82-7.76L105.3,43.18a14,14,0,0,1,2.425,19.885l-2.425,3.88a13.754,13.754,0,0,1-9.7,5.82Z" transform="translate(63.858 20.02)" fill="#4d777c"/>
      <rect id="Rectangle_545" data-name="Rectangle 545" width="10" height="20" transform="translate(24.259 23.906)" fill="#4d777c"/>
      <path id="Path_1134" data-name="Path 1134" d="M52.4,61.8A19.4,19.4,0,1,1,71.8,42.4,19.457,19.457,0,0,1,52.4,61.8Zm0-29.1a9.7,9.7,0,1,0,9.7,9.7A9.729,9.729,0,0,0,52.4,32.7Z" transform="translate(121.608 69.3)" fill="#4d777c"/>
      <path id="Path_1135" data-name="Path 1135" d="M157.8,87.9H31.7V83.05a4.582,4.582,0,0,0-4.85-4.85H22V29.7h4.85a4.582,4.582,0,0,0,4.85-4.85V20H46.25v9.7H40.43a14.171,14.171,0,0,1-8.73,8.73V68.985a14.171,14.171,0,0,1,8.73,8.73H148.585a14.171,14.171,0,0,1,8.73-8.73V38.43a14.171,14.171,0,0,1-8.73-8.73H104.45V20H157.8v4.85a4.582,4.582,0,0,0,4.85,4.85h4.85V78.2h-4.85a4.582,4.582,0,0,0-4.85,4.85Z" transform="translate(79.258 57.75)" fill="#4d777c"/>
      <path id="Path_1136" data-name="Path 1136" d="M207.64,63.2l-64.02-54.8A15.312,15.312,0,0,0,134.405,5H2V77.75H43.71l30.07,25.705c2.425,2.425,5.82,3.4,9.7,3.4h.97V160.2h174.6v-97ZM40.8,68.05H11.7V14.7H40.8ZM249.35,150.5H94.15V72.9h9.7V63.2H84.45V97.15H83a8.992,8.992,0,0,1-3.4-.97l-29.1-25.7V14.7h83.905a8.992,8.992,0,0,1,3.395.97L192.605,63.2H181.45v9.7h67.9Z" transform="translate(2.258 0)" fill="#4d777c"/>
    </g>
  </g>
</svg>
