<svg xmlns="http://www.w3.org/2000/svg" xmlns:xlink="http://www.w3.org/1999/xlink" width="309" height="309" viewBox="0 0 309 309">
  <defs>
    <filter id="Rectangle_492" x="0" y="0" width="309" height="309" filterUnits="userSpaceOnUse">
      <feOffset dy="2" input="SourceAlpha"/>
      <feGaussianBlur stdDeviation="3" result="blur"/>
      <feFlood flood-opacity="0.161"/>
      <feComposite operator="in" in2="blur"/>
      <feComposite in="SourceGraphic"/>
    </filter>
  </defs>
  <g id="Group_3063" data-name="Group 3063" transform="translate(-333 -226)">
    <g transform="matrix(1, 0, 0, 1, 333, 226)" filter="url(#Rectangle_492)">
      <rect id="Rectangle_492-2" data-name="Rectangle 492" width="291" height="291" transform="translate(9 7)" fill="#fff" opacity="0"/>
    </g>
    <g id="Group_3059" data-name="Group 3059" transform="translate(339.5 237.7)">
      <path id="Path_1108" data-name="Path 1108" d="M21.132,43.1,36.464,27.765V98.6a6.421,6.421,0,0,0,6.133,6.439A6.224,6.224,0,0,0,48.73,98.6V27.765L64.062,43.1a5.928,5.928,0,0,0,8.586,0,6.292,6.292,0,0,0,0-8.893L46.583,8.14a6.292,6.292,0,0,0-8.893,0L12.24,34.2A6.288,6.288,0,0,0,21.132,43.1Z" transform="translate(16.324)" fill="#4d777c"/>
      <path id="Path_1109" data-name="Path 1109" d="M227.573,101.846a60.8,60.8,0,0,0-10.732.92v-50.6c0-17.478-28.517-26.371-56.728-26.371S103.384,35,103.384,52.171V90.807c-11.039-6.133-27.6-9.2-44.156-9.2-28.211,0-56.728,9.2-56.728,26.371v55.808c0,17.478,28.517,26.371,56.728,26.371,20.238,0,40.476-4.6,50.289-13.8,9.812,8.893,30.357,13.8,50.289,13.8,1.84,0,3.373-.307,5.213-.307a66.107,66.107,0,1,0,62.554-88.005ZM103.384,163.787c0,4.906-16.865,13.8-44.156,13.8s-44.156-8.893-44.156-13.8V153.055c11.039,6.133,27.6,9.2,44.156,9.2s33.117-3.066,44.156-9.2Zm0-27.9c0,4.906-16.865,13.8-44.156,13.8s-44.156-8.893-44.156-13.8V125.151c11.039,6.133,27.6,9.2,44.156,9.2s33.117-3.066,44.156-9.2ZM59.228,121.778c-27.291,0-44.156-8.893-44.156-13.8s16.865-13.8,44.156-13.8,44.156,8.893,44.156,13.8S86.519,121.778,59.228,121.778ZM160.112,38.066c27.291,0,44.156,8.893,44.156,13.8s-16.865,13.8-44.156,13.8-44.156-8.893-44.156-13.8S132.515,38.066,160.112,38.066ZM115.956,69.343c11.039,6.133,27.6,9.2,44.156,9.2s33.117-3.066,44.156-9.2V80.075c0,4.906-16.865,13.8-44.156,13.8s-44.156-8.893-44.156-13.8Zm0,27.9c11.039,6.133,27.6,9.2,44.156,9.2s33.117-3.066,44.156-9.2v8.893A69.935,69.935,0,0,0,182.5,119.631a96.074,96.074,0,0,1-22.385,2.453c-27.291,0-44.156-8.893-44.156-13.8V97.247Zm0,27.9c11.039,6.133,27.6,9.2,44.156,9.2,3.68,0,7.359-.307,10.732-.613a58.884,58.884,0,0,0-6.746,15.639c-1.227,0-2.453.307-3.986.307-27.291,0-44.156-8.893-44.156-13.8Zm44.156,52.742c-27.291,0-44.156-8.893-44.156-13.8V153.362c11.039,6.133,27.6,9.2,44.156,9.2h1.533a33.329,33.329,0,0,0-.307,5.52,53.139,53.139,0,0,0,.92,9.812A5.01,5.01,0,0,0,160.112,177.893Zm67.461,43.543a53.662,53.662,0,1,1,53.662-53.662A53.721,53.721,0,0,1,227.573,221.435Z" transform="translate(0 40.295)" fill="#4d777c"/>
      <path id="Path_1110" data-name="Path 1110" d="M87.1,81.178h8.586A5.822,5.822,0,0,1,101.517,87h12.572A18.293,18.293,0,0,0,97.531,68.912V59.1H84.958v9.812A18.286,18.286,0,0,0,86.8,105.4h8.586a5.822,5.822,0,0,1,5.826,5.826,5.565,5.565,0,0,1-5.52,5.826H87.1a5.822,5.822,0,0,1-5.826-5.826H68.707A18.293,18.293,0,0,0,85.265,129.32v9.506H97.837V129.32A18.286,18.286,0,0,0,96,92.83H87.412A5.83,5.83,0,0,1,87.1,81.178Z" transform="translate(136.175 109.105)" fill="#4d777c"/>
    </g>
  </g>
</svg>
