<svg xmlns="http://www.w3.org/2000/svg" xmlns:xlink="http://www.w3.org/1999/xlink" width="309" height="309" viewBox="0 0 309 309">
  <defs>
    <filter id="Rectangle_500" x="0" y="0" width="309" height="309" filterUnits="userSpaceOnUse">
      <feOffset dy="2" input="SourceAlpha"/>
      <feGaussianBlur stdDeviation="3" result="blur"/>
      <feFlood flood-opacity="0.161"/>
      <feComposite operator="in" in2="blur"/>
      <feComposite in="SourceGraphic"/>
    </filter>
  </defs>
  <g id="Group_3071" data-name="Group 3071" transform="translate(-963 -540)">
    <g transform="matrix(1, 0, 0, 1, 963, 540)" filter="url(#Rectangle_500)">
      <rect id="Rectangle_500-2" data-name="Rectangle 500" width="291" height="291" transform="translate(9 7)" fill="#fff" opacity="0"/>
    </g>
    <g id="noun_tax_2770718" transform="translate(969.73 546)">
      <g id="Group_3062" data-name="Group 3062" transform="translate(2.27 1)">
        <path id="Path_1124" data-name="Path 1124" d="M58.964,37.954l9.129-2.192A61.378,61.378,0,0,0,64.69,25.6l-8.608,3.76A50.649,50.649,0,0,1,58.964,37.954Z" transform="translate(202.448 89.865)" fill="#4d777c"/>
        <path id="Path_1125" data-name="Path 1125" d="M90.855,33.966v.972A51.455,51.455,0,0,1,47.834,85.848l1.558,9.26a60.831,60.831,0,0,0,50.85-60.171v-.972c0-1.347-.047-2.689-.131-4.032l-9.368.624C90.818,31.689,90.855,32.83,90.855,33.966Z" transform="translate(171.984 105.869)" fill="#4d777c"/>
        <path id="Path_1126" data-name="Path 1126" d="M273.512,89.75,246.064,56.82l15.3-26.777a18.871,18.871,0,0,0,2.474-9.317v-.953A18.793,18.793,0,0,0,245.064,1c-6.242,0-9.556,3.792-11.753,6.3-2.046,2.333-2.863,3.088-4.689,3.088s-2.642-.756-4.694-3.093C221.733,4.788,218.419,1,212.181,1s-9.547,3.792-11.743,6.3c-2.037,2.333-2.854,3.088-4.675,3.088s-2.633-.756-4.67-3.088C188.9,4.792,185.588,1,179.355,1a18.793,18.793,0,0,0-18.774,18.774v.953a18.841,18.841,0,0,0,2.473,9.312l15.3,26.777L167.663,69.643A79.621,79.621,0,0,0,78.9,188.69L66.71,200.879l-4.4-4.4L11.889,238.484a30.267,30.267,0,1,0,42.627,42.632L96.523,230.7l-4.4-4.407L104.31,214.1a79.356,79.356,0,0,0,80.325,2.464A79.526,79.526,0,0,0,292,141.806v-.972A80,80,0,0,0,273.512,89.75ZM169.968,20.727v-.953a9.4,9.4,0,0,1,9.387-9.387c1.821,0,2.633.756,4.67,3.088,2.192,2.506,5.506,6.3,11.739,6.3s9.547-3.792,11.743-6.3c2.042-2.333,2.854-3.088,4.675-3.088s2.638.756,4.689,3.088c2.2,2.506,5.51,6.3,11.753,6.3s9.551-3.788,11.748-6.294c2.051-2.337,2.863-3.093,4.694-3.093a9.4,9.4,0,0,1,9.387,9.387v.953a9.38,9.38,0,0,1-1.239,4.656L237.649,52.629H186.771L171.2,25.383A9.412,9.412,0,0,1,169.968,20.727ZM47.3,275.1a20.875,20.875,0,1,1-29.4-29.4L61.73,209.173l22.1,22.1Zm38.182-55.445L73.346,207.516,84.39,196.472A80.426,80.426,0,0,0,96.528,208.61ZM76.1,146.5a70.4,70.4,0,1,1,70.4,70.4A70.483,70.483,0,0,1,76.1,146.5Zm206.516-4.694a70.091,70.091,0,0,1-87.882,68.108A79.647,79.647,0,0,0,177.205,72.872l9.044-10.856h51.92l28.124,33.742a70.551,70.551,0,0,1,16.319,45.077Z" transform="translate(-1 -1)" fill="#4d777c"/>
        <path id="Path_1127" data-name="Path 1127" d="M80.016,19a61.016,61.016,0,1,0,61.016,61.016A61.087,61.087,0,0,0,80.016,19Zm0,112.645a51.629,51.629,0,1,1,51.629-51.629A51.69,51.69,0,0,1,80.016,131.645Z" transform="translate(65.484 65.484)" fill="#4d777c"/>
        <path id="Path_1128" data-name="Path 1128" d="M46.774,41.774a9.4,9.4,0,0,1,9.387,9.387h9.387A18.749,18.749,0,0,0,51.468,33.054V23H42.081v9.387H28V51.161A18.793,18.793,0,0,0,46.774,69.935a9.4,9.4,0,0,1,9.387,9.387V88.71H46.774a9.4,9.4,0,0,1-9.387-9.387H28A18.749,18.749,0,0,0,42.081,97.43v10.054h9.387V98.1H65.548V79.323A18.793,18.793,0,0,0,46.774,60.548a9.4,9.4,0,0,1-9.387-9.387V41.774Z" transform="translate(98.726 80.258)" fill="#4d777c"/>
        <rect id="Rectangle_542" data-name="Rectangle 542" width="7" height="11" transform="translate(180.731 139)" fill="#4d777c"/>
        <rect id="Rectangle_543" data-name="Rectangle 543" width="11" height="11" transform="translate(103.731 139)" fill="#4d777c"/>
        <ellipse id="Ellipse_61" data-name="Ellipse 61" cx="5" cy="5.5" rx="5" ry="5.5" transform="translate(17.731 262)" fill="#4d777c"/>
      </g>
    </g>
  </g>
</svg>
