<svg xmlns="http://www.w3.org/2000/svg" xmlns:xlink="http://www.w3.org/1999/xlink" width="309" height="309" viewBox="0 0 309 309">
  <defs>
    <filter id="Rectangle_491" x="0" y="0" width="309" height="309" filterUnits="userSpaceOnUse">
      <feOffset dy="2" input="SourceAlpha"/>
      <feGaussianBlur stdDeviation="3" result="blur"/>
      <feFlood flood-opacity="0.161"/>
      <feComposite operator="in" in2="blur"/>
      <feComposite in="SourceGraphic"/>
    </filter>
  </defs>
  <g id="Group_3064" data-name="Group 3064" transform="translate(-18 -226)">
    <g transform="matrix(1, 0, 0, 1, 18, 226)" filter="url(#Rectangle_491)">
      <rect id="Rectangle_491-2" data-name="Rectangle 491" width="291" height="291" transform="translate(9 7)" fill="#fff" opacity="0"/>
    </g>
    <g id="noun_accounting_3467083" transform="translate(21.01 231)">
      <g id="Group_3057" data-name="Group 3057" transform="translate(5.991 2)">
        <path id="Path_1092" data-name="Path 1092" d="M287.453,69.735H253.586V6.838A4.838,4.838,0,0,0,248.748,2c-7.838,0-11.418,7.161-13.982,12.337-2.08,4.112-3.677,7.015-5.37,7.015s-3.242-2.9-5.274-6.967C221.509,9.161,217.928,2,210.091,2s-11.418,7.161-13.982,12.337c-2.08,4.112-3.677,7.015-5.37,7.015s-3.29-2.9-5.37-7.015C182.8,9.161,179.223,2,171.385,2S159.967,9.161,157.4,14.337c-2.08,4.112-3.677,7.015-5.37,7.015s-3.29-2.9-5.37-7.015C144.1,9.161,140.517,2,132.679,2S121.261,9.161,118.7,14.337c-2.08,4.112-3.677,7.015-5.37,7.015s-3.29-2.9-5.37-7.015C105.392,9.161,101.812,2,93.974,2S82.556,9.161,79.992,14.337c-2.08,4.112-3.677,7.015-5.37,7.015s-3.338-2.9-5.419-7.015C66.59,9.112,63.058,2,55.22,2a4.838,4.838,0,0,0-4.838,4.838V89.087H16.515A14.558,14.558,0,0,0,2,103.6V277.777a14.558,14.558,0,0,0,14.515,14.515H132.631a14.558,14.558,0,0,0,14.515-14.515V243.909H268.1a24.191,24.191,0,0,0,24.191-24.191V74.573A4.838,4.838,0,0,0,287.453,69.735ZM137.469,277.777a4.838,4.838,0,0,1-4.838,4.838H16.515a4.838,4.838,0,0,1-4.838-4.838V103.6a4.838,4.838,0,0,1,4.838-4.838H132.631a4.838,4.838,0,0,1,4.838,4.838Zm9.676-43.544V103.6a14.558,14.558,0,0,0-14.515-14.515H60.058V17.676c.145.29.339.629.532.968,2.613,5.225,6.193,12.386,14.031,12.386S86.039,23.869,88.6,18.692c2.08-4.112,3.677-7.015,5.37-7.015s3.29,2.9,5.37,7.015c2.564,5.177,6.145,12.337,13.982,12.337s11.418-7.161,13.982-12.337c2.08-4.112,3.677-7.015,5.37-7.015s3.29,2.9,5.37,7.015c2.564,5.177,6.145,12.337,13.982,12.337s11.418-7.161,13.982-12.337c2.08-4.112,3.677-7.015,5.37-7.015s3.29,2.9,5.37,7.015c2.564,5.177,6.144,12.337,13.982,12.337s11.418-7.161,13.982-12.337c2.08-4.112,3.677-7.015,5.37-7.015s3.29,2.9,5.37,7.015c2.564,5.225,6.145,12.337,13.934,12.337s11.418-7.161,13.982-12.337a10.229,10.229,0,0,0,.532-1.016V219.719a23.823,23.823,0,0,0,4.983,14.515Zm135.469-14.515a14.515,14.515,0,1,1-29.029,0V79.411h29.029Z" transform="translate(-2 -2)" fill="#4d777c"/>
        <path id="Path_1093" data-name="Path 1093" d="M102.764,24H15.676A9.676,9.676,0,0,0,6,33.676V62.706a9.676,9.676,0,0,0,9.676,9.676h87.087a9.676,9.676,0,0,0,9.676-9.676V33.676A9.676,9.676,0,0,0,102.764,24ZM15.676,62.706V33.676h87.087V62.706Z" transform="translate(13.353 82.44)" fill="#4d777c"/>
        <rect id="Rectangle_520" data-name="Rectangle 520" width="10" height="10" transform="translate(87.29 125.292)" fill="#4d777c"/>
        <rect id="Rectangle_521" data-name="Rectangle 521" width="10" height="10" transform="translate(68.29 125.292)" fill="#4d777c"/>
        <rect id="Rectangle_522" data-name="Rectangle 522" width="9" height="10" transform="translate(48.29 125.292)" fill="#4d777c"/>
        <path id="Path_1094" data-name="Path 1094" d="M30.191,44H10.838A4.838,4.838,0,0,0,6,48.838V68.191a4.838,4.838,0,0,0,4.838,4.838H30.191a4.838,4.838,0,0,0,4.838-4.838V48.838A4.838,4.838,0,0,0,30.191,44ZM25.353,63.353H15.676V53.676h9.676Z" transform="translate(13.353 159.204)" fill="#4d777c"/>
        <path id="Path_1095" data-name="Path 1095" d="M30.191,36H10.838A4.838,4.838,0,0,0,6,40.838V60.191a4.838,4.838,0,0,0,4.838,4.838H30.191a4.838,4.838,0,0,0,4.838-4.838V40.838A4.838,4.838,0,0,0,30.191,36ZM25.353,55.353H15.676V45.676h9.676Z" transform="translate(13.353 128.498)" fill="#4d777c"/>
        <path id="Path_1096" data-name="Path 1096" d="M38.191,36H18.838A4.838,4.838,0,0,0,14,40.838V60.191a4.838,4.838,0,0,0,4.838,4.838H38.191a4.838,4.838,0,0,0,4.838-4.838V40.838A4.838,4.838,0,0,0,38.191,36ZM33.353,55.353H23.676V45.676h9.676Z" transform="translate(44.058 128.498)" fill="#4d777c"/>
        <path id="Path_1097" data-name="Path 1097" d="M46.191,36H26.838A4.838,4.838,0,0,0,22,40.838V60.191a4.838,4.838,0,0,0,4.838,4.838H46.191a4.838,4.838,0,0,0,4.838-4.838V40.838A4.838,4.838,0,0,0,46.191,36ZM41.353,55.353H31.676V45.676h9.676Z" transform="translate(74.764 128.498)" fill="#4d777c"/>
        <path id="Path_1098" data-name="Path 1098" d="M38.191,44H18.838A4.838,4.838,0,0,0,14,48.838V68.191a4.838,4.838,0,0,0,4.838,4.838H38.191a4.838,4.838,0,0,0,4.838-4.838V48.838A4.838,4.838,0,0,0,38.191,44ZM33.353,63.353H23.676V53.676h9.676Z" transform="translate(44.058 159.204)" fill="#4d777c"/>
        <path id="Path_1099" data-name="Path 1099" d="M46.191,44H26.838A4.838,4.838,0,0,0,22,48.838V68.191a4.838,4.838,0,0,0,4.838,4.838H46.191a4.838,4.838,0,0,0,4.838-4.838V48.838A4.838,4.838,0,0,0,46.191,44ZM41.353,63.353H31.676V53.676h9.676Z" transform="translate(74.764 159.204)" fill="#4d777c"/>
        <path id="Path_1100" data-name="Path 1100" d="M30.191,52H10.838A4.838,4.838,0,0,0,6,56.838V76.191a4.838,4.838,0,0,0,4.838,4.838H30.191a4.838,4.838,0,0,0,4.838-4.838V56.838A4.838,4.838,0,0,0,30.191,52ZM25.353,71.353H15.676V61.676h9.676Z" transform="translate(13.353 189.909)" fill="#4d777c"/>
        <path id="Path_1101" data-name="Path 1101" d="M38.191,52H18.838A4.838,4.838,0,0,0,14,56.838V76.191a4.838,4.838,0,0,0,4.838,4.838H38.191a4.838,4.838,0,0,0,4.838-4.838V56.838A4.838,4.838,0,0,0,38.191,52ZM33.353,71.353H23.676V61.676h9.676Z" transform="translate(44.058 189.909)" fill="#4d777c"/>
        <path id="Path_1102" data-name="Path 1102" d="M46.191,52H26.838A4.838,4.838,0,0,0,22,56.838V76.191a4.838,4.838,0,0,0,4.838,4.838H46.191a4.838,4.838,0,0,0,4.838-4.838V56.838A4.838,4.838,0,0,0,46.191,52ZM41.353,71.353H31.676V61.676h9.676Z" transform="translate(74.764 189.909)" fill="#4d777c"/>
        <rect id="Rectangle_523" data-name="Rectangle 523" width="9" height="9" transform="translate(78.29 48.292)" fill="#4d777c"/>
        <rect id="Rectangle_524" data-name="Rectangle 524" width="68" height="9" transform="translate(97.29 48.292)" fill="#4d777c"/>
        <rect id="Rectangle_525" data-name="Rectangle 525" width="87" height="10" transform="translate(78.29 68.292)" fill="#4d777c"/>
        <rect id="Rectangle_526" data-name="Rectangle 526" width="19" height="9" transform="translate(203.29 116.292)" fill="#4d777c"/>
        <rect id="Rectangle_527" data-name="Rectangle 527" width="38" height="9" transform="translate(155.29 116.292)" fill="#4d777c"/>
        <rect id="Rectangle_528" data-name="Rectangle 528" width="19" height="11" transform="translate(203.29 135.292)" fill="#4d777c"/>
        <rect id="Rectangle_529" data-name="Rectangle 529" width="38" height="11" transform="translate(155.29 135.292)" fill="#4d777c"/>
        <rect id="Rectangle_530" data-name="Rectangle 530" width="19" height="10" transform="translate(203.29 155.292)" fill="#4d777c"/>
        <rect id="Rectangle_531" data-name="Rectangle 531" width="38" height="10" transform="translate(155.29 155.292)" fill="#4d777c"/>
        <rect id="Rectangle_532" data-name="Rectangle 532" width="19" height="10" transform="translate(203.29 174.292)" fill="#4d777c"/>
        <rect id="Rectangle_533" data-name="Rectangle 533" width="38" height="10" transform="translate(155.29 174.292)" fill="#4d777c"/>
        <rect id="Rectangle_534" data-name="Rectangle 534" width="38" height="9" transform="translate(184.29 203.292)" fill="#4d777c"/>
        <path id="Path_1103" data-name="Path 1103" d="M64.191,53.544H54.515a4.838,4.838,0,0,1-4.838-4.838H40A14.515,14.515,0,0,0,54.515,63.22v4.838h9.676V63.22a14.515,14.515,0,0,0,0-29.029H54.515a4.838,4.838,0,1,1,0-9.676h9.676a4.838,4.838,0,0,1,4.838,4.838h9.676A14.515,14.515,0,0,0,64.191,14.838V10H54.515v4.838a14.515,14.515,0,1,0,0,29.029h9.676a4.838,4.838,0,1,1,0,9.676Z" transform="translate(143.851 28.706)" fill="#4d777c"/>
      </g>
    </g>
  </g>
</svg>
