<svg xmlns="http://www.w3.org/2000/svg" width="160" height="160" viewBox="0 0 160 160">
  <g id="Group_3274" data-name="Group 3274" transform="translate(0.243)">
    <rect id="Rectangle_600" data-name="Rectangle 600" width="160" height="160" transform="translate(-0.243)" fill="#fff" opacity="0"/>
    <g id="vat" transform="translate(15.789 0.102)">
      <g id="Group_3364" data-name="Group 3364" transform="translate(0 0)">
        <path id="Path_1765" data-name="Path 1765" d="M156.581,132.751V4.131A4.131,4.131,0,0,0,152.449,0h-96.2a4.131,4.131,0,0,0-4.131,4.131V155.766a4.131,4.131,0,0,0,4.131,4.131h73.186a6.982,6.982,0,0,0,4.937-2.045l20.166-20.166A6.98,6.98,0,0,0,156.581,132.751Z" transform="translate(-52.116 0)" fill="#4d777c"/>
      </g>
      <g id="Group_3365" data-name="Group 3365">
        <path id="Path_1766" data-name="Path 1766" d="M152.449,0h-3.644V124.976a6.982,6.982,0,0,1-2.045,4.937L126.6,150.078a6.982,6.982,0,0,1-4.937,2.045H52.116v3.643a4.131,4.131,0,0,0,4.131,4.131h73.186a6.982,6.982,0,0,0,4.937-2.045l20.166-20.166a6.982,6.982,0,0,0,2.045-4.937V4.131A4.132,4.132,0,0,0,152.449,0Z" transform="translate(-52.116 0)" fill="#4d777c"/>
      </g>
      <g id="Group_3375" data-name="Group 3375" transform="translate(10.42 23.267)">
        <g id="Group_3368" data-name="Group 3368">
          <path id="Path_1771" data-name="Path 1771" d="M163.608,229.765H89.936c-2.46,0-4.454-1.067-4.454-2.383S87.476,225,89.936,225h73.673c2.46,0,4.453,1.067,4.453,2.383S166.068,229.765,163.608,229.765Z" transform="translate(-85.482 -224.998)" fill="#396267"/>
        </g>
        <g id="Group_3369" data-name="Group 3369" transform="translate(0 10.787)">
          <path id="Path_1772" data-name="Path 1772" d="M101.834,264.307H89.109c-2,0-3.627-1.067-3.627-2.383s1.624-2.383,3.627-2.383h12.725c2,0,3.627,1.067,3.627,2.383S103.837,264.307,101.834,264.307Z" transform="translate(-85.482 -259.54)" fill="#396267"/>
        </g>
        <g id="Group_3370" data-name="Group 3370" transform="translate(0 21.574)">
          <path id="Path_1773" data-name="Path 1773" d="M131.574,298.847H88.17a2.4,2.4,0,1,1,0-4.767h43.4a2.4,2.4,0,1,1,0,4.767Z" transform="translate(-85.482 -294.08)" fill="#396267"/>
        </g>
        <g id="Group_3371" data-name="Group 3371" transform="translate(0 32.362)">
          <path id="Path_1774" data-name="Path 1774" d="M96.227,333.389H87.865a2.383,2.383,0,1,1,0-4.767h8.362a2.383,2.383,0,1,1,0,4.767Z" transform="translate(-85.482 -328.622)" fill="#396267"/>
        </g>
        <g id="Group_3385" data-name="Group 3385" transform="translate(0 75.362)">
          <path id="Path_1774-2" data-name="Path 1774" d="M96.227,333.389H87.865a2.383,2.383,0,1,1,0-4.767h8.362a2.383,2.383,0,1,1,0,4.767Z" transform="translate(-85.482 -328.622)" fill="#396267"/>
        </g>
        <g id="Group_3372" data-name="Group 3372" transform="translate(0 43.149)">
          <path id="Path_1775" data-name="Path 1775" d="M126.352,367.929H87.865a2.383,2.383,0,0,1,0-4.767h38.487a2.383,2.383,0,0,1,0,4.767Z" transform="translate(-85.482 -363.162)" fill="#396267"/>
        </g>
        <g id="Group_3384" data-name="Group 3384" transform="translate(0 86.149)">
          <path id="Path_1775-2" data-name="Path 1775" d="M126.352,367.929H87.865a2.383,2.383,0,0,1,0-4.767h38.487a2.383,2.383,0,0,1,0,4.767Z" transform="translate(-85.482 -363.162)" fill="#396267"/>
        </g>
        <g id="Group_3373" data-name="Group 3373" transform="translate(0 53.936)">
          <path id="Path_1776" data-name="Path 1776" d="M96.227,402.471H87.865a2.383,2.383,0,1,1,0-4.767h8.362a2.383,2.383,0,1,1,0,4.767Z" transform="translate(-85.482 -397.704)" fill="#396267"/>
        </g>
        <g id="Group_3383" data-name="Group 3383" transform="translate(0 96.936)">
          <path id="Path_1776-2" data-name="Path 1776" d="M96.227,402.471H87.865a2.383,2.383,0,1,1,0-4.767h8.362a2.383,2.383,0,1,1,0,4.767Z" transform="translate(-85.482 -397.704)" fill="#396267"/>
        </g>
        <g id="Group_3374" data-name="Group 3374" transform="translate(0 64.723)">
          <path id="Path_1777" data-name="Path 1777" d="M122.17,437.011h-34.6a2.4,2.4,0,0,1,0-4.767h34.6a2.4,2.4,0,0,1,0,4.767Z" transform="translate(-85.482 -432.244)" fill="#396267"/>
        </g>
        <g id="Group_3382" data-name="Group 3382" transform="translate(0 107.723)">
          <path id="Path_1777-2" data-name="Path 1777" d="M118.007,437.011H87.336a2.459,2.459,0,0,1,0-4.767h30.671a2.459,2.459,0,0,1,0,4.767Z" transform="translate(-85.482 -432.244)" fill="#396267"/>
        </g>
      </g>
      <path id="Path_1778" data-name="Path 1778" d="M306.809,452.357l20.166-20.166a6.975,6.975,0,0,0,1.966-3.946h-22.9a3.178,3.178,0,0,0-3.178,3.178v22.9A6.977,6.977,0,0,0,306.809,452.357Z" transform="translate(-224.555 -294.504)" fill="#396267"/>
      <path id="Path_1779" data-name="Path 1779" d="M317.806,428.246l-14.943,14.943v11.135a6.978,6.978,0,0,0,3.946-1.966l20.166-20.166a6.976,6.976,0,0,0,1.966-3.946Z" transform="translate(-224.555 -294.505)" fill="#396267"/>
      <g id="Group_3376" data-name="Group 3376" transform="translate(59 51.898)">
        <circle id="Ellipse_81" data-name="Ellipse 81" cx="33.924" cy="33.924" r="33.924" fill="#6cc8c5"/>
      </g>
      <g id="Group_3377" data-name="Group 3377" transform="translate(65.08 57.886)">
        <path id="Path_1780" data-name="Path 1780" d="M307.492,185.354a33.926,33.926,0,0,1-46.987,46.987,33.925,33.925,0,1,0,46.987-46.987Z" transform="translate(-260.505 -185.354)" fill="#6cc8c5"/>
      </g>
      <path id="Icon_metro-dollar2" data-name="Icon metro-dollar2" d="M31.425,29.469a8.753,8.753,0,0,1-2.289,6.063,9.881,9.881,0,0,1-5.948,3.141V42.7a.709.709,0,0,1-.736.736H19.346a.747.747,0,0,1-.736-.736V38.672a14.5,14.5,0,0,1-2.934-.713,15.446,15.446,0,0,1-2.335-1.024,15.5,15.5,0,0,1-1.7-1.1,13.112,13.112,0,0,1-1.07-.863q-.288-.276-.4-.414a.7.7,0,0,1-.046-.943l2.37-3.106a.716.716,0,0,1,.529-.276.57.57,0,0,1,.552.207l.046.046a12.015,12.015,0,0,0,5.591,2.876,8.036,8.036,0,0,0,1.7.184,5.579,5.579,0,0,0,3.279-.989A3.223,3.223,0,0,0,25.6,29.745a2.333,2.333,0,0,0-.345-1.219,4.311,4.311,0,0,0-.771-.966,6.315,6.315,0,0,0-1.346-.863q-.92-.472-1.519-.736t-1.841-.748q-.9-.368-1.415-.575t-1.415-.61q-.9-.4-1.438-.713t-1.3-.817a8.1,8.1,0,0,1-1.231-.978,14.34,14.34,0,0,1-1-1.127,5.629,5.629,0,0,1-.817-1.335,9.228,9.228,0,0,1-.483-1.53,7.986,7.986,0,0,1-.2-1.795,7.867,7.867,0,0,1,2.255-5.568,10.528,10.528,0,0,1,5.867-3.083V2.94a.747.747,0,0,1,.736-.736h3.106a.709.709,0,0,1,.736.736V6.989a12.8,12.8,0,0,1,2.542.529,14.741,14.741,0,0,1,2,.771,11.086,11.086,0,0,1,1.461.863q.69.483.9.667t.345.322a.666.666,0,0,1,.115.874l-1.864,3.359a.627.627,0,0,1-.529.368.733.733,0,0,1-.621-.161q-.069-.069-.334-.276t-.9-.61a11.873,11.873,0,0,0-1.346-.736,10.276,10.276,0,0,0-1.714-.6,7.676,7.676,0,0,0-1.967-.265,5.98,5.98,0,0,0-3.566.989,3.093,3.093,0,0,0-1.185,3.658,2.59,2.59,0,0,0,.679.955,10.139,10.139,0,0,0,.909.759,8.1,8.1,0,0,0,1.288.713q.863.4,1.392.621t1.611.633q1.219.46,1.864.725t1.749.805a13.9,13.9,0,0,1,1.737.978,14.69,14.69,0,0,1,1.427,1.15A5.957,5.957,0,0,1,30.4,25.546a8.338,8.338,0,0,1,.725,1.76,7.591,7.591,0,0,1,.3,2.163Z" transform="translate(72.961 63.617)" fill="#ececec"/>
    </g>
  </g>
</svg>
