<svg xmlns="http://www.w3.org/2000/svg" width="66.594" height="58" viewBox="0 0 66.594 58">
  <g id="handshake" transform="translate(0 -33.035)">
    <g id="Group_3539" data-name="Group 3539" transform="translate(1.128 65.691)">
      <g id="Group_3538" data-name="Group 3538" transform="translate(0 0)">
        <path id="Path_2078" data-name="Path 2078" d="M34.607,294.3a4.375,4.375,0,0,0-6.049,1.3,4.375,4.375,0,1,0-7.349-4.749,4.375,4.375,0,0,0-7.349-4.749l-4.485,6.941a4.375,4.375,0,0,0,7.349,4.749,4.375,4.375,0,1,0,7.349,4.749,4.375,4.375,0,1,0,7.349,4.749l4.485-6.941A4.375,4.375,0,0,0,34.607,294.3Z" transform="translate(-8.674 -284.106)" fill="#4d777c"/>
      </g>
    </g>
    <g id="Group_3541" data-name="Group 3541" transform="translate(0 40.294)">
      <g id="Group_3540" data-name="Group 3540">
        <path id="Path_2079" data-name="Path 2079" d="M56.787,112.469l-.117-.076L34.378,97.878l-3.552,5.391a8.567,8.567,0,0,1-14.383-9.312l2.134-3.313-7.486-1.8L0,111.739l2.72,2.341.073-.114a8.572,8.572,0,0,1,14.871.836,8.582,8.582,0,0,1,7.349,4.749,8.568,8.568,0,0,1,6.869,13.211l-2.378,3.68,3.682,2.441a4.375,4.375,0,1,0,4.749-7.349l1.488.962a4.375,4.375,0,0,0,4.749-7.349l1.488.962a4.375,4.375,0,0,0,4.749-7.349l1.488.961a4.374,4.374,0,0,0,4.89-7.253Z" transform="translate(0 -88.843)" fill="#4d777c"/>
      </g>
    </g>
    <g id="Group_3543" data-name="Group 3543" transform="translate(19.267 33.035)">
      <g id="Group_3542" data-name="Group 3542">
        <path id="Path_2080" data-name="Path 2080" d="M189.612,33.035,157.6,34.055,148.83,47.678a4.375,4.375,0,1,0,7.349,4.749l5.855-8.886,1.282.835,23.1,15.042,9.038-6.693Z" transform="translate(-148.129 -33.035)" fill="#4d777c"/>
      </g>
    </g>
  </g>
</svg>
