<svg xmlns="http://www.w3.org/2000/svg" width="15.7" height="15.7" viewBox="0 0 15.7 15.7">
  <g id="Group_901" data-name="Group 901" transform="translate(-18.05 -13.84)">
    <rect id="Rectangle_400" data-name="Rectangle 400" width="15.7" height="15.7" transform="translate(18.05 13.84)" fill="#ff6f5e" opacity="0"/>
    <path id="Icon_awesome-arrow-right" data-name="Icon awesome-arrow-right" d="M8.99,3.668l-.775-.775a.834.834,0,0,0-1.183,0L.246,9.675a.834.834,0,0,0,0,1.183l6.786,6.786a.834.834,0,0,0,1.183,0l.775-.775a.839.839,0,0,0-.014-1.2L4.77,11.665H14.8a.836.836,0,0,0,.838-.838V9.71a.836.836,0,0,0-.838-.838H4.77L8.976,4.866A.833.833,0,0,0,8.99,3.668Z" transform="translate(18.089 11.393)" fill="#274d8d"/>
  </g>
</svg>
