<svg id="Group_3276" data-name="Group 3276" xmlns="http://www.w3.org/2000/svg" width="160" height="158.371" viewBox="0 0 160 158.371">
  <g id="earn-money">
    <path id="Path_1796" data-name="Path 1796" d="M227.49,25.547c-1.858,0-3.369-1.855-3.369-4.136s1.511-4.136,3.369-4.136h8.164a4.8,4.8,0,0,0,0-9.591h-3.369V4.795a4.795,4.795,0,1,0-9.59,0V8.663a13.755,13.755,0,0,0-8.164,12.748c0,7.568,5.813,13.726,12.959,13.726,1.858,0,3.369,1.855,3.369,4.136s-1.511,4.137-3.369,4.137h-8.164a4.795,4.795,0,1,0,0,9.59H222.7v2.889a4.795,4.795,0,1,0,9.59,0V52.021a13.757,13.757,0,0,0,8.164-12.748c0-7.57-5.813-13.727-12.959-13.727Zm0,0" transform="translate(-147.49 0)" fill="#6cc8c5"/>
    <path id="Path_1797" data-name="Path 1797" d="M264.164,17.275a4.8,4.8,0,0,0,0-9.591h-3.369V4.795A4.8,4.8,0,0,0,256,0V17.275Zm0,0" transform="translate(-176 0)" fill="#6cc8c5"/>
    <path id="Path_1798" data-name="Path 1798" d="M260.8,112.092v-3.867a13.758,13.758,0,0,0,8.164-12.749c0-7.568-5.813-13.726-12.959-13.726v9.59c1.858,0,3.369,1.855,3.369,4.136s-1.511,4.137-3.369,4.137v17.274a4.8,4.8,0,0,0,4.795-4.795Zm0,0" transform="translate(-176 -56.203)" fill="#6cc8c5"/>
    <path id="Path_1799" data-name="Path 1799" d="M54.931,407.593H4.794A4.8,4.8,0,0,1,0,402.8V367.3a4.8,4.8,0,0,1,4.795-4.8H54.931a4.8,4.8,0,0,1,4.795,4.8V402.8A4.794,4.794,0,0,1,54.931,407.593Zm0,0" transform="translate(0.001 -249.224)" fill="#6cc8c5"/>
    <path id="Path_1800" data-name="Path 1800" d="M375.806,375.428H325.669a4.794,4.794,0,0,1-4.795-4.795V320.519a4.8,4.8,0,0,1,4.795-4.8h50.137a4.8,4.8,0,0,1,4.795,4.8v50.115A4.8,4.8,0,0,1,375.806,375.428Zm0,0" transform="translate(-220.601 -217.059)" fill="#396267"/>
    <path id="Path_1801" data-name="Path 1801" d="M220.165,320.042H160.438V239.955a4.8,4.8,0,0,1,4.795-4.795H215.37a4.8,4.8,0,0,1,4.795,4.795Zm0,0" transform="translate(-110.301 -161.672)" fill="#4d777c"/>
    <path id="Path_1802" data-name="Path 1802" d="M281.069,235.16H256v84.883h29.863V239.955a4.8,4.8,0,0,0-4.795-4.795Zm0,0" transform="translate(-176 -161.672)" fill="#4d777c"/>
  </g>
</svg>
