<svg xmlns="http://www.w3.org/2000/svg" width="19" height="19" viewBox="0 0 19 19">
  <g id="Group_894" data-name="Group 894" transform="translate(-80 -12.897)">
    <rect id="Rectangle_393" data-name="Rectangle 393" width="19" height="19" transform="translate(80 12.897)" fill="#ff6f5e" opacity="0"/>
    <path id="Icon_awesome-arrow-right" data-name="Icon awesome-arrow-right" d="M7.694,3.829l.9-.9a.965.965,0,0,1,1.369,0l7.851,7.847a.965.965,0,0,1,0,1.369L9.959,20A.965.965,0,0,1,8.59,20l-.9-.9a.97.97,0,0,1,.016-1.385l4.867-4.636H.969A.967.967,0,0,1,0,12.112V10.819A.967.967,0,0,1,.969,9.85H12.576L7.71,5.214A.963.963,0,0,1,7.694,3.829Z" transform="translate(80.56 11.375)" fill="#fff"/>
  </g>
</svg>
