<svg xmlns="http://www.w3.org/2000/svg" xmlns:xlink="http://www.w3.org/1999/xlink" width="309" height="309" viewBox="0 0 309 309">
  <defs>
    <filter id="Rectangle_497" x="0" y="0" width="309" height="309" filterUnits="userSpaceOnUse">
      <feOffset dy="2" input="SourceAlpha"/>
      <feGaussianBlur stdDeviation="3" result="blur"/>
      <feFlood flood-opacity="0.161"/>
      <feComposite operator="in" in2="blur"/>
      <feComposite in="SourceGraphic"/>
    </filter>
  </defs>
  <g id="Group_3089" data-name="Group 3089" transform="translate(-18 -540)">
    <g transform="matrix(1, 0, 0, 1, 18, 540)" filter="url(#Rectangle_497)">
      <rect id="Rectangle_497-2" data-name="Rectangle 497" width="291" height="291" transform="translate(9 7)" fill="#fff" opacity="0"/>
    </g>
    <g id="noun_sales_3257060" transform="translate(16.172 544)">
      <path id="Path_1150" data-name="Path 1150" d="M154.655,39H49.324a5.016,5.016,0,1,0,0,10.031H154.655V64.079H61.663a5.016,5.016,0,0,0,0,10.032h72.929V89.157H64.372a5.016,5.016,0,1,0,0,10.031h90.283v15.047h-96.6a5.016,5.016,0,1,0,0,10.031h96.6v15.047H40.2a5.016,5.016,0,1,0,0,10.031H154.655a10.031,10.031,0,0,0,10.031-10.031V124.268a10.031,10.031,0,0,0-1.4-5.016,10.031,10.031,0,0,0,1.4-5.016V99.189a10.032,10.032,0,0,0-10.031-10.031H144.624V74.11h10.031a10.032,10.032,0,0,0,10.031-10.032V49.031A10.031,10.031,0,0,0,154.655,39Z" transform="translate(137.257 144.569)" fill="#4d777c"/>
      <path id="Path_1151" data-name="Path 1151" d="M37.079,138.427A25.079,25.079,0,0,0,59.4,102.163L91.2,77.085a24.527,24.527,0,0,0,32.2,0l31.8,25.079a25.079,25.079,0,1,0,40.126-6.721L223.865,51.4a24.778,24.778,0,0,0,8.828,1.756,25.079,25.079,0,1,0-17.5-7.173L186.6,90.025a24.477,24.477,0,0,0-25.079,4.263L129.72,69.21a25.079,25.079,0,1,0-44.64,0L53.28,94.289a24.728,24.728,0,0,0-16.2-6.019,25.079,25.079,0,0,0,0,50.157ZM232.693,13.034a15.047,15.047,0,1,1-15.047,15.047,15.047,15.047,0,0,1,15.047-15.047ZM177.52,98.3a15.047,15.047,0,1,1-15.047,15.047A15.047,15.047,0,0,1,177.52,98.3ZM107.3,43.128A15.047,15.047,0,1,1,92.252,58.175,15.047,15.047,0,0,1,107.3,43.128ZM37.079,98.3a15.047,15.047,0,1,1-15.047,15.047A15.047,15.047,0,0,1,37.079,98.3Z" transform="translate(44.172 0)" fill="#4d777c"/>
      <path id="Path_1152" data-name="Path 1152" d="M58.126,41A40.126,40.126,0,1,0,98.252,81.126,40.126,40.126,0,0,0,58.126,41Zm0,70.22A30.094,30.094,0,1,1,88.22,81.126,30.094,30.094,0,0,1,58.126,111.22Z" transform="translate(68.267 152.6)" fill="#4d777c"/>
      <path id="Path_1153" data-name="Path 1153" d="M74.189,37a60.189,60.189,0,1,0,60.189,60.189A60.189,60.189,0,0,0,74.189,37Zm0,110.346a50.157,50.157,0,1,1,50.157-50.157,50.157,50.157,0,0,1-50.157,50.157Z" transform="translate(52.204 136.537)" fill="#4d777c"/>
      <path id="Path_1154" data-name="Path 1154" d="M36.594,59.047H49.133a5.016,5.016,0,1,0,0-10.032H44.118a5.016,5.016,0,1,0-10.031,0h0a12.6,12.6,0,1,0,2.508,25.079H41.61a2.508,2.508,0,1,1,0,5.016H29.071a5.016,5.016,0,0,0,0,10.032h5.016a5.016,5.016,0,1,0,10.031,0h0A12.6,12.6,0,0,0,41.61,64.063H36.594a2.508,2.508,0,0,1,0-5.016Z" transform="translate(87.291 164.648)" fill="#4d777c"/>
      <path id="Path_1155" data-name="Path 1155" d="M47.11,45.032A30.1,30.1,0,0,1,58.6,47.289a4.993,4.993,0,1,0,3.812-9.229A38.922,38.922,0,0,0,47.11,35,40.126,40.126,0,0,0,24.238,108.08a5.009,5.009,0,1,0,5.718-8.226A30.094,30.094,0,0,1,47.11,45.032Z" transform="translate(24.109 128.506)" fill="#4d777c"/>
      <path id="Path_1156" data-name="Path 1156" d="M48.3,139.263A50.157,50.157,0,1,1,95.452,52.791a5.022,5.022,0,0,0,6.42-7.724A60.189,60.189,0,1,0,46.7,149.043a5.072,5.072,0,1,0,1.5-10.031Z" transform="translate(7.868 112.269)" fill="#4d777c"/>
    </g>
  </g>
</svg>
