<svg xmlns="http://www.w3.org/2000/svg" width="160" height="160" viewBox="0 0 160 160">
  <g id="Group_3273" data-name="Group 3273" transform="translate(0 0)">
    <rect id="Rectangle_600" data-name="Rectangle 600" width="160" height="160" fill="#fff" opacity="0"/>
    <g id="vat_1_" data-name="vat (1)">
      <path id="Path_1784" data-name="Path 1784" d="M152.034,126.159l-.014-30.146a6.254,6.254,0,0,0-6.251-6.251L115.5,89.748l-7.8,2.292L29.461,170.282l-.077,5.584,36.472,36.471,6.119-.715,77.92-77.92Zm-30.023-20.484a9.967,9.967,0,1,1,0,14.1A9.967,9.967,0,0,1,122.011,105.675Z" transform="translate(-20.206 -61.776)" fill="#4d777c"/>
      <path id="Path_1785" data-name="Path 1785" d="M389.03,141.831l7.28-7.28,2.961-8.364-.014-30.146a6.254,6.254,0,0,0-6.251-6.251l-4.085,0a6.3,6.3,0,0,1,.085.981Z" transform="translate(-267.443 -61.803)" fill="#4d777c"/>
      <g id="Group_3386" data-name="Group 3386" transform="translate(45.65 64.384)">
        <path id="Path_1786" data-name="Path 1786" d="M153.557,299.908a6.254,6.254,0,0,0,8.845,0L230.507,231.8a6.254,6.254,0,0,0,1.832-4.425l-.01-21.054L146.151,292.5Z" transform="translate(-146.151 -206.323)" fill="#fff0af"/>
      </g>
      <g id="Group_3387" data-name="Group 3387" transform="translate(45.65 64.384)">
        <path id="Path_1787" data-name="Path 1787" d="M153.557,299.908a6.254,6.254,0,0,0,8.845,0L230.507,231.8a6.254,6.254,0,0,0,1.832-4.425l-.01-21.054L146.151,292.5Z" transform="translate(-146.151 -206.323)" fill="#396267"/>
      </g>
      <g id="Group_3388" data-name="Group 3388" transform="translate(0 27.962)">
        <path id="Path_1788" data-name="Path 1788" d="M74.363,89.716a6.254,6.254,0,0,0-4.425,1.832L1.832,159.653a6.254,6.254,0,0,0,0,8.845l7.346,7.346L95.3,89.726Z" transform="translate(0 -89.716)" fill="#396267"/>
      </g>
      <g id="Group_3389" data-name="Group 3389" transform="translate(49.717 64.383)">
        <path id="Path_1789" data-name="Path 1789" d="M241.283,206.322,231.04,216.566l0,5.538a6.253,6.253,0,0,1-1.832,4.425l-70.038,70.039,3.339,3.339a6.254,6.254,0,0,0,8.845,0L239.461,231.8a6.254,6.254,0,0,0,1.832-4.425Z" transform="translate(-159.172 -206.322)" fill="#396267"/>
      </g>
      <path id="Path_1795" data-name="Path 1795" d="M392.521.194a10.5,10.5,0,0,0-10.492,10.492v5.8H366.807a13.312,13.312,0,0,0-13.3,13.3V45.159a2.345,2.345,0,1,0,4.69,0V29.785a8.616,8.616,0,0,1,8.607-8.606h15.222V41a8.619,8.619,0,0,1-7.116,8.475l0,4.736A13.315,13.315,0,0,0,386.72,41V21.178h5.8a10.492,10.492,0,1,0,0-20.984Zm0,16.294h-5.8v-5.8a5.8,5.8,0,1,1,5.8,5.8Z" transform="translate(-243.093 -0.194)" fill="#6cc8c5"/>
      <path id="Icon_awesome-percent" data-name="Icon awesome-percent" d="M7,14A7,7,0,1,0,0,7,7,7,0,0,0,7,14ZM7,4A3,3,0,1,1,4,7,3,3,0,0,1,7,4ZM21,18a7,7,0,1,0,7,7A7,7,0,0,0,21,18Zm0,10a3,3,0,1,1,3-3A3,3,0,0,1,21,27.994ZM24.514.012,26.488.006a1.5,1.5,0,0,1,1.231,2.362L4.836,31.343a1.5,1.5,0,0,1-1.225.637l-2.087.006A1.5,1.5,0,0,1,.294,29.625L23.289.65A1.5,1.5,0,0,1,24.514.012Z" transform="translate(56.306 73.23)" fill="#ececec"/>
    </g>
  </g>
</svg>
