<svg xmlns="http://www.w3.org/2000/svg" xmlns:xlink="http://www.w3.org/1999/xlink" width="309" height="309" viewBox="0 0 309 309">
  <defs>
    <filter id="Rectangle_497" x="0" y="0" width="309" height="309" filterUnits="userSpaceOnUse">
      <feOffset dy="2" input="SourceAlpha"/>
      <feGaussianBlur stdDeviation="3" result="blur"/>
      <feFlood flood-opacity="0.161"/>
      <feComposite operator="in" in2="blur"/>
      <feComposite in="SourceGraphic"/>
    </filter>
  </defs>
  <g id="Group_3074" data-name="Group 3074" transform="translate(-18 -540)">
    <g transform="matrix(1, 0, 0, 1, 18, 540)" filter="url(#Rectangle_497)">
      <rect id="Rectangle_497-2" data-name="Rectangle 497" width="291" height="291" transform="translate(9 7)" fill="#fff" opacity="0"/>
    </g>
    <g id="noun_pending_wallet_615595" data-name="noun_pending wallet_615595" transform="translate(21.031 549.969)">
      <g id="Group_3060" data-name="Group 3060" transform="translate(5.969 10.031)">
        <path id="Path_1121" data-name="Path 1121" d="M263.086,962.446q-.156.047-.31.1L71.565,995.494a6.611,6.611,0,0,0-5.268,3.615q-.114.254-.207.516c-.035.034-.069.068-.1.1q-.062.256-.1.516a6.606,6.606,0,0,0-.31,1.859c0,.034,0,.069,0,.1v86.444a69.5,69.5,0,1,0,79.336,72.088H277.135a6.611,6.611,0,0,0,6.611-6.609V1107.86h6.611a6.611,6.611,0,0,0,6.611-6.609v-46.269a6.611,6.611,0,0,0-6.611-6.61h-6.612V1002.1a6.611,6.611,0,0,0-6.611-6.61h-6.612V969.055a6.612,6.612,0,0,0-7.438-6.61ZM257.3,976.9v18.59H149.454Zm-178.5,31.81H270.523v39.658H191.188a19.9,19.9,0,0,0-19.834,19.829v19.829a19.9,19.9,0,0,0,19.834,19.829h79.336v39.658H144.289A69.686,69.686,0,0,0,78.8,1088.031v-79.317Zm112.392,52.878h92.558v33.049H191.188c-3.925,0-6.611-3.942-6.611-6.609V1068.2C184.577,1065.534,187.263,1061.592,191.188,1061.592Zm9.917,6.61a9.915,9.915,0,1,0,9.917,9.915A9.916,9.916,0,0,0,201.1,1068.2ZM75.49,1101.354a56.08,56.08,0,1,1-56.093,56.08A55.914,55.914,0,0,1,75.49,1101.354Zm0,9.811a46.268,46.268,0,1,0,46.279,46.268,46.374,46.374,0,0,0-46.279-46.268Zm0,13.22a33.049,33.049,0,1,1-33.056,33.049,32.953,32.953,0,0,1,33.056-33.049Zm-.723,6.506a6.611,6.611,0,0,0-5.888,6.713v19.83a6.611,6.611,0,0,0,6.61,6.61H88.713a6.61,6.61,0,1,0,0-13.22H82.1V1137.6a6.611,6.611,0,0,0-7.334-6.713Z" transform="translate(-5.969 -962.393)" fill="#4d777c"/>
      </g>
    </g>
  </g>
</svg>
