<svg xmlns="http://www.w3.org/2000/svg" xmlns:xlink="http://www.w3.org/1999/xlink" width="309" height="309" viewBox="0 0 309 309">
  <defs>
    <filter id="Rectangle_496" x="0" y="0" width="309" height="309" filterUnits="userSpaceOnUse">
      <feOffset dy="2" input="SourceAlpha"/>
      <feGaussianBlur stdDeviation="3" result="blur"/>
      <feFlood flood-opacity="0.161"/>
      <feComposite operator="in" in2="blur"/>
      <feComposite in="SourceGraphic"/>
    </filter>
  </defs>
  <g id="Group_3068" data-name="Group 3068" transform="translate(-1593 -226)">
    <g transform="matrix(1, 0, 0, 1, 1593, 226)" filter="url(#Rectangle_496)">
      <rect id="Rectangle_496-2" data-name="Rectangle 496" width="291" height="291" transform="translate(9 7)" fill="#fff" opacity="0"/>
    </g>
    <g id="noun_pay_3209287" transform="translate(1589.365 238.01)">
      <path id="Path_1129" data-name="Path 1129" d="M285.1,63.414a20.576,20.576,0,0,0-21.3.813L196.759,107.61a24.456,24.456,0,0,0-11.992-17.361L146.993,68.666A155.027,155.027,0,0,0,70.2,48.27H57.38V30.81a5.818,5.818,0,0,0-5.82-5.82H10.82A5.818,5.818,0,0,0,5,30.81V182.13a5.818,5.818,0,0,0,5.82,5.82H51.56a5.818,5.818,0,0,0,5.82-5.82V164.67H83.871a54.823,54.823,0,0,1,24.394,5.76l21.245,10.623a66.038,66.038,0,0,0,72.665-8.946l86.538-74.174A21.021,21.021,0,0,0,296,81.744,20.589,20.589,0,0,0,285.1,63.414ZM45.74,54.09V176.31H16.64V36.63h29.1ZM281.143,89.1,194.6,163.269a54.425,54.425,0,0,1-59.888,7.372l-21.245-10.623a66.526,66.526,0,0,0-29.6-6.988H57.38V59.91H70.2a143.368,143.368,0,0,1,71.016,18.861l37.773,21.583a12.93,12.93,0,0,1,6.428,11.424,12.757,12.757,0,0,1-15.852,12.376L99.529,106.643a5.82,5.82,0,0,0-2.819,11.293l70.039,17.511a24.4,24.4,0,0,0,27.543-12.382,1,1,0,0,0,.108-.071l75.728-49a9.127,9.127,0,0,1,9.418-.358,9.563,9.563,0,0,1,1.6,15.456Z" transform="translate(7.634 86.76)" fill="#4d777c"/>
      <path id="Path_1130" data-name="Path 1130" d="M89.02,135.03A64.02,64.02,0,1,0,25,71.01,64.092,64.092,0,0,0,89.02,135.03Zm0-116.4A52.38,52.38,0,1,1,36.64,71.01,52.439,52.439,0,0,1,89.02,18.63Z" transform="translate(104.034 0)" fill="#4d777c"/>
      <path id="Path_1131" data-name="Path 1131" d="M50.347,64.37a5.71,5.71,0,0,1-5.707-5.7,5.82,5.82,0,0,0-11.64,0,17.266,17.266,0,0,0,11.759,16.3V76.01a5.82,5.82,0,1,0,11.64,0V74.929A17.437,17.437,0,0,0,50.346,41.09a5.821,5.821,0,1,1,5.934-5.937,5.82,5.82,0,0,0,11.64,0A17.271,17.271,0,0,0,56.4,18.923V17.81a5.82,5.82,0,1,0-11.64,0v1.007a17.431,17.431,0,0,0,5.82,33.913,5.821,5.821,0,0,1-.233,11.64Z" transform="translate(142.594 24.1)" fill="#4d777c"/>
    </g>
  </g>
</svg>
