<svg xmlns="http://www.w3.org/2000/svg" xmlns:xlink="http://www.w3.org/1999/xlink" width="309" height="309" viewBox="0 0 309 309">
  <defs>
    <filter id="Rectangle_494" x="0" y="0" width="309" height="309" filterUnits="userSpaceOnUse">
      <feOffset dy="2" input="SourceAlpha"/>
      <feGaussianBlur stdDeviation="3" result="blur"/>
      <feFlood flood-opacity="0.161"/>
      <feComposite operator="in" in2="blur"/>
      <feComposite in="SourceGraphic"/>
    </filter>
  </defs>
  <g id="Group_3065" data-name="Group 3065" transform="translate(-963 -226)">
    <g transform="matrix(1, 0, 0, 1, 963, 226)" filter="url(#Rectangle_494)">
      <rect id="Rectangle_494-2" data-name="Rectangle 494" width="291" height="291" transform="translate(9 7)" fill="#fff" opacity="0"/>
    </g>
    <g id="noun_pay_3479368" transform="translate(972.584 217)">
      <path id="Path_1116" data-name="Path 1116" d="M122.2,246.353v55.8a4.85,4.85,0,0,0,4.85,4.85h164.9a4.85,4.85,0,0,0,4.85-4.85V185.75a24.329,24.329,0,0,0-2.853-11.411L258,106.938V20.85a4.85,4.85,0,0,0-4.85-4.85h-126.1a4.85,4.85,0,0,0-4.85,4.85V37.869L67.4,55.021A4.85,4.85,0,0,0,64.22,61.1ZM116.018,80.463l-2.9-9.261L122.2,68.36v80.557L103.583,89.438l9.256-2.9A4.85,4.85,0,0,0,116.018,80.463ZM287.1,185.75V297.3H258a43.7,43.7,0,0,1-43.64-42.732,4.85,4.85,0,0,0-.744-3.634l-31.458-46.563a14.55,14.55,0,1,1,24.112-16.291c.028.042.06.084.087.125l28.315,39.186A4.85,4.85,0,0,0,238.6,229.4h14.55a4.85,4.85,0,0,0,4.85-4.85v-97L285.388,178.9A14.611,14.611,0,0,1,287.1,185.75ZM161,263.35h-9.7V59.65H161a4.85,4.85,0,0,0,4.85-4.85V45.1h48.5v9.7a4.85,4.85,0,0,0,4.85,4.85h9.7v143.2l-14.641-20.263a24.472,24.472,0,0,0-1.866-2.393,29.094,29.094,0,1,0-39.625,4.686,24.321,24.321,0,0,0,1.349,24.927l30.55,45.214a52.987,52.987,0,0,0,5.827,22.883H165.849v-9.7A4.85,4.85,0,0,0,161,263.35Zm19.635-87.218c-.58.392-1.135.809-1.673,1.243a19.4,19.4,0,1,1,25.673-3.031,24.258,24.258,0,0,0-24,1.788ZM131.9,25.7H248.3v194h-7.221l-2.479-3.431V54.8a4.85,4.85,0,0,0-4.85-4.85h-9.7v-9.7a4.85,4.85,0,0,0-4.85-4.85H161a4.85,4.85,0,0,0-4.85,4.85v9.7h-9.7a4.85,4.85,0,0,0-4.85,4.85V268.2a4.85,4.85,0,0,0,4.85,4.85h9.7v9.7A4.85,4.85,0,0,0,161,287.6h55.89a53.789,53.789,0,0,0,10.491,9.7H131.9Zm-9.7,22.332V58.2l-16.605,5.2a4.85,4.85,0,0,0-3.18,6.077l2.9,9.262-9.256,2.9a4.85,4.85,0,0,0-3.179,6.078L122.2,181.392v32.484L74.926,62.83Z" transform="translate(-35.582 0)" fill="#4d777c"/>
    </g>
  </g>
</svg>
