<svg xmlns="http://www.w3.org/2000/svg" width="160" height="160" viewBox="0 0 160 160">
  <g id="Group_3278" data-name="Group 3278" transform="translate(-67 -35.36)">
    <rect id="Rectangle_600" data-name="Rectangle 600" width="160" height="160" transform="translate(67 35.36)" fill="#fff" opacity="0"/>
    <g id="controls" transform="translate(67 35.36)">
      <path id="Path_1528" data-name="Path 1528" d="M53.23,212.063a11.492,11.492,0,0,1,7.568,2.852A4.674,4.674,0,0,0,68.55,211.4V176.075a4.673,4.673,0,0,0-3.754-4.582,59.107,59.107,0,0,0-23.29.03,4.674,4.674,0,0,0-3.741,4.58v7.951q-.779.306-1.545.642L30.6,179.072a4.674,4.674,0,0,0-5.885-.592A58.886,58.886,0,0,0,8.134,195.058a4.674,4.674,0,0,0,.593,5.883l5.624,5.624q-.336.767-.642,1.546H5.758a4.674,4.674,0,0,0-4.58,3.741,58.9,58.9,0,0,0,0,23.446,4.674,4.674,0,0,0,4.58,3.741h7.951q.306.78.642,1.546l-5.622,5.623a4.674,4.674,0,0,0-.594,5.883A58.886,58.886,0,0,0,24.714,268.67a4.674,4.674,0,0,0,5.884-.593l5.623-5.623q.767.337,1.546.642v7.95a4.674,4.674,0,0,0,3.741,4.58A58.869,58.869,0,0,0,53.23,276.8H64.8s3.753-3.506,3.753-5.732V235.751a4.674,4.674,0,0,0-7.752-3.517,11.507,11.507,0,1,1-7.568-20.171Z" transform="translate(0 -117.27)" fill="#dcdcdc"/>
      <path id="Path_1529" data-name="Path 1529" d="M65.807,349.088a4.672,4.672,0,0,0-5.009.739,11.5,11.5,0,0,1-19.079-8.659H0a58.866,58.866,0,0,0,1.178,11.723,4.674,4.674,0,0,0,4.58,3.741h7.951q.306.78.642,1.546L8.728,363.8a4.674,4.674,0,0,0-.594,5.883,58.885,58.885,0,0,0,16.579,16.579,4.674,4.674,0,0,0,5.884-.593l5.623-5.623q.767.337,1.546.642v7.95a4.674,4.674,0,0,0,3.741,4.58A58.869,58.869,0,0,0,53.23,394.4H64.8s3.753-3.506,3.753-5.732V353.344a4.673,4.673,0,0,0-2.743-4.256Z" transform="translate(0 -234.863)" fill="#dcdcdc"/>
      <path id="Path_1530" data-name="Path 1530" d="M285.658,0H194.674A4.674,4.674,0,0,0,190,4.674V154.86a4.674,4.674,0,0,0,4.674,4.674h90.984a4.674,4.674,0,0,0,4.674-4.674V4.674A4.674,4.674,0,0,0,285.658,0Z" transform="translate(-130.798 0)" fill="#4d777c"/>
      <path id="Path_1531" data-name="Path 1531" d="M190,256v75.093a4.674,4.674,0,0,0,4.674,4.674h90.984a4.674,4.674,0,0,0,4.674-4.674V256Z" transform="translate(-130.798 -176.233)" fill="#4d777c"/>
      <path id="Path_1532" data-name="Path 1532" d="M294.674,187.042A4.674,4.674,0,0,1,290,182.368V77.674a4.674,4.674,0,0,1,9.348,0V182.368A4.674,4.674,0,0,1,294.674,187.042Z" transform="translate(-199.639 -50.254)" fill="#396267"/>
      <path id="Path_1533" data-name="Path 1533" d="M290,256v52.347a4.674,4.674,0,0,0,9.348,0V256Z" transform="translate(-199.639 -176.233)" fill="#396267"/>
      <path id="Path_1534" data-name="Path 1534" d="M390.674,187.042A4.674,4.674,0,0,1,386,182.368V77.674a4.674,4.674,0,1,1,9.348,0V182.368A4.674,4.674,0,0,1,390.674,187.042Z" transform="translate(-265.726 -50.254)" fill="#396267"/>
      <path id="Path_1535" data-name="Path 1535" d="M386,256v52.347a4.674,4.674,0,1,0,9.348,0V256Z" transform="translate(-265.726 -176.233)" fill="#396267"/>
      <ellipse id="Ellipse_68" data-name="Ellipse 68" cx="14.5" cy="15" rx="14.5" ry="15" transform="translate(81.361 39.36)" fill="#72b5bd"/>
      <circle id="Ellipse_69" data-name="Ellipse 69" cx="14.5" cy="14.5" r="14.5" transform="translate(110.361 90.36)" fill="#6cc8c5"/>
    </g>
  </g>
</svg>
