<svg xmlns="http://www.w3.org/2000/svg" width="160" height="160.05" viewBox="0 0 160 160.05">
  <g id="Group_3275" data-name="Group 3275" transform="translate(-66 -35.36)">
    <rect id="Rectangle_600" data-name="Rectangle 600" width="160" height="160" transform="translate(66 35.36)" fill="#fff" opacity="0"/>
    <g id="calculator" transform="translate(66.339 36)">
      <path id="Path_1483" data-name="Path 1483" d="M117.5,0H40.773a8.332,8.332,0,0,0-8.332,8.33V151.08a8.331,8.331,0,0,0,8.33,8.33H141.049a8.332,8.332,0,0,0,8.332-8.33V31.882Z" transform="translate(7.553)" fill="#ececec"/>
      <rect id="Rectangle_574" data-name="Rectangle 574" width="83.441" height="107.317" rx="6.279" transform="translate(1.661 52.093)" fill="#4d777c"/>
      <path id="Path_1484" data-name="Path 1484" d="M8.548,49.066H74.836V74.628H8.548Z" transform="translate(1.69 12.04)" fill="#6cc8c5"/>
      <g id="Group_3250" data-name="Group 3250" transform="translate(12.846 95.119)">
        <rect id="Rectangle_575" data-name="Rectangle 575" width="10.187" height="10.187" rx="1.812" fill="#ececec"/>
        <rect id="Rectangle_576" data-name="Rectangle 576" width="10.187" height="10.187" rx="1.812" transform="translate(16.962)" fill="#ececec"/>
        <rect id="Rectangle_577" data-name="Rectangle 577" width="10.187" height="10.187" rx="1.812" transform="translate(33.923)" fill="#ececec"/>
        <rect id="Rectangle_578" data-name="Rectangle 578" width="10.187" height="10.187" rx="1.812" transform="translate(50.885)" fill="#ececec"/>
        <rect id="Rectangle_579" data-name="Rectangle 579" width="10.187" height="10.187" rx="1.812" transform="translate(0 14.678)" fill="#ececec"/>
        <rect id="Rectangle_580" data-name="Rectangle 580" width="10.187" height="10.187" rx="1.812" transform="translate(16.962 14.678)" fill="#ececec"/>
        <rect id="Rectangle_581" data-name="Rectangle 581" width="10.187" height="10.187" rx="1.812" transform="translate(33.923 14.678)" fill="#ececec"/>
        <rect id="Rectangle_582" data-name="Rectangle 582" width="10.187" height="10.187" rx="1.812" transform="translate(50.885 14.678)" fill="#ececec"/>
        <rect id="Rectangle_583" data-name="Rectangle 583" width="10.187" height="10.187" rx="1.812" transform="translate(0 29.358)" fill="#ececec"/>
        <rect id="Rectangle_584" data-name="Rectangle 584" width="10.187" height="10.187" rx="1.812" transform="translate(16.962 29.358)" fill="#ececec"/>
        <rect id="Rectangle_585" data-name="Rectangle 585" width="10.187" height="10.187" rx="1.812" transform="translate(33.923 29.358)" fill="#ececec"/>
        <rect id="Rectangle_586" data-name="Rectangle 586" width="10.187" height="10.187" rx="1.812" transform="translate(50.885 29.358)" fill="#ececec"/>
        <rect id="Rectangle_587" data-name="Rectangle 587" width="10.187" height="10.187" rx="1.812" transform="translate(0 44.036)" fill="#ececec"/>
        <rect id="Rectangle_588" data-name="Rectangle 588" width="10.187" height="10.187" rx="1.812" transform="translate(16.962 44.036)" fill="#ececec"/>
        <rect id="Rectangle_589" data-name="Rectangle 589" width="10.187" height="10.187" rx="1.812" transform="translate(33.923 44.036)" fill="#ececec"/>
        <rect id="Rectangle_590" data-name="Rectangle 590" width="10.187" height="10.187" rx="1.812" transform="translate(50.885 44.036)" fill="#ececec"/>
      </g>
      <path id="Path_1486" data-name="Path 1486" d="M100.738,23.552a8.332,8.332,0,0,0,8.33,8.332h23.553L100.738,0Z" transform="translate(24.313)" fill="#dcdcdc"/>
      <path id="Path_1487" data-name="Path 1487" d="M122.163,52.274H79.635a1.245,1.245,0,0,1,0-2.491h42.528a1.245,1.245,0,0,1,0,2.491Z" transform="translate(18.829 12.216)" fill="#c6c6c6"/>
      <path id="Path_1488" data-name="Path 1488" d="M122.163,65.491H79.635a1.245,1.245,0,0,1,0-2.491h42.528a1.245,1.245,0,0,1,0,2.491Z" transform="translate(18.829 15.46)" fill="#c6c6c6"/>
      <path id="Path_1489" data-name="Path 1489" d="M122.163,78.708H79.635a1.245,1.245,0,0,1,0-2.491h42.528a1.245,1.245,0,0,1,0,2.491Z" transform="translate(18.829 18.703)" fill="#c6c6c6"/>
      <path id="Path_1490" data-name="Path 1490" d="M122.163,91.925H79.635a1.245,1.245,0,1,1,0-2.491h42.528a1.245,1.245,0,1,1,0,2.491Z" transform="translate(18.829 21.946)" fill="#c6c6c6"/>
      <path id="Path_1491" data-name="Path 1491" d="M122.163,105.141H79.635a1.245,1.245,0,1,1,0-2.491h42.528a1.245,1.245,0,1,1,0,2.491Z" transform="translate(18.829 25.189)" fill="#c6c6c6"/>
      <path id="Path_1492" data-name="Path 1492" d="M98.069,19.771H46.306a1.245,1.245,0,1,1,0-2.491H98.069a1.245,1.245,0,1,1,0,2.491Z" transform="translate(10.65 4.24)" fill="#c6c6c6"/>
      <path id="Path_1493" data-name="Path 1493" d="M98.069,31.582H46.306a1.245,1.245,0,1,1,0-2.491H98.069a1.245,1.245,0,1,1,0,2.491Z" transform="translate(10.65 7.139)" fill="#c6c6c6"/>
      <path id="Icon_metro-dollar2" data-name="Icon metro-dollar2" d="M19.4,14.2A3.852,3.852,0,0,1,18.4,16.869a4.348,4.348,0,0,1-2.617,1.382v1.772a.312.312,0,0,1-.324.324H14.089a.329.329,0,0,1-.324-.324V18.252a6.382,6.382,0,0,1-1.291-.314A6.218,6.218,0,0,1,10.7,17a5.771,5.771,0,0,1-.471-.38q-.127-.122-.177-.182a.308.308,0,0,1-.02-.415l1.043-1.367a.315.315,0,0,1,.233-.121.251.251,0,0,1,.243.091l.02.02a5.287,5.287,0,0,0,2.46,1.266,3.536,3.536,0,0,0,.749.081,2.455,2.455,0,0,0,1.443-.435,1.418,1.418,0,0,0,.623-1.235,1.027,1.027,0,0,0-.152-.537,1.9,1.9,0,0,0-.339-.425,2.779,2.779,0,0,0-.592-.38q-.4-.208-.668-.324t-.81-.329l-.623-.253q-.228-.091-.623-.268t-.633-.314q-.238-.137-.572-.359a3.565,3.565,0,0,1-.542-.43,6.31,6.31,0,0,1-.44-.5,2.477,2.477,0,0,1-.359-.587,4.061,4.061,0,0,1-.213-.673,3.514,3.514,0,0,1-.086-.79,3.462,3.462,0,0,1,.992-2.45A4.633,4.633,0,0,1,13.765,4.35V2.527a.329.329,0,0,1,.324-.324h1.367a.312.312,0,0,1,.324.324V4.309a5.632,5.632,0,0,1,1.119.233,6.487,6.487,0,0,1,.881.339,4.878,4.878,0,0,1,.643.38q.3.213.395.294t.152.142a.293.293,0,0,1,.051.385L18.2,7.56a.276.276,0,0,1-.233.162.323.323,0,0,1-.273-.071q-.03-.03-.147-.121t-.395-.268a5.225,5.225,0,0,0-.592-.324,4.522,4.522,0,0,0-.754-.263,3.378,3.378,0,0,0-.866-.116,2.631,2.631,0,0,0-1.569.435,1.361,1.361,0,0,0-.521,1.61,1.14,1.14,0,0,0,.3.42,4.462,4.462,0,0,0,.4.334,3.566,3.566,0,0,0,.567.314q.38.177.613.273t.709.278q.537.2.82.319t.77.354a6.117,6.117,0,0,1,.764.43,6.464,6.464,0,0,1,.628.506,2.621,2.621,0,0,1,.537.643,3.669,3.669,0,0,1,.319.775,3.34,3.34,0,0,1,.132.952Z" transform="translate(4.675 62.603)" fill="#ececec"/>
    </g>
  </g>
</svg>
