<svg xmlns="http://www.w3.org/2000/svg" width="160" height="160.2" viewBox="0 0 160 160.2">
  <g id="Group_3345" data-name="Group 3345" transform="translate(-71 -35.16)">
    <rect id="Rectangle_600" data-name="Rectangle 600" width="160" height="160" transform="translate(71 35.36)" fill="#fff" opacity="0"/>
    <g id="merge" transform="translate(71 35.26)">
      <path id="Path_1899" data-name="Path 1899" d="M3.193,86.312,35.44,109.6a5.514,5.514,0,0,0,8.744-4.47V88.341H74.517v24.818a33.129,33.129,0,0,0,33.09,33.09h11.03c3.273,8.08,10.046,13.788,19.3,13.788a22.06,22.06,0,0,0,0-44.121c-9.257,0-16.03,5.705-19.3,13.788h-11.03a16.564,16.564,0,0,1-16.545-16.545V88.341h27.575c3.273,8.08,10.046,13.788,19.3,13.788a22.06,22.06,0,0,0,0-44.121c-9.257,0-16.03,5.705-19.3,13.788H91.062V46.978a16.562,16.562,0,0,1,16.545-16.545h11.03c3.273,8.08,10.046,13.788,19.3,13.788A22.06,22.06,0,0,0,137.94.1c-9.257,0-16.03,5.705-19.3,13.788h-11.03a33.127,33.127,0,0,0-33.09,33.09v22.06H44.184V55.005a5.516,5.516,0,0,0-8.744-4.47L3.193,73.822a7.7,7.7,0,0,0,0,12.489" transform="translate(0)" fill="#4d777c"/>
      <ellipse id="Ellipse_90" data-name="Ellipse 90" cx="21.5" cy="22.25" rx="21.5" ry="22.25" transform="translate(117 -0.1)" fill="#6cc8c5"/>
      <ellipse id="Ellipse_91" data-name="Ellipse 91" cx="21.5" cy="22.25" rx="21.5" ry="22.25" transform="translate(117 57.9)" fill="#396267"/>
    </g>
  </g>
</svg>
