<svg xmlns="http://www.w3.org/2000/svg" width="160" height="160" viewBox="0 0 160 160">
  <g id="Group_3412" data-name="Group 3412" transform="translate(-65 -35.36)">
    <g id="Group_3274" data-name="Group 3274">
      <rect id="Rectangle_600" data-name="Rectangle 600" width="160" height="160" transform="translate(65 35.36)" fill="#fff" opacity="0"/>
      <g id="mail-inbox-app" transform="translate(65 -13.717)">
        <path id="Path_1902" data-name="Path 1902" d="M173.93,180.525,38.515,168.678a2.416,2.416,0,0,1-2.2-2.617l8.057-92.1a2.416,2.416,0,0,1,2.617-2.2L182.408,83.617a2.416,2.416,0,0,1,2.2,2.617l-8.057,92.1a2.415,2.415,0,0,1-2.617,2.2Z" transform="translate(-24.613 0)" fill="#6cc8c5"/>
        <path id="Path_1903" data-name="Path 1903" d="M362.343,145.458H386.5v87.615H362.343Z" transform="translate(-245.627 -49.959)" fill="#4d777c"/>
        <path id="Path_1904" data-name="Path 1904" d="M396.67,391.834a2.416,2.416,0,0,1-2.416,2.416h-7.247l-9.663-7.3,9.663-7.3,5.875,4.5a9.654,9.654,0,0,1,3.788,7.673Z" transform="translate(-255.795 -208.72)" fill="#396267"/>
        <path id="Path_1905" data-name="Path 1905" d="M131.211,145.458,0,145.568v87.615H131.211Z" transform="translate(0 -49.959)" fill="#4d777c"/>
        <path id="Path_1906" data-name="Path 1906" d="M131.444,313.1v14.592H2.759a2.416,2.416,0,0,1-2.416-2.416A9.641,9.641,0,0,1,4.137,317.6c-.006,0,47.129-36.132,47.129-36.132H90.184Z" transform="translate(-0.233 -142.158)" fill="#396267"/>
        <path id="Path_1907" data-name="Path 1907" d="M394.254,137.958a2.416,2.416,0,0,1,2.416,2.416,9.652,9.652,0,0,1-3.795,7.676c.007,0-5.869,4.5-5.869,4.5l-9.663-7.3,9.663-7.3Z" transform="translate(-255.795 -44.875)" fill="#5e8f94"/>
        <path id="Path_1908" data-name="Path 1908" d="M90.184,184.185,76.6,194.6a9.669,9.669,0,0,1-11.744,0c-.006,0-13.59-10.411-13.59-10.411L4.131,148.05a9.665,9.665,0,0,1-3.788-7.676,2.416,2.416,0,0,1,2.416-2.416H131.444v14.6Z" transform="translate(-0.233 -44.875)" fill="#5e8f94"/>
      </g>
    </g>
  </g>
</svg>
