<svg xmlns="http://www.w3.org/2000/svg" width="160" height="160" viewBox="0 0 160 160">
  <g id="Group_3277" data-name="Group 3277" transform="translate(-65 -35.36)">
    <rect id="Rectangle_600" data-name="Rectangle 600" width="160" height="160" transform="translate(65 35.36)" fill="#fff" opacity="0"/>
    <g id="cloud-sync" transform="translate(65 57.36)">
      <path id="Path_1857" data-name="Path 1857" d="M122.5,40a37.781,37.781,0,0,0-5.109.347c.072-.948.109-1.9.109-2.847a37.5,37.5,0,0,0-74.248-7.493C43,30,42.749,30,42.5,30a42.5,42.5,0,0,0,0,85h80a37.5,37.5,0,0,0,0-75Zm0,0" transform="translate(0)" fill="#4d777c"/>
      <path id="Path_1858" data-name="Path 1858" d="M130,198.116H50a42.489,42.489,0,0,1-37.4-62.675,42.479,42.479,0,0,0,29.9,72.675h80a37.539,37.539,0,0,0,33.343-20.352A37.369,37.369,0,0,1,130,198.116Zm0,0" transform="translate(0 -93.116)" fill="#396267"/>
      <g id="Group_3399" data-name="Group 3399" transform="translate(47.51 37.5)">
        <path id="Path_1859" data-name="Path 1859" d="M231.462,137.92a2.5,2.5,0,0,0-3.467.693l-1.3,1.957a27.507,27.507,0,0,0-51.826-4.071,2.5,2.5,0,1,0,4.583,2A22.5,22.5,0,0,1,222,142.442l-3.033-2.021a2.5,2.5,0,0,0-2.773,4.16l7.485,4.99a2.53,2.53,0,0,0,3.481-.684l5-7.5a2.5,2.5,0,0,0-.693-3.467Zm0,0" transform="translate(-167.586 -120)" fill="#6cc8c5"/>
        <path id="Path_1860" data-name="Path 1860" d="M208.531,209.951a2.5,2.5,0,0,0-3.276,1.329,22.5,22.5,0,0,1-42.653-3.7l3.033,2.021a2.5,2.5,0,1,0,2.773-4.16l-7.485-4.99a2.53,2.53,0,0,0-3.481.684l-5,7.5a2.5,2.5,0,0,0,3.958,3.037,9.851,9.851,0,0,0,.735-1.063l.773-1.157a27.507,27.507,0,0,0,51.953,3.776,2.5,2.5,0,0,0-1.329-3.278Zm0,0" transform="translate(-152.033 -175.023)" fill="#6cc8c5"/>
      </g>
    </g>
  </g>
</svg>
