<svg xmlns="http://www.w3.org/2000/svg" width="160" height="160" viewBox="0 0 160 160">
  <g id="Group_3357" data-name="Group 3357" transform="translate(-66 -35.36)">
    <g id="Group_3275" data-name="Group 3275">
      <rect id="Rectangle_600" data-name="Rectangle 600" width="160" height="160" transform="translate(66 35.36)" fill="#fff" opacity="0"/>
      <g id="clipboard_1_" data-name="clipboard (1)" transform="translate(33.8 35.36)">
        <g id="Group_3404" data-name="Group 3404" transform="translate(51.2 0)">
          <g id="Group_3402" data-name="Group 3402">
            <path id="Path_1881" data-name="Path 1881" d="M172.263,71.952V185.3a11.869,11.869,0,0,1-11.869,11.869H63.069A11.869,11.869,0,0,1,51.2,185.3V71.952A11.869,11.869,0,0,1,63.069,60.083H82.455V73.93H140.81V60.083h19.583A11.869,11.869,0,0,1,172.263,71.952Z" transform="translate(-51.2 -37.334)" fill="#4d777c"/>
            <path id="Path_1882" data-name="Path 1882" d="M192.1,22.749V36.6H133.747V11.869h14.441A15.034,15.034,0,0,1,162.826,0a14.836,14.836,0,0,1,14.638,11.869H192.1v10.88Z" transform="translate(-102.492 0)" fill="#6cc8c5"/>
          </g>
          <g id="Group_3403" data-name="Group 3403" transform="translate(15.072 62.114)">
            <path id="Path_1883" data-name="Path 1883" d="M103.036,244.516a3.56,3.56,0,0,1-2.769-1.187l-8.11-8.308a4.154,4.154,0,0,1,0-5.737,3.957,3.957,0,0,1,5.539.2l5.341,5.539,12.66-12.067a3.957,3.957,0,0,1,5.539.2,3.758,3.758,0,0,1,.228,5.31c-.073.08-.149.156-.228.228l-15.43,14.638A3.957,3.957,0,0,1,103.036,244.516Z" transform="translate(-91.007 -200.008)" fill="#ececec"/>
            <path id="Path_1884" data-name="Path 1884" d="M239.626,255.555h-45.5a3.956,3.956,0,0,1,0-7.913h45.5a3.956,3.956,0,0,1,0,7.913Z" transform="translate(-152.625 -215.992)" fill="#ececec"/>
            <path id="Path_1885" data-name="Path 1885" d="M239.626,171.963h-45.5a3.956,3.956,0,0,1,0-7.913h45.5a3.956,3.956,0,0,1,0,7.913Z" transform="translate(-152.625 -164.05)" fill="#ececec"/>
            <path id="Path_1886" data-name="Path 1886" d="M103.036,328.108a3.56,3.56,0,0,1-2.769-1.187l-8.11-8.308a4.154,4.154,0,0,1,0-5.737,3.957,3.957,0,0,1,5.539.2l5.341,5.539,12.66-12.067a3.957,3.957,0,0,1,5.539.2,3.758,3.758,0,0,1,.228,5.31c-.073.079-.149.156-.228.228l-15.43,14.638A3.957,3.957,0,0,1,103.036,328.108Z" transform="translate(-91.007 -251.95)" fill="#ececec"/>
            <path id="Path_1887" data-name="Path 1887" d="M239.626,339.147h-45.5a3.956,3.956,0,0,1,0-7.913h45.5a3.956,3.956,0,0,1,0,7.913Z" transform="translate(-152.625 -267.933)" fill="#ececec"/>
          </g>
        </g>
        <rect id="Rectangle_637" data-name="Rectangle 637" width="23.54" height="21.502" transform="translate(69.399 54.993)" fill="#396267"/>
      </g>
    </g>
  </g>
</svg>
